<svg width="308" height="328" viewBox="0 0 308 328" fill="none" xmlns="http://www.w3.org/2000/svg">
<path d="M260.92 124.32H158.48V226.76H260.92V124.32Z" fill="#E8E8E8"/>
<path d="M188.28 158.52C188.28 159.96 188.28 162.16 188.44 164.8C188.8 171 189.64 175.72 190.56 180.8C191 183.24 191.64 186.6 192.56 190.56C193.36 193.6 194.2 196.64 195 199.68C208.72 200.2 222.48 200.68 236.2 201.2C236.32 199.56 236.44 197.88 236.52 196.24C237.32 183.44 237.64 170.92 237.6 158.76C235.64 157.72 233 156.44 229.8 155.24C227.72 154.48 224.12 153.16 219.56 152.44C217.36 152.08 210.4 151.16 201.76 153.16C196.12 154.48 191.6 156.56 188.28 158.52Z" fill="#262A4F"/>
<path d="M199.08 146.08C199.84 146.08 199.84 144.88 199.08 144.88C198.32 144.88 198.32 146.08 199.08 146.08Z" fill="#202124"/>
<path d="M237.8 168.36C237.36 179.28 236.8 190.24 236.04 201.16C236.04 201.36 236.32 201.36 236.36 201.16C237.12 190.24 237.72 179.32 238.12 168.36C238.12 168.2 237.8 168.2 237.8 168.36Z" fill="#202124"/>
<path d="M260.76 190.52H158.64V226.6H260.76V190.52Z" fill="#C1C1C1"/>
<path d="M200.16 191.36C197.36 195.4 194.6 199.44 191.8 203.48C199.52 203.28 207.24 203.08 215 202.84C215.88 199 216.76 195.2 217.68 191.36C211.8 191.32 206 191.32 200.16 191.36Z" fill="white"/>
<path d="M202.44 201.6C204.12 201.6 205.8 201.6 207.52 201.6C207.72 201.6 207.72 201.28 207.52 201.28C205.84 201.28 204.16 201.28 202.44 201.28C202.24 201.32 202.24 201.6 202.44 201.6Z" fill="#202124"/>
<path d="M201.8 200.16C204.12 200.16 206.4 200.16 208.72 200.16C208.92 200.16 208.92 199.84 208.72 199.84C206.4 199.84 204.12 199.84 201.8 199.84C201.6 199.84 201.6 200.16 201.8 200.16Z" fill="#202124"/>
<path d="M201.88 198.96C205.68 198.96 209.52 198.96 213.32 198.96C213.52 198.96 213.52 198.64 213.32 198.64C209.52 198.64 205.68 198.64 201.88 198.64C201.72 198.64 201.72 198.96 201.88 198.96Z" fill="#202124"/>
<path d="M200.8 197.36C203.28 197.36 205.76 197.36 208.28 197.36C208.48 197.36 208.48 197.04 208.28 197.04C205.8 197.04 203.32 197.04 200.8 197.04C200.6 197.08 200.6 197.36 200.8 197.36Z" fill="#202124"/>
<path d="M199.12 194.6C204.2 194.6 209.24 194.6 214.32 194.6C214.52 194.6 214.52 194.28 214.32 194.28C209.24 194.28 204.2 194.28 199.12 194.28C198.92 194.32 198.92 194.6 199.12 194.6Z" fill="#202124"/>
<path d="M193.04 192.48C192.64 192.84 192.48 193.24 192.24 193.92C192.16 194.12 191.88 194.92 191.68 196.36C191.6 196.96 191.56 197.48 191.52 197.84C191.96 198.4 192.36 198.88 192.72 199.2C193.32 199.8 193.84 200.28 194.64 200.56C195.16 200.76 195.56 200.8 196.36 200.84C196.96 200.88 197.8 200.92 198.84 200.8C199.56 200.44 200.04 199.8 200.04 199.08C200.04 198.64 199.84 198.32 199.72 198.16C198.92 197.04 198.12 195.92 197.32 194.8C197.36 194.56 197.44 194 197.2 193.44C196.88 192.76 196.28 192.48 195.76 192.24C195.32 192.04 194.84 191.8 194.24 191.92C193.56 192 193.16 192.36 193.04 192.48Z" fill="#F7CD5B"/>
<path d="M188.28 158.52C187.84 159.08 187.24 159.84 186.52 160.8C183.4 164.92 181.16 167.88 178.68 171.76C176.64 175 175.52 177.16 174.28 179.56C172.28 183.44 173.76 181.16 172.24 184.36C171.84 185.16 171.44 186 171.48 187.12C171.56 188.32 172.12 189.2 172.32 189.52C173 190.52 173.84 191 174.6 191.44C178.2 193.44 179.44 193.88 179.44 193.88C184.64 195.76 190.36 197.48 191.48 197.84C191.52 197.24 191.56 196.56 191.68 195.84C191.88 194.56 192.2 193.48 192.56 192.56C191.8 191.8 191.08 191.04 190.32 190.28C188.72 188.64 187.12 187 185.56 185.36C186.8 183.64 188.12 181.88 189.56 180.12C192 177.08 194.48 174.32 196.84 171.84C197.36 170.44 197.44 169.24 197.36 168.36C197.12 164.16 193.48 160.44 188.28 158.52Z" fill="#262A4F"/>
<path d="M196.48 172.12C192.6 176.08 189.04 180.36 185.8 184.92C185.68 185.08 185.96 185.24 186.04 185.08C189.24 180.56 192.8 176.32 196.64 172.36C196.8 172.2 196.6 172 196.48 172.12Z" fill="white"/>
<path d="M192.4 192.6C192.48 193.08 192.12 193.68 192 194.12C191.88 194.52 191.76 194.96 191.68 195.4C191.52 196.2 191.4 197.04 191.4 197.84C191.4 198.04 191.68 198.04 191.72 197.84C191.76 196.72 191.92 195.64 192.24 194.56C192.44 193.92 192.92 193.2 192.76 192.52C192.68 192.32 192.36 192.4 192.4 192.6Z" fill="#202124"/>
<path d="M192.6 192.64C193.2 192.68 193.6 192.36 194.12 192.08C195.2 191.56 196.28 192.88 197.04 193.52C197.2 193.64 197.4 193.44 197.24 193.32C196.6 192.8 195.76 191.76 194.92 191.6C194.04 191.48 193.48 192.36 192.6 192.32C192.4 192.36 192.4 192.64 192.6 192.64Z" fill="#202124"/>
<path d="M191.36 197.92C192.28 198.96 193.12 200.16 194.44 200.64C195.68 201.12 197.12 201 198.4 200.88C198.6 200.88 198.6 200.56 198.4 200.56C197.12 200.68 195.8 200.8 194.56 200.32C193.28 199.84 192.44 198.68 191.6 197.68C191.48 197.6 191.24 197.8 191.36 197.92Z" fill="#202124"/>
<path d="M196.4 194.08C197.6 195.36 198.64 196.76 199.56 198.28C199.64 198.44 199.92 198.28 199.8 198.12C198.88 196.6 197.8 195.16 196.6 193.88C196.48 193.72 196.24 193.92 196.4 194.08Z" fill="#202124"/>
<path d="M195.96 195.84C196.68 197.12 197.8 198.04 198.88 198.96C199.04 199.08 199.24 198.88 199.08 198.76C198 197.88 196.88 196.96 196.2 195.72C196.12 195.52 195.88 195.68 195.96 195.84Z" fill="#202124"/>
<path d="M195.32 197.52C196.24 198.56 197.32 199.36 198.56 199.92C198.72 200 198.88 199.72 198.72 199.68C197.48 199.12 196.4 198.36 195.52 197.32C195.4 197.16 195.2 197.36 195.32 197.52Z" fill="#202124"/>
<path d="M194.8 199.52C195.8 200 196.84 200.36 197.96 200.56C198.16 200.6 198.24 200.32 198.04 200.28C196.96 200.08 195.96 199.72 194.96 199.28C194.8 199.16 194.64 199.44 194.8 199.52Z" fill="#202124"/>
<path d="M213.08 198.4C212.6 198.28 212.36 197.8 212.48 197.32L217.04 180.96C217.16 180.48 217.64 180.24 218.12 180.36C218.6 180.48 218.84 180.96 218.72 181.44L214.16 197.8C214.04 198.24 213.56 198.52 213.08 198.4Z" fill="#4C5BE7"/>
<path d="M221.8 190.28C221.4 189.64 220.96 189.2 220.64 188.88C220.04 188.32 219.12 187.44 218.4 187.68C218.16 187.76 217.92 187.96 217.88 188.2C217.84 188.36 217.92 188.52 218.28 189C218.44 189.24 218.68 189.56 218.96 189.88C218.24 190.56 217.56 191.08 217 191.48C216.08 192.08 215.64 192.4 215 192.6C214.2 192.88 213.8 192.8 213.16 193.24C212.88 193.44 212.48 193.72 212.24 194.2C211.92 194.92 212.2 195.68 212.48 196.52C212.72 197.16 213 197.68 213.24 198.04C213.68 198.24 214.36 198.52 215.2 198.6C216.68 198.8 217.84 198.4 218.36 198.2C219.84 197.68 220.68 196.84 222.32 195.2C223.4 194.12 223.56 193.76 223.6 193.52C223.92 191.96 222.12 190.52 221.8 190.28Z" fill="#F7CD5B"/>
<path d="M237.8 158.88C237.04 159.56 236.24 160.4 235.52 161.36C232.36 165.48 231.76 170.04 231.64 172.52C233.2 176.24 234.76 179.92 236.36 183.64C231.52 185.84 226.68 188.04 221.88 190.28C222 190.68 222.12 191.08 222.24 191.56C222.56 193.08 222.56 194.4 222.44 195.48C226 195.72 229.12 195.72 231.6 195.64C233.88 195.56 238.4 195.36 244.12 194.48C246.68 194.08 248.84 193.64 250.44 193.32C250.32 192.2 250.08 190.56 249.8 188.64C248.84 182.16 247.8 177.84 246.84 173.84C246.04 170.52 245.4 168.28 244.16 165.76C243.28 164 242.44 162.76 241.32 161.6C239.96 160.24 238.68 159.4 237.8 158.88Z" fill="#262A4F"/>
<path d="M222 190.12C229.12 187.32 236.04 184.12 242.8 180.56C242.96 180.48 242.8 180.2 242.64 180.32C235.92 183.88 229 187.08 221.92 189.88C221.72 189.88 221.8 190.16 222 190.12Z" fill="white"/>
<path d="M221.8 190.52C222 190.52 222 190.2 221.8 190.2C221.6 190.24 221.6 190.52 221.8 190.52Z" fill="#202124"/>
<path d="M221.68 190.32C222.12 191.6 222.28 192.96 222.12 194.32C222.08 194.52 222.4 194.52 222.44 194.32C222.6 192.92 222.44 191.6 222 190.24C221.88 190.04 221.6 190.12 221.68 190.32Z" fill="#202124"/>
<path d="M222.88 195.56C232 196.12 241.12 195.4 250.08 193.4C250.28 193.36 250.2 193.08 250 193.12C241.08 195.12 232 195.84 222.88 195.28C222.68 195.28 222.68 195.56 222.88 195.56Z" fill="#202124"/>
<path d="M221.72 189.84C221.24 189.2 220.68 188.6 220 188.16C219.52 187.84 218.76 187.44 218.16 187.52C216.92 187.72 218.48 189.6 218.88 190C219 190.16 219.24 189.92 219.08 189.8C218.76 189.44 218.24 188.88 218.12 188.36C217.96 188.16 218 187.96 218.24 187.8C218.36 187.8 218.48 187.84 218.6 187.84C218.88 187.92 219.16 188 219.44 188.16C220.28 188.6 220.92 189.28 221.52 190.04C221.64 190.2 221.84 190 221.72 189.84Z" fill="#202124"/>
<path d="M212.44 194.44C214 194.68 215.52 194.68 217.04 194.4C217.24 194.36 217.16 194.08 216.96 194.12C215.48 194.4 214 194.4 212.52 194.16C212.32 194.12 212.24 194.4 212.44 194.44Z" fill="#202124"/>
<path d="M212.48 195.08C213.64 196.2 215.84 196 217.28 195.88C217.48 195.88 217.48 195.56 217.28 195.56C215.92 195.68 213.76 195.92 212.68 194.88C212.56 194.72 212.32 194.96 212.48 195.08Z" fill="#202124"/>
<path d="M212.56 196.24C213.84 197.4 215.48 197.44 217.12 197.28C217.32 197.24 217.32 196.96 217.12 196.96C215.6 197.16 214 197.12 212.76 196.04C212.64 195.88 212.4 196.12 212.56 196.24Z" fill="#202124"/>
<path d="M231.48 172.56C233 176.16 234.48 179.76 236 183.36C236.08 183.52 236.36 183.44 236.28 183.28C234.76 179.68 233.28 176.08 231.76 172.48C231.68 172.32 231.4 172.4 231.48 172.56Z" fill="white"/>
<path d="M202.92 148.12C202.84 148.36 202.56 149.16 202.48 150.2C202.44 151 202.52 151.68 202.6 152.12C202.84 153.48 203.4 154.44 203.56 154.72C204.4 156.08 205.44 156.8 205.72 157C207.2 157.96 208.64 158.12 209.36 158.12C209.44 158.24 209.52 158.36 209.6 158.48C209.52 158.48 209.08 158.6 208.92 158.96C208.76 159.36 209.08 159.76 209.32 160C210.28 160.8 212.24 159.76 212.36 159.68C212.84 159.4 213.4 159.12 213.68 158.44C214 157.68 213.76 156.96 213.68 156.76C214 156.48 214.4 156.12 214.8 155.56C215.32 154.84 215.6 154.16 215.72 153.84C215.88 153.4 216.16 152.52 216.08 151.36C215.96 150.08 215.4 149.2 214.92 148.48C214.6 148 213.72 146.64 212.24 145.84C208.88 143.96 203.84 145.84 202.92 148.12Z" fill="#F7CD5B"/>
<path d="M211.88 146.64C211.6 146.96 211.16 147.4 210.56 147.76C209.6 148.32 208.72 148.44 206.52 148.56C205.36 148.64 204.08 148.68 202.68 148.68C202.64 149.08 202.6 149.48 202.56 149.88C202.32 149.92 201.92 150 201.44 149.92C199.88 149.64 199.16 148.12 199.04 147.84C198.84 147.36 198.36 146.32 198.88 145.36C199.2 144.8 199.72 144.52 199.96 144.44C199.92 144.08 199.92 143.4 200.36 142.84C200.64 142.48 201.24 142.12 202.8 142.12C204.48 142.12 205.12 142.56 207.48 143.16C210.4 143.92 211.84 144.24 211.84 144.24C212.52 144.4 213.44 144.6 214.16 145.4C214.56 145.84 214.76 146.32 214.84 146.68C215.04 146.64 215.68 146.56 216.2 146.96C216.84 147.4 216.92 148.16 217 148.6C217.16 149.96 216.36 151.04 216.12 151.36C215.52 150.88 214.84 150.28 214.16 149.56C213.16 148.48 212.44 147.52 211.88 146.64Z" fill="#A083EA"/>
<path d="M208.4 151.36C208.16 152.96 207.96 154.68 209.2 155.96C209.32 156.08 209.56 155.88 209.4 155.76C208.24 154.6 208.44 152.96 208.68 151.44C208.72 151.24 208.4 151.16 208.4 151.36Z" fill="#202124"/>
<path d="M209.32 158.24C209.48 158.48 209.6 158.76 209.76 159C209.84 159.16 210.12 159 210 158.84C209.84 158.6 209.72 158.32 209.56 158.08C209.48 157.92 209.24 158.08 209.32 158.24Z" fill="#202124"/>
<path d="M206.64 153.2C206.817 153.2 206.96 152.949 206.96 152.64C206.96 152.331 206.817 152.08 206.64 152.08C206.463 152.08 206.32 152.331 206.32 152.64C206.32 152.949 206.463 153.2 206.64 153.2Z" fill="#202124"/>
<path d="M210.72 153.2C210.897 153.2 211.04 152.949 211.04 152.64C211.04 152.331 210.897 152.08 210.72 152.08C210.543 152.08 210.4 152.331 210.4 152.64C210.4 152.949 210.543 153.2 210.72 153.2Z" fill="#202124"/>
<path d="M185.56 220.84C189.404 220.84 192.52 217.724 192.52 213.88C192.52 210.036 189.404 206.92 185.56 206.92C181.716 206.92 178.6 210.036 178.6 213.88C178.6 217.724 181.716 220.84 185.56 220.84Z" fill="white"/>
<path d="M237.36 220.84C241.204 220.84 244.32 217.724 244.32 213.88C244.32 210.036 241.204 206.92 237.36 206.92C233.516 206.92 230.4 210.036 230.4 213.88C230.4 217.724 233.516 220.84 237.36 220.84Z" fill="#A083EA"/>
<path d="M211.44 221.56C215.284 221.56 218.4 218.444 218.4 214.6C218.4 210.756 215.284 207.64 211.44 207.64C207.596 207.64 204.48 210.756 204.48 214.6C204.48 218.444 207.596 221.56 211.44 221.56Z" fill="white"/>
<path d="M226.64 209.08C227.4 209.08 227.4 207.88 226.64 207.88C225.88 207.88 225.88 209.08 226.64 209.08Z" fill="white"/>
<path d="M238.28 210.24H238.2H237.2H235.72C235.28 210.24 234.92 210.6 234.92 211.04V211.36V212.52H236.4V212.16H237.2V216.08H236.52V215.64H235.04V216.28V217.08V217.8C235.04 217.92 235.12 218 235.24 218H237.8C238.08 218 238.32 217.92 238.56 217.76C239.16 217.48 239.6 216.84 239.6 216.12V211.56C239.6 210.84 239 210.24 238.28 210.24Z" fill="white"/>
<path d="M214.16 213.88H208.48C208.08 213.88 207.76 213.56 207.76 213.16C207.76 212.76 208.08 212.44 208.48 212.44H214.16C214.56 212.44 214.88 212.76 214.88 213.16C214.88 213.52 214.56 213.88 214.16 213.88Z" fill="#202124"/>
<path d="M214.2 217.2H208.48C208.08 217.2 207.76 216.88 207.76 216.48C207.76 216.08 208.08 215.76 208.48 215.76H214.2C214.6 215.76 214.92 216.08 214.92 216.48C214.92 216.84 214.6 217.2 214.2 217.2Z" fill="#202124"/>
<path d="M185.4 217.68C187.432 217.68 189.08 216.032 189.08 214C189.08 211.968 187.432 210.32 185.4 210.32C183.368 210.32 181.72 211.968 181.72 214C181.72 216.032 183.368 217.68 185.4 217.68Z" fill="#A083EA"/>
<path d="M148.52 124.32H46.08V226.76H148.52V124.32Z" fill="#E8E8E8"/>
<path d="M134.52 181.6C134.84 181.84 135.36 182.24 135.88 182.84C136.68 183.76 137.12 184.6 137.4 185.28C140.12 191.6 140.72 194.4 140.72 194.4C142.08 200.68 142.44 201.52 143.04 203.68C143.8 206.6 144.2 208.8 144.6 211C145.32 214.96 146.24 220.28 147.32 226.64C142.24 226.64 137.16 226.64 132.04 226.64C131.52 225.16 131 223.68 130.48 222.16C128.04 215.28 125.44 208.68 122.76 202.36C126.64 195.4 130.56 188.52 134.52 181.6Z" fill="#A083EA"/>
<path d="M73.4 179.04C74.68 178.72 76.48 178.28 78.64 177.8C81.08 177.28 86.8 176.08 93.28 175.6C96.76 175.32 104.92 174.88 115.28 176.52C122.72 177.68 129.2 179.6 134.48 181.64C134.52 186.04 134.56 190.48 134.6 194.88C133.64 198.56 132.72 202.36 131.8 206.2C130.16 213.16 128.72 219.96 127.44 226.6C111.44 226.6 95.4 226.6 79.4 226.6C78.8 224.24 78.24 221.84 77.72 219.36C74.68 204.96 73.48 191.4 73.4 179.04Z" fill="#A083EA"/>
<path d="M98.12 153.8C98.88 153.8 98.88 152.6 98.12 152.6C97.36 152.6 97.36 153.8 98.12 153.8Z" fill="#202124"/>
<path d="M73.4 179.04C72.92 179.36 72.28 179.8 71.6 180.44C70.04 181.84 69.08 183.28 68.36 184.56C66.72 187.44 65.84 190.36 65.16 192.68C63.64 197.68 62.92 200.2 61.84 204.52C61.28 206.76 60.6 209.48 59.88 213.08C59.2 216.56 58.4 221.12 57.76 226.6C63.6 226.6 69.44 226.6 75.28 226.6C75.44 224.24 75.72 221.68 76.2 219C77.08 213.72 78.44 209.08 79.84 205.16C80.68 203 81.6 199.6 81.36 195.44C80.84 186.4 75.04 180.56 73.4 179.04Z" fill="#A083EA"/>
<path d="M92.08 158.72C91.96 159.12 91.68 160.24 91.48 161.56C91.32 162.68 91.16 164 91.28 165.56C91.4 166.64 91.56 168.28 92.6 170.08C93.84 172.16 95.52 173.16 95.96 173.44C97.48 174.28 98.92 174.52 99.72 174.56C100 175.24 100.28 175.96 100.56 176.64C99.72 176.72 99 177.24 98.72 178C98.44 178.76 98.68 179.56 99.16 180.04C99.68 180.64 100.44 180.68 101.2 180.72C101.48 180.72 102.52 180.8 103.8 180.28C104.36 180.04 105.56 179.52 106.52 178.24C107.56 176.8 107.6 175.28 107.6 174.76C107.44 173.8 107.28 172.8 107.12 171.84C107.4 171.52 107.8 171.04 108.2 170.4C108.92 169.24 109.16 168.16 109.32 167.44C110.08 163.76 110.48 161.92 110.12 159.84C109.84 158.24 109.4 155.56 107.44 154C102.96 150.32 93.36 154.68 92.08 158.72Z" fill="#F7CD5B"/>
<path d="M91.44 162C91.52 161.44 91.64 160.88 91.72 160.32C92.12 160.28 92.68 160.24 93.28 160.04C93.64 159.92 94.4 159.64 95.68 158.64C96.36 158.08 97.32 157.24 98.28 155.96C98.56 155.92 98.84 155.92 99.16 155.88C99.48 156.08 99.84 156.24 100.28 156.4C102.04 157.04 103.68 156.8 104.6 156.56C104.64 156.96 104.68 157.52 104.88 158.2C105.08 158.96 105.4 160.04 106.36 160.88C106.64 161.12 107.2 161.56 108.12 161.8C108.28 162.44 108.48 163.12 108.8 163.88C109.28 165.08 109.88 166.08 110.44 166.84C110.84 166.76 111.48 166.6 112.16 166.2C112.56 165.96 113.12 165.64 113.52 164.96C113.64 164.72 114.12 163.96 114 162.92C113.8 161.4 112.44 160.68 112.28 160.64C112.6 160.44 113.12 160.12 113.52 159.56C114.36 158.4 114.28 157.12 114.24 156.76C114.08 154.72 112.4 152.92 110.4 152.52C109.36 152.28 108.44 152.52 107.92 152.68C107.76 152.4 107.12 151.32 105.8 150.88C104.44 150.44 102.88 150.92 101.8 152.04C101.56 151.56 100.8 150.4 99.32 149.72C99.04 149.6 96.64 148.52 94.4 149.96C92.8 150.96 91.92 152.88 92.12 154.8C91.72 154.76 90.96 154.72 90.08 155.08C89.72 155.24 88.16 155.92 87.8 157.6C87.48 159.12 88.36 160.48 89.28 161.2C90.12 161.84 91.04 162 91.44 162Z" fill="#202124"/>
<path d="M98.2 162.64C97.72 164.8 96.92 168.6 99.12 170.08C99.28 170.2 99.44 169.92 99.28 169.84C97.32 168.48 98.08 164.68 98.52 162.72C98.52 162.52 98.24 162.44 98.2 162.64Z" fill="#202124"/>
<path d="M91.04 161.84C86.8 161.08 87.76 154.52 92.12 154.96C92.2 154.96 92.28 154.88 92.28 154.8C91.6 149.32 99.12 147.48 101.64 152.12C101.72 152.28 102 152.12 101.88 151.96C99.64 147.84 92.92 148.24 91.96 153.2C91.84 153.76 92.04 154.28 91.52 154.6C91.36 154.72 90.56 154.72 90.32 154.8C89.36 155.12 88.6 155.84 88.2 156.76C87.28 158.96 88.56 161.68 90.92 162.08C91.16 162.2 91.24 161.88 91.04 161.84Z" fill="#202124"/>
<path d="M101.88 152.16C103.64 150.36 106.44 150.52 107.76 152.76C107.8 152.8 107.88 152.84 107.92 152.84C111.72 151.6 115.68 157.96 112.36 160.6C112.2 160.72 112.44 160.92 112.56 160.8C115.76 158.28 113.12 153.92 110.08 152.64C109.32 152.32 108.44 152.52 107.76 152.16C107.12 151.8 106.88 151.16 106.12 150.84C104.52 150.16 102.84 150.72 101.68 151.92C101.52 152.08 101.72 152.28 101.88 152.16Z" fill="#202124"/>
<path d="M112.16 160.8C113.6 161.2 114.04 162.88 113.64 164.2C113.24 165.56 112 166.4 110.6 166.4C110.4 166.4 110.4 166.72 110.6 166.72C112.28 166.68 113.68 165.6 114 163.96C114.28 162.56 113.68 160.96 112.24 160.56C112.04 160.44 112 160.72 112.16 160.8Z" fill="#202124"/>
<path d="M91.72 160.48C94.04 160.28 95.72 158.96 97.24 157.32C97.48 157.08 97.68 156.84 97.92 156.6C98.52 155.96 99.08 155.88 99.64 156.36C99.96 156.4 100.6 156.72 100.92 156.8C102.04 157.08 103.16 157 104.28 156.76C104.48 156.72 104.4 156.44 104.2 156.48C103.12 156.72 102.08 156.8 101 156.52C100.36 156.36 99.56 155.72 98.92 155.68C98.6 155.64 98.6 155.64 98.32 155.76C97.56 156.08 96.88 157.28 96.28 157.84C94.96 159.12 93.52 160.04 91.64 160.2C91.52 160.2 91.52 160.52 91.72 160.48Z" fill="#202124"/>
<path d="M104.44 156.64C104.72 158.56 105.12 160.16 106.72 161.36C107.32 161.8 108.04 162.08 108.36 162.72C108.6 163.16 108.68 163.68 108.88 164.12C109.28 165.08 109.8 165.84 110.56 166.56C110.72 166.68 110.92 166.48 110.76 166.36C109.72 165.4 109.24 164.28 108.76 162.96C108.6 162.52 108.52 162.08 108.2 161.76C107.64 161.16 106.6 161 106 160.32C105.12 159.32 104.92 157.88 104.76 156.6C104.72 156.4 104.4 156.48 104.44 156.64Z" fill="#202124"/>
<path d="M95.76 165.4C96.0472 165.4 96.28 164.952 96.28 164.4C96.28 163.848 96.0472 163.4 95.76 163.4C95.4728 163.4 95.24 163.848 95.24 164.4C95.24 164.952 95.4728 165.4 95.76 165.4Z" fill="#202124"/>
<path d="M102.96 164.88C103.247 164.88 103.48 164.432 103.48 163.88C103.48 163.328 103.247 162.88 102.96 162.88C102.673 162.88 102.44 163.328 102.44 163.88C102.44 164.432 102.673 164.88 102.96 164.88Z" fill="#202124"/>
<path d="M95.24 169.08H89.88C88.88 169.08 88.08 168.28 88.08 167.28V161.44C88.08 160.44 88.88 159.64 89.88 159.64H95.24C96.24 159.64 97.04 160.44 97.04 161.44V167.28C97.04 168.28 96.24 169.08 95.24 169.08Z" stroke="#202124" stroke-width="0.75" stroke-miterlimit="10"/>
<path d="M106.96 169.08H101.6C100.6 169.08 99.8 168.28 99.8 167.28V161.44C99.8 160.44 100.6 159.64 101.6 159.64H106.96C107.96 159.64 108.76 160.44 108.76 161.44V167.28C108.76 168.28 107.96 169.08 106.96 169.08Z" stroke="#202124" stroke-width="0.75" stroke-miterlimit="10"/>
<path d="M97.24 164.44C97.88 163.76 98.96 164 99.64 164.48C99.8 164.6 99.96 164.32 99.8 164.24C99 163.72 97.76 163.52 97.04 164.28C96.88 164.36 97.08 164.56 97.24 164.44Z" fill="#202124"/>
<path d="M73.92 219.36C77.7639 219.36 80.88 216.244 80.88 212.4C80.88 208.556 77.7639 205.44 73.92 205.44C70.0761 205.44 66.96 208.556 66.96 212.4C66.96 216.244 70.0761 219.36 73.92 219.36Z" fill="white"/>
<path d="M125.72 219.36C129.564 219.36 132.68 216.244 132.68 212.4C132.68 208.556 129.564 205.44 125.72 205.44C121.876 205.44 118.76 208.556 118.76 212.4C118.76 216.244 121.876 219.36 125.72 219.36Z" fill="#4C5BE7"/>
<path d="M99.8 220.08C103.644 220.08 106.76 216.964 106.76 213.12C106.76 209.276 103.644 206.16 99.8 206.16C95.9561 206.16 92.84 209.276 92.84 213.12C92.84 216.964 95.9561 220.08 99.8 220.08Z" fill="white"/>
<path d="M115 207.6C115.76 207.6 115.76 206.4 115 206.4C114.24 206.4 114.24 207.6 115 207.6Z" fill="white"/>
<path d="M126.64 208.76H126.56H125.56H124.08C123.64 208.76 123.28 209.12 123.28 209.56V209.88V211.04H124.76V210.68H125.56V214.6H124.88V214.16H123.4V214.8V215.6V216.32C123.4 216.44 123.48 216.52 123.6 216.52H126.16C126.44 216.52 126.68 216.44 126.92 216.28C127.52 216 127.96 215.36 127.96 214.64V210.08C127.96 209.36 127.36 208.76 126.64 208.76Z" fill="white"/>
<path d="M102.52 212.4H96.8C96.4 212.4 96.08 212.08 96.08 211.68C96.08 211.28 96.4 210.96 96.8 210.96H102.48C102.88 210.96 103.2 211.28 103.2 211.68C103.24 212.08 102.92 212.4 102.52 212.4Z" fill="#202124"/>
<path d="M102.56 215.72H96.8C96.4 215.72 96.08 215.4 96.08 215C96.08 214.6 96.4 214.28 96.8 214.28H102.52C102.92 214.28 103.24 214.6 103.24 215C103.28 215.4 102.96 215.72 102.56 215.72Z" fill="#202124"/>
<path d="M73.76 216.2C75.7924 216.2 77.44 214.552 77.44 212.52C77.44 210.488 75.7924 208.84 73.76 208.84C71.7276 208.84 70.08 210.488 70.08 212.52C70.08 214.552 71.7276 216.2 73.76 216.2Z" fill="#4C5BE7"/>
<path d="M260.84 13.96H158.4V116.4H260.84V13.96Z" fill="#E8E8E8"/>
<path d="M158.76 97.6399C192.24 97.6399 225.72 97.6399 259.24 97.6399C260 97.6399 260 96.4399 259.24 96.4399C225.76 96.4399 192.28 96.4399 158.76 96.4399C158 96.4399 158 97.6399 158.76 97.6399Z" fill="#202124"/>
<path d="M188.32 55.84C189.68 54.92 191.32 53.92 193.28 52.96C193.28 52.96 196.08 51.56 199.12 50.56C208.6 47.44 218.44 48.72 218.44 48.72C219.76 48.88 226.04 49.76 233.24 53.4C235.08 54.32 236.56 55.24 237.6 55.92C237.76 57.52 237.92 59.88 237.96 62.72C238.08 68.96 237.48 73.52 237.08 76.64C236.4 82.08 235.6 89.08 234.64 98.84C220.84 98.96 207.04 99.04 193.2 99.16C192.52 95.28 191.88 91.32 191.28 87.24C189.8 76.2 188.84 65.72 188.32 55.84Z" fill="#B1CEFC"/>
<path d="M202.12 81.8799V87.1999C199.72 88.0399 198.04 89.7599 198.04 91.7999C198.04 93.8399 199.72 95.5599 202.12 96.3999V100.48H214.08V81.8799H202.12ZM201.04 91.8399C201.04 90.8799 201.44 89.9599 202.12 89.1599V94.4799C201.44 93.7199 201.04 92.7999 201.04 91.8399Z" fill="#262A4F"/>
<path d="M208.12 83.8C211.412 83.8 214.08 82.9403 214.08 81.88C214.08 80.8196 211.412 79.96 208.12 79.96C204.828 79.96 202.16 80.8196 202.16 81.88C202.16 82.9403 204.828 83.8 208.12 83.8Z" fill="white" stroke="#202124" stroke-width="0.75" stroke-miterlimit="10"/>
<path d="M208 88.1199C208.76 88.1199 208.76 86.9199 208 86.9199C207.2 86.9199 207.2 88.1199 208 88.1199Z" fill="#202124"/>
<path d="M205.96 66.9599C203.72 67.6799 202.2 71.5199 204.24 73.1599C204.8 73.5999 205.84 73.8399 206.24 74.4399C207.2 75.8799 206.04 77.0399 205.52 78.3199C204.92 79.7599 205.04 81.1599 206.2 82.2399C206.36 82.3599 206.56 82.1599 206.4 82.0399C203.36 79.1999 208.04 77.4399 206.8 74.7999C206.52 74.1599 205.96 73.9199 205.4 73.5599C204.36 72.8799 204.08 72.8799 203.8 71.5599C203.4 70.7199 203.48 69.9199 204.12 69.1999C204.52 68.3999 205.16 67.7599 205.96 67.2799C206.24 67.1999 206.16 66.9199 205.96 66.9599Z" fill="#202124"/>
<path d="M212.08 72.32C210.64 73.08 208 75.56 208.68 77.44C208.92 78.12 208.96 77.76 209.36 78.32C209.52 78.44 209.68 78.56 209.84 78.68C210.48 79.56 210.56 80.32 210 80.96C209.76 81.76 209.36 82.12 209.88 82.92C210 83.08 210.24 82.92 210.12 82.76C209.56 81.88 210.68 80.76 210.8 79.92C210.84 79.6 210.88 79.4 210.72 79.08C210.64 78.92 210.48 78.8 210.4 78.68C210.28 78.56 210.12 78.48 210 78.36C209.8 77.4 209.6 76.48 209.4 75.52C209.64 74.4 211.36 73.04 212.32 72.52C212.4 72.48 212.24 72.2 212.08 72.32Z" fill="#202124"/>
<path d="M194.48 93.9599C195.44 92.8399 196.04 92.0399 196.4 91.4399C196.52 91.2399 196.76 90.8399 197.16 90.7599C197.64 90.6799 198.08 91.0399 198.16 91.1199C198.64 91.5199 198.72 92.0799 198.72 92.2399C199 92.4399 199.48 92.6799 200.04 92.7199C200.24 92.7599 201 92.7999 201.8 92.3999C202.44 92.0399 202.6 91.6799 202.84 91.7599C202.96 91.7999 203.16 91.9999 203.16 93.4399C203.16 94.4399 203.08 94.9199 203 95.6799C202.84 97.7199 203.2 98.3199 202.68 99.5599C202.4 100.24 202.16 100.52 202.04 100.6C201.48 101.12 200.72 101.24 199.76 101.24C197.72 101.24 195.76 100.6 194.56 100.16C194.2 99.9999 193.24 99.5199 192.8 98.4799C192.28 97.0799 192.88 95.1599 194.48 93.9599Z" fill="#F4DE5B"/>
<path d="M188.68 55.6C188.2 56.08 187.56 56.76 186.8 57.6C185.52 59.04 183.16 61.84 179.72 67.56C176.04 73.68 173.84 78.52 172.48 81.52C168.84 89.6 171.16 86.6 169.16 90.76C168.68 91.76 167.84 93.4 168.32 95.24C168.76 96.88 170 97.84 170.32 98.08C171.84 99.24 173.56 99.32 174.36 99.36C178.12 99.56 181.84 100.12 185.6 100.12C187.84 100.12 191.08 100.16 195.08 100.28C195.24 99.56 195.36 98.6 195.24 97.48C195.12 95.88 194.64 94.64 194.28 93.88C190.84 92.88 187.44 91.88 184 90.88C184.72 89.6 185.88 87.68 187.48 85.52C190.72 81.12 192.36 80.2 194.84 76.84C197.6 73.08 199.92 69.96 199.68 66.48C199.24 59.88 189.68 56 188.68 55.6Z" fill="#B1CEFC"/>
<path d="M194.32 77.08C190.52 81.16 187.12 85.56 184.16 90.28C184.04 90.44 184.32 90.6 184.4 90.44C187.36 85.76 190.72 81.36 194.52 77.28C194.68 77.16 194.44 76.92 194.32 77.08Z" fill="white"/>
<path d="M194.52 94.44C195.48 96.08 195.12 97.96 194.76 99.72C194.72 99.92 195 100 195.04 99.8C195.44 97.96 195.76 96 194.76 94.28C194.68 94.12 194.4 94.24 194.52 94.44Z" fill="white"/>
<path d="M198.68 92.3999C200.2 93.3199 201.6 92.8399 202.96 91.9199C203.12 91.7999 202.96 91.5599 202.8 91.6799C201.56 92.5599 200.24 93.0399 198.84 92.1599C198.64 92.0399 198.52 92.2799 198.68 92.3999Z" fill="#202124"/>
<path d="M200.48 95.28C201.52 95.96 202.88 94.32 203.28 93.52C203.36 93.36 203.12 93.2 203.04 93.36C202.84 93.8 202.56 94.16 202.2 94.48C201.84 94.8 201.12 95.36 200.64 95C200.48 94.92 200.32 95.16 200.48 95.28Z" fill="#202124"/>
<path d="M200.96 97.32C201.32 97.6 201.76 97.32 202.08 97.08C202.56 96.68 202.96 96.24 203.2 95.68C203.28 95.52 203 95.36 202.96 95.52C202.8 95.88 202.56 96.2 202.28 96.52C202.04 96.76 201.52 97.36 201.12 97.08C200.96 96.96 200.8 97.2 200.96 97.32Z" fill="#202124"/>
<path d="M201.56 99.12C202.24 98.92 202.76 98.36 202.84 97.64C202.88 97.44 202.56 97.44 202.52 97.64C202.44 98.2 202 98.68 201.48 98.84C201.28 98.88 201.36 99.16 201.56 99.12Z" fill="#202124"/>
<path d="M227 93.08C226.52 92.48 226.08 92.04 225.76 91.76C225 91.08 224.56 90.68 223.96 90.76C223.8 90.76 223.8 90.8 223.04 91.16C221.96 91.68 221.96 91.68 221.64 91.84C220.92 92.24 220.56 92.64 220.16 93.04C218.16 94.88 216.96 94.56 216.44 95.88C216.08 96.76 216.28 97.72 216.36 97.96C216.52 98.64 216.84 99.16 217.04 99.44C218.56 99.56 220.32 99.6 222.28 99.48C224.28 99.36 226.04 99.04 227.52 98.72C227.32 96.8 227.16 94.96 227 93.08Z" fill="#F4DE5B"/>
<path d="M237.52 55.96C237.04 56.64 236.56 57.36 236.08 58.16C232.32 64.76 232.72 71.84 233.44 76.2C235.72 80.12 238.04 84 240.32 87.92C235.88 89.56 231.4 91.16 226.96 92.8C227.16 94.88 227.36 96.92 227.52 99C232 99 235.76 98.8 238.64 98.56C242.48 98.28 246.32 97.96 251.28 96.96C254.28 96.36 256.76 95.68 258.48 95.2C259.08 94.72 259.64 94.28 260.24 93.8C259.68 91.64 258.92 89.04 257.84 86.08C256.36 82 254.76 78.6 253.48 76.08C251.36 71.92 249.32 67.96 245.6 63.56C243.76 61.44 241.16 58.68 237.52 55.96Z" fill="#B1CEFC"/>
<path d="M227.48 97.84C227.52 96.12 227.4 94.44 227.12 92.76C227.08 92.56 226.8 92.64 226.84 92.84C227.12 94.52 227.24 96.16 227.2 97.84C227.16 98.04 227.48 98.04 227.48 97.84Z" fill="white"/>
<path d="M233.32 76.24C235.56 80.04 237.8 83.8 240.04 87.6C240.12 87.76 240.4 87.6 240.28 87.44C238.04 83.64 235.8 79.88 233.56 76.08C233.48 75.96 233.24 76.08 233.32 76.24Z" fill="white"/>
<path d="M222.32 92.68C220.08 93.48 218 94.56 216.04 95.96C215.88 96.08 216.04 96.32 216.2 96.2C218.12 94.84 220.2 93.76 222.4 92.96C222.6 92.88 222.52 92.6 222.32 92.68Z" fill="#202124"/>
<path d="M216.44 97.6C218.36 97.12 220.24 96.56 222.08 95.88C222.28 95.8 222.2 95.52 222 95.6C220.16 96.28 218.28 96.84 216.36 97.32C216.16 97.36 216.24 97.64 216.44 97.6Z" fill="#202124"/>
<path d="M216.76 98.28C218.28 98.6 219.8 98.48 221.24 97.92C221.4 97.84 221.36 97.56 221.16 97.64C219.76 98.16 218.32 98.28 216.84 98C216.64 97.96 216.56 98.24 216.76 98.28Z" fill="#202124"/>
<path d="M216.56 99.44C218.48 99.92 220.36 99.96 222.28 99.56C222.48 99.52 222.4 99.24 222.2 99.28C220.32 99.68 218.48 99.64 216.64 99.16C216.44 99.12 216.36 99.4 216.56 99.44Z" fill="#202124"/>
<path d="M204.36 41.4399C204 41.2399 203.24 40.7599 202.68 39.8799C202.56 39.6399 201.6 37.9999 202.36 36.1199C202.88 34.8799 204 33.9199 205.24 33.7199C206.24 33.5599 207.16 33.9999 209 34.8799C210.44 35.5999 210.4 35.7999 211.68 36.3199C212.76 36.7599 213.24 36.7599 214.08 37.3199C214.88 37.8399 215.4 38.3999 215.6 38.6799C216.48 39.7199 216.76 40.7999 216.92 41.4799C217.24 42.6799 217.4 43.3599 217.08 43.9199C216.96 44.1199 216.44 44.9199 213.84 44.8799C212.16 44.7999 208.84 44.3999 204.36 41.4399Z" fill="#202124"/>
<path d="M204.48 41.4399C204.36 41.9999 204.2 42.8399 204.2 43.8399C204.2 45.0399 204.16 46.5599 205.08 48.1599C206.16 50.0799 207.92 50.9599 208.68 51.2399C209.2 51.4399 209.68 51.5599 210 51.6399C210.2 52.0399 210.4 52.4399 210.56 52.8399C210.52 52.8399 209.8 52.9199 209.52 53.4799C209.24 54.0799 209.64 54.6799 209.68 54.7199C210.32 55.5999 211.88 55.3599 212.24 55.2799C213.56 55.0799 214.44 54.2799 214.84 53.9199C215.4 53.3999 215.76 52.8799 215.96 52.4799C215.44 52.3999 214.92 52.3199 214.4 52.2399C214.16 51.7599 213.92 51.2799 213.68 50.7999C213.96 50.6399 214.32 50.3599 214.72 49.9999C214.72 49.9999 215.28 49.4799 215.72 48.8399C217.72 45.9199 217 43.4799 217 43.4799C216.48 41.6799 215 40.7599 214.4 40.3599C212.36 39.0399 210.24 39.2399 209.4 39.3199C206.92 39.6399 205.2 40.8799 204.48 41.4399Z" fill="#F4DE5B"/>
<path d="M208.84 42.08C208.28 43.72 207.76 46 209 47.48C209.12 47.64 209.32 47.4 209.2 47.28C208.08 45.92 208.6 43.68 209.12 42.16C209.2 41.96 208.92 41.88 208.84 42.08Z" fill="#202124"/>
<path d="M209.84 51.6799C210.08 52.2799 210.36 52.8799 210.76 53.4399C210.88 53.5999 211.12 53.4399 211 53.2799C210.64 52.7599 210.36 52.1999 210.12 51.5999C210.04 51.3999 209.76 51.4799 209.84 51.6799Z" fill="#202124"/>
<path d="M204.4 41.3199C201.96 39.8399 201.24 36.1999 203.92 34.4399C206.4 32.7999 208.12 34.8399 210.16 35.9199C211.72 36.7599 213.52 36.9199 214.84 38.1599C216.32 39.5199 216.96 41.4799 216.8 43.4399C216.8 43.6399 217.08 43.6399 217.12 43.4399C217.32 41.1999 216.44 38.9599 214.64 37.5599C213.36 36.5599 211.76 36.3599 210.32 35.6399C209.08 34.9999 208.24 33.8799 206.84 33.5999C201.88 32.5999 200.32 39.1999 204.24 41.5599C204.44 41.6799 204.6 41.4399 204.4 41.3199Z" fill="#202124"/>
<path d="M204.56 41.5599C208.08 38.1999 215.12 38.6399 216.84 43.5998C216.92 43.7998 217.2 43.7199 217.12 43.5199C215.32 38.3199 208.04 37.8399 204.32 41.3599C204.24 41.4799 204.44 41.6799 204.56 41.5599Z" fill="#202124"/>
<path d="M211.92 43.7999C212.185 43.7999 212.4 43.4238 212.4 42.9599C212.4 42.496 212.185 42.1199 211.92 42.1199C211.655 42.1199 211.44 42.496 211.44 42.9599C211.44 43.4238 211.655 43.7999 211.92 43.7999Z" fill="#202124"/>
<path d="M207.8 38.16C208.56 38.16 208.56 36.96 207.8 36.96C207 36.96 207 38.16 207.8 38.16Z" fill="#202124"/>
<path d="M209.04 49.0399C210.28 49.1999 211.48 48.7999 212.36 47.9199C212.48 47.7999 212.28 47.5599 212.16 47.7199C211.32 48.5199 210.2 48.8799 209.04 48.7599C208.84 48.7199 208.84 48.9999 209.04 49.0399Z" fill="#202124"/>
<path d="M206.8 43.7999C207.065 43.7999 207.28 43.4238 207.28 42.9599C207.28 42.496 207.065 42.1199 206.8 42.1199C206.535 42.1199 206.32 42.496 206.32 42.9599C206.32 43.4238 206.535 43.7999 206.8 43.7999Z" fill="#202124"/>
<path d="M185.56 112.52C189.404 112.52 192.52 109.404 192.52 105.56C192.52 101.716 189.404 98.6 185.56 98.6C181.716 98.6 178.6 101.716 178.6 105.56C178.6 109.404 181.716 112.52 185.56 112.52Z" fill="white"/>
<path d="M237.36 112.52C241.204 112.52 244.32 109.404 244.32 105.56C244.32 101.716 241.204 98.6 237.36 98.6C233.516 98.6 230.4 101.716 230.4 105.56C230.4 109.404 233.516 112.52 237.36 112.52Z" fill="#A083EA"/>
<path d="M211.44 113.24C215.284 113.24 218.4 110.124 218.4 106.28C218.4 102.436 215.284 99.3199 211.44 99.3199C207.596 99.3199 204.48 102.436 204.48 106.28C204.48 110.124 207.596 113.24 211.44 113.24Z" fill="white"/>
<path d="M226.64 100.76C227.4 100.76 227.4 99.5599 226.64 99.5599C225.88 99.5599 225.88 100.76 226.64 100.76Z" fill="white"/>
<path d="M238.28 101.92H238.2H237.2H235.72C235.28 101.92 234.92 102.28 234.92 102.72V103.04V104.2H236.4V103.84H237.2V107.76H236.52V107.32H235.04V107.96V108.76V109.48C235.04 109.6 235.12 109.68 235.24 109.68H237.8C238.08 109.68 238.32 109.6 238.56 109.44C239.16 109.16 239.6 108.52 239.6 107.8V103.24C239.6 102.52 239 101.92 238.28 101.92Z" fill="white"/>
<path d="M214.16 105.56H208.48C208.08 105.56 207.76 105.24 207.76 104.84C207.76 104.44 208.08 104.12 208.48 104.12H214.16C214.56 104.12 214.88 104.44 214.88 104.84C214.88 105.24 214.56 105.56 214.16 105.56Z" fill="#202124"/>
<path d="M214.2 108.88H208.48C208.08 108.88 207.76 108.56 207.76 108.16C207.76 107.76 208.08 107.44 208.48 107.44H214.2C214.6 107.44 214.92 107.76 214.92 108.16C214.92 108.56 214.6 108.88 214.2 108.88Z" fill="#202124"/>
<path d="M185.4 109.36C187.432 109.36 189.08 107.712 189.08 105.68C189.08 103.648 187.432 102 185.4 102C183.368 102 181.72 103.648 181.72 105.68C181.72 107.712 183.368 109.36 185.4 109.36Z" fill="#4C5BE7" stroke="#4C5BE7" stroke-miterlimit="10"/>
<path d="M149.84 13.96H47.4V116.4H149.84V13.96Z" fill="#E8E8E8"/>
<path d="M83.72 40.52H52.44V64.6H83.72V40.52Z" fill="white"/>
<path d="M57.16 48.52C58.7948 48.52 60.12 47.1947 60.12 45.56C60.12 43.9252 58.7948 42.6 57.16 42.6C55.5252 42.6 54.2 43.9252 54.2 45.56C54.2 47.1947 55.5252 48.52 57.16 48.52Z" fill="#A083EA"/>
<path d="M61.48 44.6401C62.24 44.6401 62.24 43.4401 61.48 43.4401C60.72 43.4401 60.72 44.6401 61.48 44.6401Z" fill="#202124"/>
<path d="M63.16 44.08C68 44.08 72.88 44.08 77.72 44.08C77.92 44.08 77.92 43.76 77.72 43.76C72.88 43.76 68 43.76 63.16 43.76C63 43.8 62.96 44.08 63.16 44.08Z" fill="#202124"/>
<path d="M61.56 45.68C63.12 45.68 64.64 45.68 66.2 45.68C66.4 45.68 66.4 45.36 66.2 45.36C64.64 45.36 63.12 45.36 61.56 45.36C61.36 45.4 61.36 45.68 61.56 45.68Z" fill="#202124"/>
<path d="M61.4 47.48C67.2 47.48 72.96 47.48 78.76 47.48C78.96 47.48 78.96 47.16 78.76 47.16C72.96 47.16 67.2 47.16 61.4 47.16C61.2 47.16 61.2 47.48 61.4 47.48Z" fill="#202124"/>
<path d="M70.08 45.96C72.56 45.96 75.08 45.96 77.56 45.96C77.76 45.96 77.76 45.64 77.56 45.64C75.08 45.64 72.56 45.64 70.08 45.64C69.88 45.64 69.88 45.96 70.08 45.96Z" fill="#202124"/>
<path d="M55.44 52.2C62.56 52.2 69.64 52.2 76.76 52.2C76.96 52.2 76.96 51.88 76.76 51.88C69.64 51.88 62.56 51.88 55.44 51.88C55.24 51.88 55.24 52.2 55.44 52.2Z" fill="#202124"/>
<path d="M55.76 53.8C57.08 53.8 58.4 53.8 59.72 53.8C59.92 53.8 59.92 53.48 59.72 53.48C58.4 53.48 57.08 53.48 55.76 53.48C55.56 53.48 55.56 53.8 55.76 53.8Z" fill="#202124"/>
<path d="M56.52 55.48C59.24 55.48 61.96 55.48 64.68 55.48C64.88 55.48 64.88 55.16 64.68 55.16C61.96 55.16 59.24 55.16 56.52 55.16C56.32 55.16 56.32 55.48 56.52 55.48Z" fill="#202124"/>
<path d="M66.12 54.04C68.72 54.04 71.28 54.04 73.88 54.04C74.08 54.04 74.08 53.72 73.88 53.72C71.28 53.72 68.72 53.72 66.12 53.72C65.92 53.72 65.92 54.04 66.12 54.04Z" fill="#202124"/>
<path d="M55.68 57.32C62.88 57.32 70.04 57.32 77.24 57.32C77.44 57.32 77.44 57 77.24 57C70.04 57 62.88 57 55.68 57C55.48 57.04 55.48 57.32 55.68 57.32Z" fill="#202124"/>
<path d="M106.6 21.84H52.44V37.2H106.6V21.84Z" fill="#4C5BE7"/>
<path d="M55.36 26.7599C68.36 26.7599 81.32 26.7599 94.32 26.7599C95.08 26.7599 95.08 25.5599 94.32 25.5599C81.32 25.5599 68.36 25.5599 55.36 25.5599C54.6 25.5599 54.6 26.7599 55.36 26.7599Z" fill="white"/>
<path d="M55.52 29.56C58.6 29.56 61.64 29.56 64.72 29.56C65.12 29.56 65.12 28.96 64.72 28.96C61.64 28.96 58.6 28.96 55.52 28.96C55.12 28.96 55.12 29.56 55.52 29.56Z" fill="white"/>
<path d="M67.44 29.72C75.96 29.72 84.44 29.72 92.96 29.72C93.36 29.72 93.36 29.12 92.96 29.12C84.44 29.12 75.96 29.12 67.44 29.12C67.04 29.12 67.04 29.72 67.44 29.72Z" fill="white"/>
<path d="M55.68 31.72C67.24 31.72 78.76 31.72 90.32 31.72C90.72 31.72 90.72 31.12 90.32 31.12C78.76 31.12 67.24 31.12 55.68 31.12C55.28 31.12 55.28 31.72 55.68 31.72Z" fill="white"/>
<path d="M78.52 59.96C78.6 59.56 78.44 59.52 78.36 58.28C78.24 56.76 78.48 56.28 78.08 55.72C77.92 55.48 77.6 55.16 76.88 54.96C75.8 53.12 75.32 51.52 75.04 50.36C74.84 49.36 74.64 47.96 73.68 47.44C73.56 47.4 73.2 47.2 72.88 47.32C72.36 47.56 72.4 48.6 72.4 49.04C72.4 49.52 72.52 50.4 73.12 51.44C72.64 51.56 71.64 51.84 70.84 52.76C70.52 53.12 69.72 54 69.96 55C70.08 55.56 70.52 55.96 71.12 56.52C71.48 56.88 71.84 57.12 72.08 57.24C72.2 57.48 72.44 57.8 72.64 58.28C73.28 59.52 73.32 60.04 73.76 60.72C74 61.08 74.44 61.56 75.2 62C77.76 61.36 78.36 60.52 78.52 59.96Z" fill="#F7CD5B"/>
<path d="M78.68 59.8399C78.28 59.8399 77.64 59.8799 76.96 60.1999C75.52 60.9199 75.08 62.3999 75 62.6799C75.68 65.7999 76.24 68.3199 76.56 69.9199C77.84 75.9599 79.64 81.9199 81.04 87.9599C81.04 87.9599 81.32 89.1599 82.12 90.8799C83.16 93.0399 83.88 93.4399 84.16 93.5599C85.04 93.9599 85.92 93.7599 86.32 93.6799C87.28 93.4799 87.92 92.9999 88.32 92.6799C90.72 90.8399 91.88 89.9199 92.32 89.5199C94.44 87.4799 95.88 85.6399 96.48 84.8799C99.08 81.5599 100.68 79.4799 101.92 76.3599C102.8 74.1599 103.76 71.7199 103.48 68.5599C103.04 63.5599 99.72 60.1599 98.32 58.9199C97.8 59.1199 97.04 59.4399 96.16 59.9599C94.68 60.8799 93.76 61.9199 92.52 63.4799C90.96 65.4399 89.92 66.7199 88.32 69.1599C87.48 70.3999 86.4 72.0799 85.2 74.1599C84.24 72.3199 83.28 70.3999 82.36 68.3999C81.08 65.4799 79.84 62.6399 78.68 59.8399Z" fill="#262A4F"/>
<path d="M76.08 57.12C75.4 57.64 74.44 57.04 74.64 56.2C74.68 56 74.4 55.92 74.36 56.12C74.08 57.2 75.32 58.08 76.24 57.4C76.36 57.28 76.24 57.04 76.08 57.12Z" fill="#202124"/>
<path d="M72.84 50.04C72.48 49.24 72.12 48.12 72.96 47.48C73.12 47.36 72.96 47.12 72.8 47.24C71.8 48 72.12 49.24 72.56 50.2C72.64 50.36 72.92 50.2 72.84 50.04Z" fill="#202124"/>
<path d="M71.96 51.6399C71.52 51.8799 71.48 52.4399 71.52 52.8799C71.6 53.5999 71.96 54.2399 72.36 54.8399C72.48 54.9999 72.72 54.8399 72.6 54.6799C72.36 54.3199 72.16 53.9999 72 53.5999C71.84 53.1999 71.56 52.1999 72.08 51.8799C72.28 51.7999 72.12 51.5199 71.96 51.6399Z" fill="#202124"/>
<path d="M70.76 52.68C70.32 53.68 70.52 54.84 71.28 55.64C71.4 55.76 71.64 55.56 71.48 55.44C70.8 54.76 70.6 53.76 71 52.88C71.08 52.64 70.84 52.52 70.76 52.68Z" fill="#202124"/>
<path d="M70 54C69.6 54.92 69.92 55.96 70.72 56.52C70.88 56.64 71.04 56.36 70.88 56.28C70.2 55.84 69.92 54.92 70.24 54.2C70.36 54 70.08 53.84 70 54Z" fill="#202124"/>
<path d="M98.4 58.9599C98.16 59.9999 97.92 61.2799 97.68 62.7999C97.6 63.2399 97.48 64.1999 97.36 65.3599C97.12 67.5599 97.08 69.3599 97.04 70.8399C96.92 75.9999 96.84 79.8799 97.04 84.3199C97.6 97.7599 100.56 113.64 101.04 116.24C112.92 116.24 124.84 116.24 136.72 116.24C137.52 110.36 138.04 105.36 138.36 101.52C138.96 94.6399 139.56 87.3599 139.12 77.8799C139 75.2399 138.84 72.9999 138.68 71.4799C137.68 70.6799 136.28 69.6399 134.52 68.4799C132.36 67.0399 129.12 64.8799 124.6 62.9199C122.44 61.9999 118.52 60.4799 113.4 59.5599C107.56 58.4799 102.44 58.5199 98.4 58.9599Z" fill="#262A4F"/>
<path d="M97.04 68.08C95.88 84.2 97.92 100.28 100.84 116.12C100.88 116.32 101.16 116.24 101.12 116.04C98.2 100.24 96.16 84.16 97.32 68.08C97.36 67.92 97.04 67.92 97.04 68.08Z" fill="white"/>
<path d="M138.72 74.7199C139.8 88.5199 138.24 102.32 136.48 116.04C136.44 116.24 136.76 116.24 136.8 116.04C138.56 102.36 140.12 88.5599 139.04 74.7199C139 74.5599 138.72 74.5599 138.72 74.7199Z" fill="#202124"/>
<path d="M136.8 69.9199C135.96 70.5599 135.12 71.2799 134.28 72.1599C130.16 76.3999 128.52 81.3199 127.8 84.5599C128.56 86.3599 129.32 88.1599 130.08 89.9599C133.96 99.0399 137.96 107.76 142.04 116.24C144.6 116.24 147.16 116.24 149.68 116.24C149.68 109.36 149.68 102.52 149.68 95.6399C148.2 91.7599 146.88 88.5599 145.88 86.2399C144.32 82.6399 143.44 80.5999 142 77.9999C140.08 74.4399 138.16 71.7199 136.8 69.9199Z" fill="#262A4F"/>
<path d="M127.64 84.5999C131.96 94.9599 136.56 105.16 141.52 115.24C141.6 115.4 141.88 115.28 141.76 115.08C136.8 105.04 132.2 94.8399 127.92 84.5199C127.84 84.3199 127.56 84.3999 127.64 84.5999Z" fill="white"/>
<path d="M110.08 53.0399C109.4 53.7599 109.08 54.5599 108.96 54.9599C108.8 55.3999 108.16 57.2799 108.92 59.3599C109.04 59.6799 109.36 60.4799 110.04 61.2799C111.12 62.5199 112.36 62.9999 112.64 63.0799C114 63.5599 115.2 63.3999 115.76 63.3199C115.84 63.5199 115.96 63.7599 116.04 63.9599C115.96 63.9599 115.48 63.9999 115.2 64.3999C114.88 64.8399 115.08 65.3599 115.16 65.5199C115.4 66.1999 116.08 66.4799 116.2 66.5199C117.04 66.8799 117.88 66.4799 118.28 66.3199C119.96 65.5599 120.64 63.7999 120.8 63.2799C120.64 62.9199 120.48 62.5599 120.28 62.1599C120.04 61.6399 119.76 61.1599 119.48 60.7199C119.64 60.1999 119.88 59.4399 120.16 58.4799C120.76 56.4399 120.8 56.1999 120.8 55.9599C120.8 54.0399 118.6 52.5999 118.32 52.4399C115.8 50.8399 112 50.9999 110.08 53.0399Z" fill="#F7CD5B"/>
<path d="M109.56 53.5199C109.72 53.3599 110 53.1599 110.32 52.9199C110.64 52.7199 111.52 52.2799 113.32 52.3199C114.48 52.3599 116.48 52.3999 118.28 53.7599C118.76 54.1199 119.36 54.5999 119.8 55.4399C120.52 56.8799 120.16 58.3199 120.04 58.7999C120.24 58.4399 120.44 58.0399 120.64 57.6799C120.8 57.9999 121.2 58.7199 122 59.2399C122.12 59.3199 122.64 59.6399 123.56 59.8399C124.12 59.9599 125 60.0799 126.48 59.8399C127.64 59.6399 129.24 59.3599 130.96 58.1599C131.52 57.7599 132.72 56.9199 133.64 55.3199C134.68 53.5199 134.72 51.7999 134.76 50.9999C134.8 48.3999 133.8 46.5599 133.52 45.9999C133.04 45.1599 131.84 42.9999 129.28 42.0799C128.48 41.7999 126.76 41.1599 125.08 41.7999C124.56 41.9999 123.96 42.3199 122.96 42.4399C122.4 42.4799 121.76 42.5599 121.2 42.2399C120.44 41.7999 120.52 41.1199 119.92 40.7199C118.96 40.0799 117.48 40.8399 117.16 40.9999C115.96 41.6399 115.48 42.7599 115.2 43.3199C114.44 45.0399 114.72 46.6799 114.88 47.3999C114.28 47.2799 113.36 47.1999 112.32 47.3999C111.68 47.5199 110.32 47.7999 109.2 48.9599C108.68 49.4799 108.04 50.1199 108.04 51.1199C108.08 52.5999 109.44 53.4399 109.56 53.5199Z" fill="#4C5BE7"/>
<path d="M115.6 63.3199C115.8 63.7999 116 64.2399 116.28 64.6799C116.4 64.8399 116.64 64.6799 116.52 64.5199C116.28 64.1199 116.04 63.6799 115.88 63.2399C115.84 63.0799 115.56 63.1599 115.6 63.3199Z" fill="#202124"/>
<path d="M112.08 53.9199C111.44 54.7599 109.52 58.2399 111.6 58.5199C111.8 58.5599 111.8 58.2399 111.6 58.1999C110.6 58.0799 111.16 56.3599 111.36 55.8399C111.6 55.1999 111.92 54.6399 112.32 54.1199C112.4 53.9999 112.2 53.7999 112.08 53.9199Z" fill="#202124"/>
<path d="M111.64 59.9199C112.6 60.1199 113.6 59.7599 114.2 58.9999C114.32 58.8399 114.12 58.6399 114 58.7999C113.44 59.4799 112.6 59.7999 111.72 59.6399C111.52 59.5999 111.44 59.8799 111.64 59.9199Z" fill="#202124"/>
<path d="M113.719 55.8464C113.79 55.5684 113.727 55.3116 113.578 55.2729C113.428 55.2343 113.248 55.4284 113.176 55.7064C113.105 55.9845 113.168 56.2413 113.318 56.28C113.467 56.3186 113.647 56.1245 113.719 55.8464Z" fill="#202124"/>
<path d="M110.716 55.603C110.787 55.325 110.724 55.0682 110.575 55.0295C110.425 54.9909 110.245 55.185 110.173 55.463C110.102 55.7411 110.165 55.9979 110.315 56.0366C110.464 56.0752 110.644 55.8811 110.716 55.603Z" fill="#202124"/>
<path d="M118.44 47.92C119.08 48.2 119.96 48.6399 120.88 49.4399C122.32 50.6799 123 52.12 123.32 52.92C123.88 51.4 123.48 49.6799 122.28 48.6399C121.2 47.7199 119.76 47.48 118.44 47.92Z" fill="#A083EA"/>
<path d="M73.28 112.48C77.1239 112.48 80.24 109.364 80.24 105.52C80.24 101.676 77.1239 98.5599 73.28 98.5599C69.4361 98.5599 66.32 101.676 66.32 105.52C66.32 109.364 69.4361 112.48 73.28 112.48Z" fill="white"/>
<path d="M125.08 112.48C128.924 112.48 132.04 109.364 132.04 105.52C132.04 101.676 128.924 98.5599 125.08 98.5599C121.236 98.5599 118.12 101.676 118.12 105.52C118.12 109.364 121.236 112.48 125.08 112.48Z" fill="#A083EA"/>
<path d="M99.16 113.2C103.004 113.2 106.12 110.084 106.12 106.24C106.12 102.396 103.004 99.2799 99.16 99.2799C95.3161 99.2799 92.2 102.396 92.2 106.24C92.2 110.084 95.3161 113.2 99.16 113.2Z" fill="white"/>
<path d="M114.4 100.68C115.16 100.68 115.16 99.48 114.4 99.48C113.6 99.48 113.6 100.68 114.4 100.68Z" fill="white"/>
<path d="M126 101.88H125.92H124.92H123.44C123 101.88 122.64 102.24 122.64 102.68V103V104.16H124.12V103.8H124.92V107.72H124.24V107.28H122.8V107.92V108.72V109.44C122.8 109.56 122.88 109.64 123 109.64H125.56C125.84 109.64 126.08 109.56 126.32 109.4C126.92 109.12 127.36 108.48 127.36 107.76V103.2C127.32 102.48 126.72 101.88 126 101.88Z" fill="white"/>
<path d="M101.88 105.52H96.2C95.8 105.52 95.48 105.2 95.48 104.8C95.48 104.4 95.8 104.08 96.2 104.08H101.88C102.28 104.08 102.6 104.4 102.6 104.8C102.6 105.16 102.28 105.52 101.88 105.52Z" fill="#202124"/>
<path d="M101.92 108.84H96.2C95.8 108.84 95.48 108.52 95.48 108.12C95.48 107.72 95.8 107.4 96.2 107.4H101.92C102.32 107.4 102.64 107.72 102.64 108.12C102.64 108.48 102.32 108.84 101.92 108.84Z" fill="#202124"/>
<path d="M73.12 109.32C75.1524 109.32 76.8 107.672 76.8 105.64C76.8 103.608 75.1524 101.96 73.12 101.96C71.0876 101.96 69.44 103.608 69.44 105.64C69.44 107.672 71.0876 109.32 73.12 109.32Z" fill="#4C5BE7" stroke="#4C5BE7" stroke-miterlimit="10"/>
<path d="M2.72031 288L7.86031 273.1H11.3803L16.5203 288H13.5603L12.5003 284.8H6.74031L5.66031 288H2.72031ZM7.52031 282.4H11.7203L9.24031 274.98H10.0003L7.52031 282.4ZM18.1186 288V272.86H20.7386V288H18.1186ZM23.3176 288V277.12H25.7776V279.54L25.5776 279.18C25.831 278.367 26.2243 277.8 26.7576 277.48C27.3043 277.16 27.9576 277 28.7176 277H29.3576V279.32H28.4176C27.671 279.32 27.071 279.553 26.6176 280.02C26.1643 280.473 25.9376 281.113 25.9376 281.94V288H23.3176ZM36.1181 288.24C34.9981 288.24 34.0181 287.987 33.1781 287.48C32.3381 286.973 31.6848 286.287 31.2181 285.42C30.7515 284.553 30.5181 283.593 30.5181 282.54C30.5181 281.447 30.7515 280.48 31.2181 279.64C31.6981 278.787 32.3448 278.113 33.1581 277.62C33.9848 277.127 34.9048 276.88 35.9181 276.88C36.7715 276.88 37.5181 277.02 38.1581 277.3C38.8115 277.58 39.3648 277.967 39.8181 278.46C40.2715 278.953 40.6181 279.52 40.8581 280.16C41.0981 280.787 41.2181 281.467 41.2181 282.2C41.2181 282.387 41.2048 282.58 41.1781 282.78C41.1648 282.98 41.1315 283.153 41.0781 283.3H32.6781V281.3H39.5981L38.3581 282.24C38.4781 281.627 38.4448 281.08 38.2581 280.6C38.0848 280.12 37.7915 279.74 37.3781 279.46C36.9781 279.18 36.4915 279.04 35.9181 279.04C35.3715 279.04 34.8848 279.18 34.4581 279.46C34.0315 279.727 33.7048 280.127 33.4781 280.66C33.2648 281.18 33.1848 281.813 33.2381 282.56C33.1848 283.227 33.2715 283.82 33.4981 284.34C33.7381 284.847 34.0848 285.24 34.5381 285.52C35.0048 285.8 35.5381 285.94 36.1381 285.94C36.7381 285.94 37.2448 285.813 37.6581 285.56C38.0848 285.307 38.4181 284.967 38.6581 284.54L40.7781 285.58C40.5648 286.1 40.2315 286.56 39.7781 286.96C39.3248 287.36 38.7848 287.673 38.1581 287.9C37.5448 288.127 36.8648 288.24 36.1181 288.24ZM46.6251 288.24C45.8651 288.24 45.2051 288.113 44.6451 287.86C44.0851 287.607 43.6518 287.247 43.3451 286.78C43.0385 286.3 42.8851 285.747 42.8851 285.12C42.8851 284.52 43.0185 283.987 43.2851 283.52C43.5518 283.04 43.9651 282.64 44.5251 282.32C45.0851 282 45.7918 281.773 46.6451 281.64L50.2051 281.06V283.06L47.1451 283.58C46.6251 283.673 46.2385 283.84 45.9851 284.08C45.7318 284.32 45.6051 284.633 45.6051 285.02C45.6051 285.393 45.7451 285.693 46.0251 285.92C46.3185 286.133 46.6785 286.24 47.1051 286.24C47.6518 286.24 48.1318 286.127 48.5451 285.9C48.9718 285.66 49.2985 285.333 49.5251 284.92C49.7651 284.507 49.8851 284.053 49.8851 283.56V280.76C49.8851 280.293 49.6985 279.907 49.3251 279.6C48.9651 279.28 48.4851 279.12 47.8851 279.12C47.3251 279.12 46.8251 279.273 46.3851 279.58C45.9585 279.873 45.6451 280.267 45.4451 280.76L43.3051 279.72C43.5185 279.147 43.8518 278.653 44.3051 278.24C44.7718 277.813 45.3185 277.48 45.9451 277.24C46.5718 277 47.2518 276.88 47.9851 276.88C48.8785 276.88 49.6651 277.047 50.3451 277.38C51.0251 277.7 51.5518 278.153 51.9251 278.74C52.3118 279.313 52.5051 279.987 52.5051 280.76V288H50.0251V286.14L50.5851 286.1C50.3051 286.567 49.9718 286.96 49.5851 287.28C49.1985 287.587 48.7585 287.827 48.2651 288C47.7718 288.16 47.2251 288.24 46.6251 288.24ZM60.1467 288.24C59.0934 288.24 58.1534 287.993 57.3267 287.5C56.5 286.993 55.8467 286.307 55.3667 285.44C54.8867 284.573 54.6467 283.613 54.6467 282.56C54.6467 281.493 54.8867 280.533 55.3667 279.68C55.8467 278.827 56.5 278.147 57.3267 277.64C58.1667 277.133 59.1 276.88 60.1267 276.88C60.9534 276.88 61.6867 277.047 62.3267 277.38C62.98 277.7 63.4934 278.153 63.8667 278.74L63.4667 279.28V272.86H66.0867V288H63.6067V285.9L63.8867 286.42C63.5134 287.007 62.9934 287.46 62.3267 287.78C61.66 288.087 60.9334 288.24 60.1467 288.24ZM60.4267 285.84C61.0267 285.84 61.5534 285.7 62.0067 285.42C62.46 285.14 62.8134 284.753 63.0667 284.26C63.3334 283.767 63.4667 283.2 63.4667 282.56C63.4667 281.933 63.3334 281.373 63.0667 280.88C62.8134 280.373 62.46 279.98 62.0067 279.7C61.5534 279.42 61.0267 279.28 60.4267 279.28C59.84 279.28 59.3134 279.427 58.8467 279.72C58.38 280 58.0134 280.387 57.7467 280.88C57.4934 281.36 57.3667 281.92 57.3667 282.56C57.3667 283.2 57.4934 283.767 57.7467 284.26C58.0134 284.753 58.38 285.14 58.8467 285.42C59.3134 285.7 59.84 285.84 60.4267 285.84ZM70.0042 292.42C69.7109 292.42 69.4242 292.393 69.1442 292.34C68.8642 292.3 68.6109 292.227 68.3842 292.12V289.92C68.5575 289.96 68.7642 290 69.0042 290.04C69.2575 290.08 69.4909 290.1 69.7042 290.1C70.3042 290.1 70.7375 289.96 71.0042 289.68C71.2842 289.4 71.5309 289.033 71.7442 288.58L72.4642 286.9L72.4242 289.1L67.6842 277.12H70.5042L73.8242 285.96H72.8242L76.1242 277.12H78.9642L74.2242 289.1C73.9442 289.807 73.6042 290.407 73.2042 290.9C72.8042 291.393 72.3375 291.767 71.8042 292.02C71.2842 292.287 70.6842 292.42 70.0042 292.42ZM88.4176 288.24C87.2576 288.24 86.2443 287.967 85.3776 287.42C84.5243 286.86 83.9376 286.107 83.6176 285.16L85.5776 284.22C85.8576 284.833 86.2443 285.313 86.7376 285.66C87.2443 286.007 87.8043 286.18 88.4176 286.18C88.8976 286.18 89.2776 286.073 89.5576 285.86C89.8376 285.647 89.9776 285.367 89.9776 285.02C89.9776 284.807 89.9176 284.633 89.7976 284.5C89.691 284.353 89.5376 284.233 89.3376 284.14C89.151 284.033 88.9443 283.947 88.7176 283.88L86.9376 283.38C86.0176 283.113 85.3176 282.707 84.8376 282.16C84.371 281.613 84.1376 280.967 84.1376 280.22C84.1376 279.553 84.3043 278.973 84.6376 278.48C84.9843 277.973 85.4576 277.58 86.0576 277.3C86.671 277.02 87.371 276.88 88.1576 276.88C89.1843 276.88 90.091 277.127 90.8776 277.62C91.6643 278.113 92.2243 278.807 92.5576 279.7L90.5576 280.64C90.371 280.147 90.0576 279.753 89.6176 279.46C89.1776 279.167 88.6843 279.02 88.1376 279.02C87.6976 279.02 87.351 279.12 87.0976 279.32C86.8443 279.52 86.7176 279.78 86.7176 280.1C86.7176 280.3 86.771 280.473 86.8776 280.62C86.9843 280.767 87.131 280.887 87.3176 280.98C87.5176 281.073 87.7443 281.16 87.9976 281.24L89.7376 281.76C90.631 282.027 91.3176 282.427 91.7976 282.96C92.291 283.493 92.5376 284.147 92.5376 284.92C92.5376 285.573 92.3643 286.153 92.0176 286.66C91.671 287.153 91.191 287.54 90.5776 287.82C89.9643 288.1 89.2443 288.24 88.4176 288.24ZM99.8711 288.24C98.7511 288.24 97.7711 287.987 96.9311 287.48C96.0911 286.973 95.4378 286.287 94.9711 285.42C94.5044 284.553 94.2711 283.593 94.2711 282.54C94.2711 281.447 94.5044 280.48 94.9711 279.64C95.4511 278.787 96.0978 278.113 96.9111 277.62C97.7378 277.127 98.6578 276.88 99.6711 276.88C100.524 276.88 101.271 277.02 101.911 277.3C102.564 277.58 103.118 277.967 103.571 278.46C104.024 278.953 104.371 279.52 104.611 280.16C104.851 280.787 104.971 281.467 104.971 282.2C104.971 282.387 104.958 282.58 104.931 282.78C104.918 282.98 104.884 283.153 104.831 283.3H96.4311V281.3H103.351L102.111 282.24C102.231 281.627 102.198 281.08 102.011 280.6C101.838 280.12 101.544 279.74 101.131 279.46C100.731 279.18 100.244 279.04 99.6711 279.04C99.1244 279.04 98.6378 279.18 98.2111 279.46C97.7844 279.727 97.4578 280.127 97.2311 280.66C97.0178 281.18 96.9378 281.813 96.9911 282.56C96.9378 283.227 97.0244 283.82 97.2511 284.34C97.4911 284.847 97.8378 285.24 98.2911 285.52C98.7578 285.8 99.2911 285.94 99.8911 285.94C100.491 285.94 100.998 285.813 101.411 285.56C101.838 285.307 102.171 284.967 102.411 284.54L104.531 285.58C104.318 286.1 103.984 286.56 103.531 286.96C103.078 287.36 102.538 287.673 101.911 287.9C101.298 288.127 100.618 288.24 99.8711 288.24ZM112.077 288.12C110.851 288.12 109.897 287.787 109.217 287.12C108.551 286.44 108.217 285.487 108.217 284.26V279.46H106.337V277.12H106.537C107.071 277.12 107.484 276.98 107.777 276.7C108.071 276.42 108.217 276.013 108.217 275.48V274.64H110.837V277.12H113.337V279.46H110.837V284.12C110.837 284.48 110.897 284.787 111.017 285.04C111.151 285.293 111.351 285.487 111.617 285.62C111.897 285.753 112.251 285.82 112.677 285.82C112.771 285.82 112.877 285.813 112.997 285.8C113.131 285.787 113.257 285.773 113.377 285.76V288C113.191 288.027 112.977 288.053 112.737 288.08C112.497 288.107 112.277 288.12 112.077 288.12ZM119.419 288.24C118.579 288.24 117.846 288.053 117.219 287.68C116.606 287.307 116.132 286.787 115.799 286.12C115.479 285.453 115.319 284.673 115.319 283.78V277.12H117.939V283.56C117.939 284.013 118.026 284.413 118.199 284.76C118.386 285.093 118.646 285.36 118.979 285.56C119.326 285.747 119.712 285.84 120.139 285.84C120.566 285.84 120.946 285.747 121.279 285.56C121.612 285.36 121.872 285.087 122.059 284.74C122.246 284.393 122.339 283.98 122.339 283.5V277.12H124.959V288H122.479V285.86L122.699 286.24C122.446 286.907 122.026 287.407 121.439 287.74C120.866 288.073 120.192 288.24 119.419 288.24ZM127.554 292V277.12H130.014V279.28L129.774 278.74C130.148 278.153 130.654 277.7 131.294 277.38C131.934 277.047 132.674 276.88 133.514 276.88C134.541 276.88 135.468 277.133 136.294 277.64C137.121 278.147 137.774 278.827 138.254 279.68C138.748 280.533 138.994 281.493 138.994 282.56C138.994 283.613 138.754 284.573 138.274 285.44C137.794 286.307 137.141 286.993 136.314 287.5C135.488 287.993 134.548 288.24 133.494 288.24C132.708 288.24 131.981 288.087 131.314 287.78C130.661 287.46 130.141 287.007 129.754 286.42L130.174 285.9V292H127.554ZM133.194 285.84C133.794 285.84 134.328 285.7 134.794 285.42C135.261 285.14 135.621 284.753 135.874 284.26C136.141 283.767 136.274 283.2 136.274 282.56C136.274 281.92 136.141 281.36 135.874 280.88C135.621 280.387 135.261 280 134.794 279.72C134.328 279.427 133.794 279.28 133.194 279.28C132.621 279.28 132.101 279.42 131.634 279.7C131.181 279.98 130.821 280.373 130.554 280.88C130.301 281.373 130.174 281.933 130.174 282.56C130.174 283.2 130.301 283.767 130.554 284.26C130.821 284.753 131.181 285.14 131.634 285.42C132.101 285.7 132.621 285.84 133.194 285.84ZM146.127 288V279.46H144.207V277.12H146.127V276.76C146.127 275.933 146.293 275.233 146.627 274.66C146.973 274.073 147.453 273.627 148.067 273.32C148.68 273.013 149.407 272.86 150.247 272.86C150.407 272.86 150.58 272.873 150.767 272.9C150.967 272.913 151.133 272.933 151.267 272.96V275.22C151.133 275.193 151.007 275.18 150.887 275.18C150.78 275.167 150.68 275.16 150.587 275.16C150 275.16 149.547 275.293 149.227 275.56C148.907 275.813 148.747 276.213 148.747 276.76V277.12H151.167V279.46H148.747V288H146.127ZM158.179 288.24C157.112 288.24 156.139 287.993 155.259 287.5C154.392 287.007 153.699 286.333 153.179 285.48C152.672 284.627 152.419 283.653 152.419 282.56C152.419 281.467 152.672 280.493 153.179 279.64C153.699 278.787 154.392 278.113 155.259 277.62C156.125 277.127 157.099 276.88 158.179 276.88C159.245 276.88 160.212 277.127 161.079 277.62C161.945 278.113 162.632 278.787 163.139 279.64C163.659 280.48 163.919 281.453 163.919 282.56C163.919 283.653 163.659 284.627 163.139 285.48C162.619 286.333 161.925 287.007 161.059 287.5C160.192 287.993 159.232 288.24 158.179 288.24ZM158.179 285.84C158.765 285.84 159.279 285.7 159.719 285.42C160.172 285.14 160.525 284.753 160.779 284.26C161.045 283.753 161.179 283.187 161.179 282.56C161.179 281.92 161.045 281.36 160.779 280.88C160.525 280.387 160.172 280 159.719 279.72C159.279 279.427 158.765 279.28 158.179 279.28C157.579 279.28 157.052 279.427 156.599 279.72C156.145 280 155.785 280.387 155.519 280.88C155.265 281.36 155.139 281.92 155.139 282.56C155.139 283.187 155.265 283.753 155.519 284.26C155.785 284.753 156.145 285.14 156.599 285.42C157.052 285.7 157.579 285.84 158.179 285.84ZM166.065 288V277.12H168.525V279.54L168.325 279.18C168.579 278.367 168.972 277.8 169.505 277.48C170.052 277.16 170.705 277 171.465 277H172.105V279.32H171.165C170.419 279.32 169.819 279.553 169.365 280.02C168.912 280.473 168.685 281.113 168.685 281.94V288H166.065ZM177.421 288V277.12H179.881V279.64L179.601 279.22C179.801 278.433 180.201 277.847 180.801 277.46C181.401 277.073 182.107 276.88 182.921 276.88C183.814 276.88 184.601 277.113 185.281 277.58C185.961 278.047 186.401 278.66 186.601 279.42L185.861 279.48C186.194 278.613 186.694 277.967 187.361 277.54C188.027 277.1 188.794 276.88 189.661 276.88C190.434 276.88 191.121 277.053 191.721 277.4C192.334 277.747 192.814 278.233 193.161 278.86C193.507 279.473 193.681 280.187 193.681 281V288H191.061V281.62C191.061 281.14 190.974 280.727 190.801 280.38C190.627 280.033 190.387 279.767 190.081 279.58C189.774 279.38 189.401 279.28 188.961 279.28C188.547 279.28 188.181 279.38 187.861 279.58C187.541 279.767 187.294 280.033 187.121 280.38C186.947 280.727 186.861 281.14 186.861 281.62V288H184.241V281.62C184.241 281.14 184.154 280.727 183.981 280.38C183.807 280.033 183.561 279.767 183.241 279.58C182.934 279.38 182.567 279.28 182.141 279.28C181.727 279.28 181.361 279.38 181.041 279.58C180.721 279.767 180.474 280.033 180.301 280.38C180.127 280.727 180.041 281.14 180.041 281.62V288H177.421ZM201.217 288.24C200.097 288.24 199.117 287.987 198.277 287.48C197.437 286.973 196.784 286.287 196.317 285.42C195.851 284.553 195.617 283.593 195.617 282.54C195.617 281.447 195.851 280.48 196.317 279.64C196.797 278.787 197.444 278.113 198.257 277.62C199.084 277.127 200.004 276.88 201.017 276.88C201.871 276.88 202.617 277.02 203.257 277.3C203.911 277.58 204.464 277.967 204.917 278.46C205.371 278.953 205.717 279.52 205.957 280.16C206.197 280.787 206.317 281.467 206.317 282.2C206.317 282.387 206.304 282.58 206.277 282.78C206.264 282.98 206.231 283.153 206.177 283.3H197.777V281.3H204.697L203.457 282.24C203.577 281.627 203.544 281.08 203.357 280.6C203.184 280.12 202.891 279.74 202.477 279.46C202.077 279.18 201.591 279.04 201.017 279.04C200.471 279.04 199.984 279.18 199.557 279.46C199.131 279.727 198.804 280.127 198.577 280.66C198.364 281.18 198.284 281.813 198.337 282.56C198.284 283.227 198.371 283.82 198.597 284.34C198.837 284.847 199.184 285.24 199.637 285.52C200.104 285.8 200.637 285.94 201.237 285.94C201.837 285.94 202.344 285.813 202.757 285.56C203.184 285.307 203.517 284.967 203.757 284.54L205.877 285.58C205.664 286.1 205.331 286.56 204.877 286.96C204.424 287.36 203.884 287.673 203.257 287.9C202.644 288.127 201.964 288.24 201.217 288.24ZM213.623 288.24C212.503 288.24 211.523 287.987 210.683 287.48C209.843 286.973 209.19 286.287 208.723 285.42C208.257 284.553 208.023 283.593 208.023 282.54C208.023 281.447 208.257 280.48 208.723 279.64C209.203 278.787 209.85 278.113 210.663 277.62C211.49 277.127 212.41 276.88 213.423 276.88C214.277 276.88 215.023 277.02 215.663 277.3C216.317 277.58 216.87 277.967 217.323 278.46C217.777 278.953 218.123 279.52 218.363 280.16C218.603 280.787 218.723 281.467 218.723 282.2C218.723 282.387 218.71 282.58 218.683 282.78C218.67 282.98 218.637 283.153 218.583 283.3H210.183V281.3H217.103L215.863 282.24C215.983 281.627 215.95 281.08 215.763 280.6C215.59 280.12 215.297 279.74 214.883 279.46C214.483 279.18 213.997 279.04 213.423 279.04C212.877 279.04 212.39 279.18 211.963 279.46C211.537 279.727 211.21 280.127 210.983 280.66C210.77 281.18 210.69 281.813 210.743 282.56C210.69 283.227 210.777 283.82 211.003 284.34C211.243 284.847 211.59 285.24 212.043 285.52C212.51 285.8 213.043 285.94 213.643 285.94C214.243 285.94 214.75 285.813 215.163 285.56C215.59 285.307 215.923 284.967 216.163 284.54L218.283 285.58C218.07 286.1 217.737 286.56 217.283 286.96C216.83 287.36 216.29 287.673 215.663 287.9C215.05 288.127 214.37 288.24 213.623 288.24ZM225.829 288.12C224.603 288.12 223.649 287.787 222.969 287.12C222.303 286.44 221.969 285.487 221.969 284.26V279.46H220.089V277.12H220.289C220.823 277.12 221.236 276.98 221.529 276.7C221.823 276.42 221.969 276.013 221.969 275.48V274.64H224.589V277.12H227.089V279.46H224.589V284.12C224.589 284.48 224.649 284.787 224.769 285.04C224.903 285.293 225.103 285.487 225.369 285.62C225.649 285.753 226.003 285.82 226.429 285.82C226.523 285.82 226.629 285.813 226.749 285.8C226.883 285.787 227.009 285.773 227.129 285.76V288C226.943 288.027 226.729 288.053 226.489 288.08C226.249 288.107 226.029 288.12 225.829 288.12ZM229.291 288V277.12H231.911V288H229.291ZM229.291 275.9V273.1H231.911V275.9H229.291ZM234.49 288V277.12H236.95V279.26L236.75 278.88C237.003 278.227 237.417 277.733 237.99 277.4C238.577 277.053 239.257 276.88 240.03 276.88C240.83 276.88 241.537 277.053 242.15 277.4C242.777 277.747 243.263 278.233 243.61 278.86C243.957 279.473 244.13 280.187 244.13 281V288H241.51V281.62C241.51 281.14 241.417 280.727 241.23 280.38C241.043 280.033 240.783 279.767 240.45 279.58C240.13 279.38 239.75 279.28 239.31 279.28C238.883 279.28 238.503 279.38 238.17 279.58C237.837 279.767 237.577 280.033 237.39 280.38C237.203 280.727 237.11 281.14 237.11 281.62V288H234.49ZM251.786 292.4C250.972 292.4 250.219 292.267 249.526 292C248.832 291.733 248.232 291.36 247.726 290.88C247.232 290.413 246.872 289.86 246.646 289.22L249.086 288.3C249.246 288.807 249.559 289.213 250.026 289.52C250.506 289.84 251.092 290 251.786 290C252.319 290 252.786 289.9 253.186 289.7C253.599 289.5 253.919 289.207 254.146 288.82C254.372 288.447 254.486 287.993 254.486 287.46V284.98L254.986 285.58C254.612 286.233 254.112 286.727 253.486 287.06C252.859 287.393 252.146 287.56 251.346 287.56C250.332 287.56 249.426 287.327 248.626 286.86C247.826 286.393 247.199 285.753 246.746 284.94C246.292 284.127 246.066 283.213 246.066 282.2C246.066 281.173 246.292 280.26 246.746 279.46C247.199 278.66 247.819 278.033 248.606 277.58C249.392 277.113 250.286 276.88 251.286 276.88C252.099 276.88 252.812 277.053 253.426 277.4C254.052 277.733 254.572 278.22 254.986 278.86L254.626 279.52V277.12H257.106V287.46C257.106 288.407 256.872 289.253 256.406 290C255.952 290.747 255.326 291.333 254.526 291.76C253.739 292.187 252.826 292.4 251.786 292.4ZM251.666 285.14C252.226 285.14 252.712 285.02 253.126 284.78C253.552 284.527 253.886 284.18 254.126 283.74C254.366 283.3 254.486 282.793 254.486 282.22C254.486 281.66 254.359 281.16 254.106 280.72C253.866 280.267 253.532 279.913 253.106 279.66C252.692 279.407 252.212 279.28 251.666 279.28C251.119 279.28 250.626 279.407 250.186 279.66C249.746 279.913 249.399 280.267 249.146 280.72C248.906 281.16 248.786 281.66 248.786 282.22C248.786 282.78 248.906 283.28 249.146 283.72C249.399 284.16 249.739 284.507 250.166 284.76C250.606 285.013 251.106 285.14 251.666 285.14ZM266.167 288L262.427 277.12H265.187L267.927 285.38L266.967 285.36L269.887 277.12H272.207L275.107 285.36L274.147 285.38L276.887 277.12H279.647L275.907 288H273.567L270.607 279.38H271.487L268.487 288H266.167ZM281.243 288V277.12H283.863V288H281.243ZM281.243 275.9V273.1H283.863V275.9H281.243ZM291.403 288.12C290.176 288.12 289.223 287.787 288.543 287.12C287.876 286.44 287.543 285.487 287.543 284.26V279.46H285.663V277.12H285.863C286.396 277.12 286.809 276.98 287.103 276.7C287.396 276.42 287.543 276.013 287.543 275.48V274.64H290.163V277.12H292.663V279.46H290.163V284.12C290.163 284.48 290.223 284.787 290.343 285.04C290.476 285.293 290.676 285.487 290.943 285.62C291.223 285.753 291.576 285.82 292.003 285.82C292.096 285.82 292.203 285.813 292.323 285.8C292.456 285.787 292.583 285.773 292.703 285.76V288C292.516 288.027 292.303 288.053 292.063 288.08C291.823 288.107 291.603 288.12 291.403 288.12ZM294.864 288V272.86H297.484V279.26L297.124 278.88C297.378 278.227 297.791 277.733 298.364 277.4C298.951 277.053 299.631 276.88 300.404 276.88C301.204 276.88 301.911 277.053 302.524 277.4C303.151 277.747 303.638 278.233 303.984 278.86C304.331 279.473 304.504 280.187 304.504 281V288H301.884V281.62C301.884 281.14 301.791 280.727 301.604 280.38C301.418 280.033 301.158 279.767 300.824 279.58C300.504 279.38 300.124 279.28 299.684 279.28C299.258 279.28 298.878 279.38 298.544 279.58C298.211 279.767 297.951 280.033 297.764 280.38C297.578 280.727 297.484 281.14 297.484 281.62V288H294.864ZM68.6587 320V309.12H71.2787V320H68.6587ZM68.6587 307.9V305.1H71.2787V307.9H68.6587ZM73.8577 320V309.12H76.3177V311.64L76.0377 311.22C76.2377 310.433 76.6377 309.847 77.2377 309.46C77.8377 309.073 78.5444 308.88 79.3577 308.88C80.2511 308.88 81.0377 309.113 81.7177 309.58C82.3977 310.047 82.8377 310.66 83.0377 311.42L82.2977 311.48C82.6311 310.613 83.1311 309.967 83.7977 309.54C84.4644 309.1 85.2311 308.88 86.0977 308.88C86.8711 308.88 87.5577 309.053 88.1577 309.4C88.7711 309.747 89.2511 310.233 89.5977 310.86C89.9444 311.473 90.1177 312.187 90.1177 313V320H87.4977V313.62C87.4977 313.14 87.4111 312.727 87.2377 312.38C87.0644 312.033 86.8244 311.767 86.5177 311.58C86.2111 311.38 85.8377 311.28 85.3977 311.28C84.9844 311.28 84.6177 311.38 84.2977 311.58C83.9777 311.767 83.7311 312.033 83.5577 312.38C83.3844 312.727 83.2977 313.14 83.2977 313.62V320H80.6777V313.62C80.6777 313.14 80.5911 312.727 80.4177 312.38C80.2444 312.033 79.9977 311.767 79.6777 311.58C79.3711 311.38 79.0044 311.28 78.5777 311.28C78.1644 311.28 77.7977 311.38 77.4777 311.58C77.1577 311.767 76.9111 312.033 76.7377 312.38C76.5644 312.727 76.4777 313.14 76.4777 313.62V320H73.8577ZM92.4943 324V309.12H94.9543V311.28L94.7143 310.74C95.0876 310.153 95.5943 309.7 96.2343 309.38C96.8743 309.047 97.6143 308.88 98.4543 308.88C99.481 308.88 100.408 309.133 101.234 309.64C102.061 310.147 102.714 310.827 103.194 311.68C103.688 312.533 103.934 313.493 103.934 314.56C103.934 315.613 103.694 316.573 103.214 317.44C102.734 318.307 102.081 318.993 101.254 319.5C100.428 319.993 99.4876 320.24 98.4343 320.24C97.6476 320.24 96.921 320.087 96.2543 319.78C95.601 319.46 95.081 319.007 94.6943 318.42L95.1143 317.9V324H92.4943ZM98.1343 317.84C98.7343 317.84 99.2676 317.7 99.7343 317.42C100.201 317.14 100.561 316.753 100.814 316.26C101.081 315.767 101.214 315.2 101.214 314.56C101.214 313.92 101.081 313.36 100.814 312.88C100.561 312.387 100.201 312 99.7343 311.72C99.2676 311.427 98.7343 311.28 98.1343 311.28C97.561 311.28 97.041 311.42 96.5743 311.7C96.121 311.98 95.761 312.373 95.4943 312.88C95.241 313.373 95.1143 313.933 95.1143 314.56C95.1143 315.2 95.241 315.767 95.4943 316.26C95.761 316.753 96.121 317.14 96.5743 317.42C97.041 317.7 97.561 317.84 98.1343 317.84ZM111.412 320.24C110.345 320.24 109.372 319.993 108.492 319.5C107.625 319.007 106.932 318.333 106.412 317.48C105.905 316.627 105.652 315.653 105.652 314.56C105.652 313.467 105.905 312.493 106.412 311.64C106.932 310.787 107.625 310.113 108.492 309.62C109.358 309.127 110.332 308.88 111.412 308.88C112.478 308.88 113.445 309.127 114.312 309.62C115.178 310.113 115.865 310.787 116.372 311.64C116.892 312.48 117.152 313.453 117.152 314.56C117.152 315.653 116.892 316.627 116.372 317.48C115.852 318.333 115.158 319.007 114.292 319.5C113.425 319.993 112.465 320.24 111.412 320.24ZM111.412 317.84C111.998 317.84 112.512 317.7 112.952 317.42C113.405 317.14 113.758 316.753 114.012 316.26C114.278 315.753 114.412 315.187 114.412 314.56C114.412 313.92 114.278 313.36 114.012 312.88C113.758 312.387 113.405 312 112.952 311.72C112.512 311.427 111.998 311.28 111.412 311.28C110.812 311.28 110.285 311.427 109.832 311.72C109.378 312 109.018 312.387 108.752 312.88C108.498 313.36 108.372 313.92 108.372 314.56C108.372 315.187 108.498 315.753 108.752 316.26C109.018 316.753 109.378 317.14 109.832 317.42C110.285 317.7 110.812 317.84 111.412 317.84ZM119.299 320V309.12H121.759V311.54L121.559 311.18C121.812 310.367 122.205 309.8 122.739 309.48C123.285 309.16 123.939 309 124.699 309H125.339V311.32H124.399C123.652 311.32 123.052 311.553 122.599 312.02C122.145 312.473 121.919 313.113 121.919 313.94V320H119.299ZM132.192 320.12C130.965 320.12 130.012 319.787 129.332 319.12C128.665 318.44 128.332 317.487 128.332 316.26V311.46H126.452V309.12H126.652C127.185 309.12 127.599 308.98 127.892 308.7C128.185 308.42 128.332 308.013 128.332 307.48V306.64H130.952V309.12H133.452V311.46H130.952V316.12C130.952 316.48 131.012 316.787 131.132 317.04C131.265 317.293 131.465 317.487 131.732 317.62C132.012 317.753 132.365 317.82 132.792 317.82C132.885 317.82 132.992 317.813 133.112 317.8C133.245 317.787 133.372 317.773 133.492 317.76V320C133.305 320.027 133.092 320.053 132.852 320.08C132.612 320.107 132.392 320.12 132.192 320.12ZM138.915 320.24C138.155 320.24 137.495 320.113 136.935 319.86C136.375 319.607 135.941 319.247 135.635 318.78C135.328 318.3 135.175 317.747 135.175 317.12C135.175 316.52 135.308 315.987 135.575 315.52C135.841 315.04 136.255 314.64 136.815 314.32C137.375 314 138.081 313.773 138.935 313.64L142.495 313.06V315.06L139.435 315.58C138.915 315.673 138.528 315.84 138.275 316.08C138.021 316.32 137.895 316.633 137.895 317.02C137.895 317.393 138.035 317.693 138.315 317.92C138.608 318.133 138.968 318.24 139.395 318.24C139.941 318.24 140.421 318.127 140.835 317.9C141.261 317.66 141.588 317.333 141.815 316.92C142.055 316.507 142.175 316.053 142.175 315.56V312.76C142.175 312.293 141.988 311.907 141.615 311.6C141.255 311.28 140.775 311.12 140.175 311.12C139.615 311.12 139.115 311.273 138.675 311.58C138.248 311.873 137.935 312.267 137.735 312.76L135.595 311.72C135.808 311.147 136.141 310.653 136.595 310.24C137.061 309.813 137.608 309.48 138.235 309.24C138.861 309 139.541 308.88 140.275 308.88C141.168 308.88 141.955 309.047 142.635 309.38C143.315 309.7 143.841 310.153 144.215 310.74C144.601 311.313 144.795 311.987 144.795 312.76V320H142.315V318.14L142.875 318.1C142.595 318.567 142.261 318.96 141.875 319.28C141.488 319.587 141.048 319.827 140.555 320C140.061 320.16 139.515 320.24 138.915 320.24ZM147.376 320V309.12H149.836V311.26L149.636 310.88C149.89 310.227 150.303 309.733 150.876 309.4C151.463 309.053 152.143 308.88 152.916 308.88C153.716 308.88 154.423 309.053 155.036 309.4C155.663 309.747 156.15 310.233 156.496 310.86C156.843 311.473 157.016 312.187 157.016 313V320H154.396V313.62C154.396 313.14 154.303 312.727 154.116 312.38C153.93 312.033 153.67 311.767 153.336 311.58C153.016 311.38 152.636 311.28 152.196 311.28C151.77 311.28 151.39 311.38 151.056 311.58C150.723 311.767 150.463 312.033 150.276 312.38C150.09 312.727 149.996 313.14 149.996 313.62V320H147.376ZM164.352 320.12C163.125 320.12 162.172 319.787 161.492 319.12C160.825 318.44 160.492 317.487 160.492 316.26V311.46H158.612V309.12H158.812C159.345 309.12 159.758 308.98 160.052 308.7C160.345 308.42 160.492 308.013 160.492 307.48V306.64H163.112V309.12H165.612V311.46H163.112V316.12C163.112 316.48 163.172 316.787 163.292 317.04C163.425 317.293 163.625 317.487 163.892 317.62C164.172 317.753 164.525 317.82 164.952 317.82C165.045 317.82 165.152 317.813 165.272 317.8C165.405 317.787 165.532 317.773 165.652 317.76V320C165.465 320.027 165.252 320.053 165.012 320.08C164.772 320.107 164.552 320.12 164.352 320.12ZM171.528 324V309.12H173.988V311.28L173.748 310.74C174.122 310.153 174.628 309.7 175.268 309.38C175.908 309.047 176.648 308.88 177.488 308.88C178.515 308.88 179.442 309.133 180.268 309.64C181.095 310.147 181.748 310.827 182.228 311.68C182.722 312.533 182.968 313.493 182.968 314.56C182.968 315.613 182.728 316.573 182.248 317.44C181.768 318.307 181.115 318.993 180.288 319.5C179.462 319.993 178.522 320.24 177.468 320.24C176.682 320.24 175.955 320.087 175.288 319.78C174.635 319.46 174.115 319.007 173.728 318.42L174.148 317.9V324H171.528ZM177.168 317.84C177.768 317.84 178.302 317.7 178.768 317.42C179.235 317.14 179.595 316.753 179.848 316.26C180.115 315.767 180.248 315.2 180.248 314.56C180.248 313.92 180.115 313.36 179.848 312.88C179.595 312.387 179.235 312 178.768 311.72C178.302 311.427 177.768 311.28 177.168 311.28C176.595 311.28 176.075 311.42 175.608 311.7C175.155 311.98 174.795 312.373 174.528 312.88C174.275 313.373 174.148 313.933 174.148 314.56C174.148 315.2 174.275 315.767 174.528 316.26C174.795 316.753 175.155 317.14 175.608 317.42C176.075 317.7 176.595 317.84 177.168 317.84ZM190.286 320.24C189.166 320.24 188.186 319.987 187.346 319.48C186.506 318.973 185.852 318.287 185.386 317.42C184.919 316.553 184.686 315.593 184.686 314.54C184.686 313.447 184.919 312.48 185.386 311.64C185.866 310.787 186.512 310.113 187.326 309.62C188.152 309.127 189.072 308.88 190.086 308.88C190.939 308.88 191.686 309.02 192.326 309.3C192.979 309.58 193.532 309.967 193.986 310.46C194.439 310.953 194.786 311.52 195.026 312.16C195.266 312.787 195.386 313.467 195.386 314.2C195.386 314.387 195.372 314.58 195.346 314.78C195.332 314.98 195.299 315.153 195.246 315.3H186.846V313.3H193.766L192.526 314.24C192.646 313.627 192.612 313.08 192.426 312.6C192.252 312.12 191.959 311.74 191.546 311.46C191.146 311.18 190.659 311.04 190.086 311.04C189.539 311.04 189.052 311.18 188.626 311.46C188.199 311.727 187.872 312.127 187.646 312.66C187.432 313.18 187.352 313.813 187.406 314.56C187.352 315.227 187.439 315.82 187.666 316.34C187.906 316.847 188.252 317.24 188.706 317.52C189.172 317.8 189.706 317.94 190.306 317.94C190.906 317.94 191.412 317.813 191.826 317.56C192.252 317.307 192.586 316.967 192.826 316.54L194.946 317.58C194.732 318.1 194.399 318.56 193.946 318.96C193.492 319.36 192.952 319.673 192.326 319.9C191.712 320.127 191.032 320.24 190.286 320.24ZM202.852 320.24C201.785 320.24 200.812 319.993 199.932 319.5C199.065 319.007 198.372 318.333 197.852 317.48C197.345 316.627 197.092 315.653 197.092 314.56C197.092 313.467 197.345 312.493 197.852 311.64C198.372 310.787 199.065 310.113 199.932 309.62C200.798 309.127 201.772 308.88 202.852 308.88C203.918 308.88 204.885 309.127 205.752 309.62C206.618 310.113 207.305 310.787 207.812 311.64C208.332 312.48 208.592 313.453 208.592 314.56C208.592 315.653 208.332 316.627 207.812 317.48C207.292 318.333 206.598 319.007 205.732 319.5C204.865 319.993 203.905 320.24 202.852 320.24ZM202.852 317.84C203.438 317.84 203.952 317.7 204.392 317.42C204.845 317.14 205.198 316.753 205.452 316.26C205.718 315.753 205.852 315.187 205.852 314.56C205.852 313.92 205.718 313.36 205.452 312.88C205.198 312.387 204.845 312 204.392 311.72C203.952 311.427 203.438 311.28 202.852 311.28C202.252 311.28 201.725 311.427 201.272 311.72C200.818 312 200.458 312.387 200.192 312.88C199.938 313.36 199.812 313.92 199.812 314.56C199.812 315.187 199.938 315.753 200.192 316.26C200.458 316.753 200.818 317.14 201.272 317.42C201.725 317.7 202.252 317.84 202.852 317.84ZM210.739 324V309.12H213.199V311.28L212.959 310.74C213.332 310.153 213.839 309.7 214.479 309.38C215.119 309.047 215.859 308.88 216.699 308.88C217.725 308.88 218.652 309.133 219.479 309.64C220.305 310.147 220.959 310.827 221.439 311.68C221.932 312.533 222.179 313.493 222.179 314.56C222.179 315.613 221.939 316.573 221.459 317.44C220.979 318.307 220.325 318.993 219.499 319.5C218.672 319.993 217.732 320.24 216.679 320.24C215.892 320.24 215.165 320.087 214.499 319.78C213.845 319.46 213.325 319.007 212.939 318.42L213.359 317.9V324H210.739ZM216.379 317.84C216.979 317.84 217.512 317.7 217.979 317.42C218.445 317.14 218.805 316.753 219.059 316.26C219.325 315.767 219.459 315.2 219.459 314.56C219.459 313.92 219.325 313.36 219.059 312.88C218.805 312.387 218.445 312 217.979 311.72C217.512 311.427 216.979 311.28 216.379 311.28C215.805 311.28 215.285 311.42 214.819 311.7C214.365 311.98 214.005 312.373 213.739 312.88C213.485 313.373 213.359 313.933 213.359 314.56C213.359 315.2 213.485 315.767 213.739 316.26C214.005 316.753 214.365 317.14 214.819 317.42C215.285 317.7 215.805 317.84 216.379 317.84ZM224.336 320V304.86H226.956V320H224.336ZM234.695 320.24C233.575 320.24 232.595 319.987 231.755 319.48C230.915 318.973 230.262 318.287 229.795 317.42C229.329 316.553 229.095 315.593 229.095 314.54C229.095 313.447 229.329 312.48 229.795 311.64C230.275 310.787 230.922 310.113 231.735 309.62C232.562 309.127 233.482 308.88 234.495 308.88C235.349 308.88 236.095 309.02 236.735 309.3C237.389 309.58 237.942 309.967 238.395 310.46C238.849 310.953 239.195 311.52 239.435 312.16C239.675 312.787 239.795 313.467 239.795 314.2C239.795 314.387 239.782 314.58 239.755 314.78C239.742 314.98 239.709 315.153 239.655 315.3H231.255V313.3H238.175L236.935 314.24C237.055 313.627 237.022 313.08 236.835 312.6C236.662 312.12 236.369 311.74 235.955 311.46C235.555 311.18 235.069 311.04 234.495 311.04C233.949 311.04 233.462 311.18 233.035 311.46C232.609 311.727 232.282 312.127 232.055 312.66C231.842 313.18 231.762 313.813 231.815 314.56C231.762 315.227 231.849 315.82 232.075 316.34C232.315 316.847 232.662 317.24 233.115 317.52C233.582 317.8 234.115 317.94 234.715 317.94C235.315 317.94 235.822 317.813 236.235 317.56C236.662 317.307 236.995 316.967 237.235 316.54L239.355 317.58C239.142 318.1 238.809 318.56 238.355 318.96C237.902 319.36 237.362 319.673 236.735 319.9C236.122 320.127 235.442 320.24 234.695 320.24Z" fill="#202124"/>
</svg>
