<svg width="512" height="512" viewBox="0 0 512 512" fill="none" xmlns="http://www.w3.org/2000/svg">
<path d="M175.408 84.576C210.78 84.576 241.691 91.746 268.14 106.086C294.908 120.426 315.462 140.343 329.802 165.836C344.142 191.329 351.312 220.328 351.312 252.832C351.312 285.017 344.142 314.016 329.802 339.828C315.462 365.64 294.908 386.035 268.14 401.012C241.691 415.671 210.78 423 175.408 423H34.398V84.576H175.408ZM165.848 328.356C189.748 328.356 208.709 321.823 222.73 308.758C236.751 295.693 243.762 277.051 243.762 252.832C243.762 228.613 236.751 209.971 222.73 196.906C208.709 183.841 189.748 177.308 165.848 177.308H140.514V328.356H165.848Z" fill="#232529"/>
<path d="M469.934 412.006C460.056 421.885 448.106 426.824 434.084 426.824C420.063 426.824 407.954 421.885 397.756 412.006C387.878 401.809 382.938 389.699 382.938 375.678C382.938 361.657 387.878 349.707 397.756 339.828C407.954 329.631 420.063 324.532 434.084 324.532C448.106 324.532 460.056 329.631 469.934 339.828C480.132 349.707 485.23 361.657 485.23 375.678C485.23 389.699 480.132 401.809 469.934 412.006Z" fill="#FF4D4D"/>
</svg>
