<svg width="308" height="328" viewBox="0 0 308 328" fill="none" xmlns="http://www.w3.org/2000/svg">
<path d="M237.2 174.52H84.52C75.32 174.52 67.88 167.08 67.88 157.88V62.4C67.88 53.2 75.32 45.76 84.52 45.76H237.2C246.4 45.76 253.84 53.2 253.84 62.4V157.88C253.84 167.08 246.36 174.52 237.2 174.52Z" fill="#EDEDED"/>
<path d="M140.52 85.3199H84.16C81.16 85.3199 78.72 82.8799 78.72 79.8799V63.7199C78.72 60.7199 81.16 58.2799 84.16 58.2799H140.52C143.52 58.2799 145.96 60.7199 145.96 63.7199V79.8799C145.96 82.8799 143.52 85.3199 140.52 85.3199Z" fill="white"/>
<path d="M84.5199 76.0398C85.7599 74.6798 86.9599 73.2798 88.0399 71.7598C88.7999 70.7198 89.0399 70.5998 90.0799 71.3998C91.0799 72.1598 92.0799 72.9598 93.0399 73.7598C93.1599 73.8398 93.3599 73.8798 93.4799 73.7598C95.0799 71.8398 96.6799 69.8798 98.2799 67.9598C98.7999 67.3198 99.8399 65.4398 100.76 65.5598C101.36 65.5998 102.92 67.5198 103.4 67.9598C106.84 70.9598 110.44 73.7198 114.24 76.2398C114.4 76.3198 114.56 76.2398 114.64 76.1198C115.52 74.8798 115.64 74.6398 116.84 75.5198C116.96 75.6398 117.16 75.5198 117.24 75.3998C118.52 73.5198 119.84 71.7198 121.32 69.9998C122 69.1598 122.72 68.3598 123.48 67.5598C124.2 66.7998 124.8 65.6398 125.84 66.2398C126.6 66.6798 127.28 67.6398 127.92 68.1998C128.72 68.9198 129.52 69.6398 130.36 70.3198C131.88 71.5598 133.4 72.6798 135 73.7998C135.12 73.8798 135.32 73.8398 135.4 73.6798C137.08 70.6798 138.76 67.6798 140.44 64.6798C140.64 64.3598 140.12 64.0398 139.92 64.3598C139 65.9598 138.12 67.5998 137.2 69.1998C136.72 70.0798 136.28 71.1998 135.64 71.9598C134.88 72.9198 134.88 72.9598 133.8 72.1998C130.8 70.0398 128.04 67.6398 125.44 64.9998C125.32 64.8798 125.12 64.8798 125 64.9998C123.2 66.7998 121.52 68.6398 119.96 70.6398C119.36 71.3998 118.76 72.1998 118.16 72.9998C117.96 73.2798 117.48 74.3598 117.12 74.4798C116.48 74.6798 116.24 74.3198 115.72 73.9198C115.6 73.7998 115.4 73.9198 115.32 74.0398C114.76 74.8398 114.64 75.4398 113.64 75.0798C113.04 74.8398 112.4 74.2398 111.88 73.8398C110.44 72.7998 109.04 71.7598 107.64 70.6798C105.2 68.7598 102.88 66.7198 100.64 64.5998C100.52 64.4798 100.32 64.4798 100.2 64.5998C98.3599 66.8398 96.5199 69.0398 94.6799 71.2798C94.3999 71.5998 93.8799 72.5998 93.4799 72.7198C92.7199 72.9998 92.3599 72.3998 91.7999 71.9598C90.8799 71.1998 89.8799 70.5198 88.9199 69.7998C88.7999 69.7198 88.5999 69.7998 88.5199 69.9198C87.1599 71.9198 85.6799 73.7998 84.0399 75.5598C83.8399 75.9198 84.2399 76.3598 84.5199 76.0398Z" fill="#202124"/>
<path d="M137.88 65.9599C138.68 65.1999 139.56 64.5199 140.56 63.9999C140.4 63.9599 140.28 63.8799 140.12 63.8399C140.4 64.7999 140.64 65.7599 140.8 66.7199C140.88 67.0799 141.44 66.9199 141.36 66.5599C141.2 65.5999 140.96 64.6399 140.68 63.6799C140.64 63.4799 140.4 63.3999 140.24 63.5199C139.2 64.0799 138.28 64.7599 137.44 65.5599C137.2 65.7999 137.6 66.2399 137.88 65.9599Z" fill="#202124"/>
<path d="M83.6799 83.6399C84.4973 83.6399 85.16 82.9773 85.16 82.1599C85.16 81.3425 84.4973 80.6799 83.6799 80.6799C82.8626 80.6799 82.2 81.3425 82.2 82.1599C82.2 82.9773 82.8626 83.6399 83.6799 83.6399Z" fill="#4C5BE7"/>
<path d="M95.8401 108.16H88.0801V129.2H95.8401V108.16Z" fill="#4C5BE7"/>
<path d="M107.36 97.5199H99.6V129.2H107.36V97.5199Z" fill="#EB506E"/>
<path d="M118.72 123.04H110.96V129.2H118.72V123.04Z" fill="#4C5BE7"/>
<path d="M130.2 92.0399H122.44V129.2H130.2V92.0399Z" fill="#4C5BE7"/>
<path d="M84.28 94.72V129.2" stroke="#202124" stroke-width="0.75" stroke-miterlimit="10"/>
<path d="M132.68 129.2H84.28" stroke="#202124" stroke-width="0.75" stroke-miterlimit="10"/>
<path d="M242.96 62.1599H166.84V93.5599H242.96V62.1599Z" fill="#FCFCFC"/>
<path d="M171.76 68.8799H232.16" stroke="#202124" stroke-width="0.75" stroke-miterlimit="10"/>
<path d="M171.64 74.72H232.16" stroke="#202124" stroke-width="0.75" stroke-miterlimit="10"/>
<path d="M171.72 80.6799H231.72" stroke="#202124" stroke-width="0.75" stroke-miterlimit="10"/>
<path d="M171.72 87.72H230.96" stroke="#202124" stroke-width="0.75" stroke-miterlimit="10"/>
<path d="M186.6 102.96C179.08 102.96 172.96 109.08 172.96 116.6C172.96 124.12 179.08 130.24 186.6 130.24C194.12 130.24 200.24 124.12 200.24 116.6C200.24 109.08 194.16 102.96 186.6 102.96ZM186.6 127.2C180.72 127.2 176 122.44 176 116.6C176 110.72 180.76 106 186.6 106C192.44 106 197.2 110.76 197.2 116.6C197.24 122.48 192.48 127.2 186.6 127.2Z" fill="#EB506E"/>
<path d="M221.32 113.24C217.12 113.24 213.68 116.68 213.68 120.88C213.68 125.08 217.12 128.52 221.32 128.52C225.52 128.52 228.96 125.08 228.96 120.88C228.96 116.68 225.56 113.24 221.32 113.24ZM221.32 126.84C218.04 126.84 215.36 124.16 215.36 120.88C215.36 117.6 218.04 114.92 221.32 114.92C224.6 114.92 227.28 117.6 227.28 120.88C227.28 124.16 224.6 126.84 221.32 126.84Z" fill="#A5A5A5"/>
<path d="M199.2 114.08L203.08 108.28" stroke="#202124" stroke-width="0.75" stroke-miterlimit="10"/>
<path d="M204.56 107.8H229.8" stroke="#202124" stroke-width="0.75" stroke-miterlimit="10"/>
<path d="M204.56 105.44H228.96" stroke="#202124" stroke-width="0.75" stroke-miterlimit="10"/>
<path d="M204.92 102.32H225.88" stroke="#202124" stroke-width="0.75" stroke-miterlimit="10"/>
<path d="M205.44 99.6H219.84" stroke="#202124" stroke-width="0.75" stroke-miterlimit="10"/>
<path d="M222.84 125.24L225.12 129.2" stroke="#202124" stroke-width="0.75" stroke-miterlimit="10"/>
<path d="M225.88 131.52H246.6" stroke="#202124" stroke-width="0.75" stroke-miterlimit="10"/>
<path d="M225.88 133.56H246.6" stroke="#202124" stroke-width="0.75" stroke-miterlimit="10"/>
<path d="M225.88 136.48H234.36" stroke="#202124" stroke-width="0.75" stroke-miterlimit="10"/>
<path d="M227.28 139H245" stroke="#202124" stroke-width="0.75" stroke-miterlimit="10"/>
<path d="M192.36 42.04C202.014 42.04 209.84 34.2139 209.84 24.56C209.84 14.906 202.014 7.07996 192.36 7.07996C182.706 7.07996 174.88 14.906 174.88 24.56C174.88 34.2139 182.706 42.04 192.36 42.04Z" fill="#202124"/>
<path d="M190.48 42.04C200.134 42.04 207.96 34.2139 207.96 24.56C207.96 14.906 200.134 7.07996 190.48 7.07996C180.826 7.07996 173 14.906 173 24.56C173 34.2139 180.826 42.04 190.48 42.04Z" fill="#B3B1FC"/>
<path d="M189.24 11.04C189.24 12.4 189.24 13.8 189.24 15.16C189.24 15.92 190.44 15.92 190.44 15.16C190.44 13.8 190.44 12.4 190.44 11.04C190.44 10.28 189.24 10.28 189.24 11.04Z" fill="#4C5BE7"/>
<path d="M196.16 15.64C193.52 14.4 190.48 14.44 187.92 15.84C185.6 17.12 183.2 20.08 184.44 22.8C184.96 24 186.16 24.8 187.4 25.16C189.52 25.8 192.32 24.6 194.12 26.12C196.84 28.44 194.4 31.64 191.76 32.48C189.36 33.24 186.8 32.64 184.84 31.12C184.24 30.64 183.4 31.48 184 31.96C186.48 33.92 189.76 34.6 192.76 33.4C195.36 32.32 197.4 29.64 196.12 26.84C195.52 25.56 194.44 24.64 193.08 24.36C190.8 23.84 188 25.04 186.12 23.2C183.72 20.88 186.88 17.64 189 16.68C191.08 15.72 193.48 15.76 195.56 16.72C196.24 17 196.84 16 196.16 15.64Z" fill="#4C5BE7"/>
<path d="M189.72 34.04C189.88 34.96 189.88 35.92 189.84 36.84C189.8 37.6 191 37.6 191.04 36.84C191.12 35.8 191.04 34.76 190.88 33.72C190.76 32.96 189.6 33.28 189.72 34.04Z" fill="#4C5BE7"/>
<path d="M90.6 144.64C90.32 145.16 89.92 146.08 90.12 147.2C90.24 147.84 90.48 148.24 90.88 149C91.16 149.48 91.6 150.28 92.44 151.16C93.88 152.72 94.44 152.36 95.36 153.56C95.68 153.96 95.72 154.16 96.72 156.56C97.2 157.72 97.56 158.64 97.8 159.2C98.68 159.64 99.44 159.72 99.92 159.72C102.2 159.64 104.4 157.64 105.44 154.64C105.32 153.68 105.28 152.92 105.24 152.36C105.2 151.88 105.16 151 105.12 149.72C105.12 149.68 105 149 104.76 147.68C104.72 147.4 104.64 147.04 104.4 146.88C104.08 146.68 103.68 146.84 103.56 146.88C102.68 147.24 102.48 148.44 102.44 148.6C102.12 148.44 101.64 148.16 101.12 147.8C100.6 147.48 99.56 146.76 98.36 145.52C96.6 143.72 95.52 142.12 95.52 142.12C94.92 141.24 94.48 140.44 93.92 140.52C93.8 140.52 93.64 140.6 92.88 141.36C92.28 141.96 92 142.24 91.8 142.52C91.44 142.96 90.96 143.68 90.6 144.64Z" fill="#F7CD5B"/>
<path d="M97.2399 157.96C97.2399 158.92 97.1999 160.36 97.2399 162.08C97.2399 167.8 97.2799 172.24 97.5999 176.8C97.8399 179.88 98.3199 185.8 100.28 193.16C101.4 197.4 102.72 200.88 103.76 203.44C104.72 204.44 107.44 207 110.04 206.4C113.4 205.6 114.4 200.04 115.08 196.44C115.92 192 116.52 184.4 113.24 174.52C112.48 172.88 111.72 171.16 110.96 169.4C108.72 164.2 106.88 159.12 105.28 154.28C104.16 154.28 102 154.48 99.7599 155.8C98.6399 156.52 97.8399 157.32 97.2399 157.96Z" fill="#262A4E"/>
<path d="M98.36 157.12C100.4 155.28 102.96 154.44 105.72 154.76C105.84 154.76 105.92 154.6 105.84 154.52C105.72 154.4 105.6 154.28 105.44 154.2C105.28 154.08 105.08 154.28 105.24 154.4C104.72 153.96 102.12 154.68 101.48 154.88C100.24 155.32 99.16 156 98.16 156.88C98 157.04 98.24 157.28 98.36 157.12Z" fill="#202124"/>
<path d="M92.2001 142.2C93.0401 144.36 94.4401 146.12 96.3201 147.48C96.4801 147.6 96.6401 147.32 96.4801 147.24C94.6801 145.96 93.3201 144.2 92.5201 142.16C92.4401 141.96 92.1601 142.04 92.2001 142.2Z" fill="#202124"/>
<path d="M91.04 143.2C91.52 145.44 92.92 147.32 94.92 148.44C95.08 148.52 95.24 148.28 95.08 148.2C93.16 147.12 91.8 145.32 91.36 143.12C91.28 142.96 91 143.04 91.04 143.2Z" fill="#202124"/>
<path d="M90.28 145.08C91 147.32 92.44 149.2 94.44 150.44C94.6 150.56 94.76 150.28 94.6 150.2C92.68 149 91.28 147.2 90.6 145.04C90.52 144.8 90.24 144.88 90.28 145.08Z" fill="#202124"/>
<path d="M192.84 149.92C192.68 149.48 192.44 148.8 192.08 148C191.36 146.36 191.04 146.08 190.56 144.64C190.56 144.64 190.2 143.6 190 141.92C189.92 141.36 189.92 141.04 190.08 140.96C190.36 140.8 191.08 141.48 191.72 142.16C191.96 141.8 192.28 141.28 192.6 140.64C193.48 138.88 193.76 137.36 193.84 137C194.24 134.8 193.68 134.4 194.28 133.6C195 132.6 196.64 132.2 197.88 132.72C199.12 133.2 199.6 134.44 200 135.44C200.36 136.4 200.44 137.24 200.52 137.84C200.56 138.4 200.6 139.08 200.48 140.12C200.32 141.88 199.88 143.08 199.24 145.2C198.96 146.16 198.52 147.56 198 149.36C197.96 149.52 197.76 150.88 196.72 151.4C195.48 151.96 193.76 151.44 192.84 149.92Z" fill="#F7CD5B"/>
<path d="M192.08 149.76C192.12 150.96 192.16 152.16 192.2 153.36C192.48 162.52 192.6 167.16 192.72 169.32C193.08 175.04 193.24 177.92 193.72 180C195.4 186.96 200.28 196.76 206.52 196.88C207.6 196.88 209.24 196.6 211.2 195.16C211.16 193.52 211.12 191.28 210.88 188.64C210.6 185.12 209.96 179.96 208.4 173.84C207.6 170.68 206.4 166.64 204.6 162.12C203.12 158.44 201.68 155.52 200.76 153.72C199.8 151.84 198.88 150.24 198.12 149C197.32 148.84 196.04 148.68 194.56 148.96C193.52 149.12 192.68 149.48 192.08 149.76Z" fill="#262A4E"/>
<path d="M194.92 133.36C195.88 135.36 195.56 137.56 195.04 139.64C195 139.84 195.28 139.92 195.32 139.72C195.88 137.56 196.2 135.28 195.16 133.2C195.12 133.04 194.84 133.2 194.92 133.36Z" fill="#202124"/>
<path d="M196.4 133.28C197.24 135.24 197.36 137.28 196.84 139.32C196.8 139.52 197.08 139.6 197.12 139.4C197.68 137.28 197.52 135.16 196.68 133.12C196.6 132.96 196.32 133.12 196.4 133.28Z" fill="#202124"/>
<path d="M198 133.4C198.88 135.16 199.04 137.08 198.48 138.96C198.44 139.16 198.72 139.24 198.76 139.04C199.36 137.08 199.16 135.08 198.24 133.24C198.16 133.08 197.92 133.24 198 133.4Z" fill="#202124"/>
<path d="M188.6 154.76C190.72 154.68 192.52 156.36 195.28 158.92C197.6 161.08 198.8 163 201 166.56C201.8 167.84 204.76 172.64 207.76 179.72C209.44 183.64 209.88 185.36 210.12 186.28C211.36 191.48 210.72 194.64 210.48 195.64C209.88 198.16 208.92 199.4 208.68 199.72C208.24 200.28 206.6 202.36 204.12 202.6C202.44 202.76 201.12 202.04 200 201.4C195.08 198.48 191.68 194.92 191.24 194.44C186.44 189.36 184.04 186.8 183 184.96C181.92 183.04 179.48 178.64 179.4 172.76C179.24 164.6 183.68 155 188.6 154.76Z" fill="#262A4E"/>
<path d="M121.44 156.72C121.08 156.88 120.52 157.6 119.4 159C118.2 160.52 116.68 162.4 114.92 165.32C113.48 167.68 112.56 169.56 111.76 171.16C111.28 172.12 110.64 173.48 109.52 176.04C107.68 180.28 106.8 182.36 106 184.76C104.96 187.84 103.76 191.6 103.56 196.52C103.44 199.88 103.84 202.68 104.24 204.6C104.72 205.16 105.44 206 106.4 206.88C108.08 208.44 109.08 209.36 110.64 209.6C112.08 209.84 113.24 209.36 114.04 209.04C114.68 208.76 115.72 208.28 117.64 206.4C118.56 205.52 119.76 204.24 121.76 201.56C122.12 201.12 123.72 198.92 124.8 197.24C128.32 191.72 130.44 184.52 131.36 180.96C133.64 172.2 134.8 167.84 133.4 164.6C131.08 159.2 124.52 155.24 121.44 156.72Z" fill="#262A4E"/>
<path d="M121.2 156.84C120.36 158.64 119.36 161.2 118.96 164.4C118.72 166.28 118.72 167.96 118.8 169.36C119 171.92 119.28 174.84 119.68 178.04C119.92 179.88 120.36 183.32 121.12 187.56C121.76 191.24 123.08 198.24 125.48 206.92C126.72 211.4 128.32 216.68 130.44 222.56C132.6 223.88 134.92 225.08 137.44 226.08C157.28 234 177.44 225.96 185.68 222.08C186.2 220.28 186.96 217.56 187.76 214.24C188.2 212.48 189.12 208.4 190.64 199.4C191.16 196.32 191.76 192.84 192.44 188C194.88 170.84 194.2 167.12 193.8 165.36C193.2 162.76 192 158.92 189.08 154.6C188 154.24 186.52 153.76 184.72 153.28C181.6 152.4 175.96 151.04 168.8 150.28C164.88 149.88 159.04 149.48 151.92 149.92C144.28 150.4 138.28 151.64 134.8 152.48C129.4 153.8 124.84 155.36 121.2 156.84Z" fill="#262A4E"/>
<path d="M118.52 167.72C119.92 186.04 123.76 204.12 129.92 221.44C130 221.64 130.28 221.56 130.2 221.36C124 204.08 120.16 186.04 118.8 167.72C118.8 167.52 118.52 167.52 118.52 167.72Z" fill="white"/>
<path d="M193.6 169.04C193.16 186.96 190.44 204.76 185.56 222.04C185.52 222.24 185.8 222.32 185.84 222.12C190.76 204.84 193.44 187 193.92 169.04C193.92 168.84 193.6 168.84 193.6 169.04Z" fill="white"/>
<path d="M146.84 148.44C144.52 146.52 144.12 143.56 144 142.76C143.92 142.2 143.44 137.88 146.6 134.6C148.76 132.4 152.48 130.72 156.08 132C160.08 133.4 161.36 137.4 161.64 138.2C161.88 138.92 162.96 142.32 161.32 145.4C158.76 150.16 150.92 151.72 146.84 148.44Z" fill="#4C5BE7"/>
<path d="M151.8 149.04C151.44 148.16 151 146.64 151.4 144.92C152.12 141.88 155.16 139.52 159.04 139.04C159.04 139.8 158.96 140.56 158.76 141.4C157.56 146.04 153.12 148.4 151.8 149.04Z" fill="#EB506E"/>
<path d="M155.56 143.8C156.08 143.04 156 142.4 156.32 140.24C156.68 137.88 156.92 136.24 157.4 135.28C159 132.12 166.44 130.84 171.92 133.6C176.72 136 178.52 140.76 179.64 143.8C182.24 150.76 180.96 157.12 180.12 160.12C179.24 163.16 176.84 171.44 169.32 175C160.8 179 147.68 176.36 143.68 166.96C139.92 158.16 145.56 147 150.64 145.8C151.92 145.52 154.4 145.56 155.56 143.8Z" fill="#4C5BE7"/>
<path d="M187.52 240H127.24C121.84 240 117.44 235.6 117.44 230.2V169.92C117.44 164.52 121.84 160.12 127.24 160.12H187.52C192.92 160.12 197.32 164.52 197.32 169.92V230.2C197.32 235.6 192.96 240 187.52 240Z" fill="#CCCCCC"/>
<path d="M5.35702 288L10.497 273.1H14.017L19.157 288H16.197L15.137 284.8H9.37702L8.29702 288H5.35702ZM10.157 282.4H14.357L11.877 274.98H12.637L10.157 282.4ZM25.4247 288.24C24.3713 288.24 23.4313 287.993 22.6047 287.5C21.778 286.993 21.1247 286.307 20.6447 285.44C20.1647 284.573 19.9247 283.613 19.9247 282.56C19.9247 281.493 20.1647 280.533 20.6447 279.68C21.1247 278.827 21.778 278.147 22.6047 277.64C23.4447 277.133 24.378 276.88 25.4047 276.88C26.2313 276.88 26.9647 277.047 27.6047 277.38C28.258 277.7 28.7713 278.153 29.1447 278.74L28.7447 279.28V272.86H31.3647V288H28.8847V285.9L29.1647 286.42C28.7913 287.007 28.2713 287.46 27.6047 287.78C26.938 288.087 26.2113 288.24 25.4247 288.24ZM25.7047 285.84C26.3047 285.84 26.8313 285.7 27.2847 285.42C27.738 285.14 28.0913 284.753 28.3447 284.26C28.6113 283.767 28.7447 283.2 28.7447 282.56C28.7447 281.933 28.6113 281.373 28.3447 280.88C28.0913 280.373 27.738 279.98 27.2847 279.7C26.8313 279.42 26.3047 279.28 25.7047 279.28C25.118 279.28 24.5913 279.427 24.1247 279.72C23.658 280 23.2913 280.387 23.0247 280.88C22.7713 281.36 22.6447 281.92 22.6447 282.56C22.6447 283.2 22.7713 283.767 23.0247 284.26C23.2913 284.753 23.658 285.14 24.1247 285.42C24.5913 285.7 25.118 285.84 25.7047 285.84ZM37.2422 288L32.9622 277.12H35.8222L38.9222 285.68H37.8622L40.9822 277.12H43.8422L39.5622 288H37.2422ZM48.3597 288.24C47.5997 288.24 46.9397 288.113 46.3797 287.86C45.8197 287.607 45.3863 287.247 45.0797 286.78C44.773 286.3 44.6197 285.747 44.6197 285.12C44.6197 284.52 44.753 283.987 45.0197 283.52C45.2863 283.04 45.6997 282.64 46.2597 282.32C46.8197 282 47.5263 281.773 48.3797 281.64L51.9397 281.06V283.06L48.8797 283.58C48.3597 283.673 47.973 283.84 47.7197 284.08C47.4663 284.32 47.3397 284.633 47.3397 285.02C47.3397 285.393 47.4797 285.693 47.7597 285.92C48.053 286.133 48.413 286.24 48.8397 286.24C49.3863 286.24 49.8663 286.127 50.2797 285.9C50.7063 285.66 51.033 285.333 51.2597 284.92C51.4997 284.507 51.6197 284.053 51.6197 283.56V280.76C51.6197 280.293 51.433 279.907 51.0597 279.6C50.6997 279.28 50.2197 279.12 49.6197 279.12C49.0597 279.12 48.5597 279.273 48.1197 279.58C47.693 279.873 47.3797 280.267 47.1797 280.76L45.0397 279.72C45.253 279.147 45.5863 278.653 46.0397 278.24C46.5063 277.813 47.053 277.48 47.6797 277.24C48.3063 277 48.9863 276.88 49.7197 276.88C50.613 276.88 51.3997 277.047 52.0797 277.38C52.7597 277.7 53.2863 278.153 53.6597 278.74C54.0463 279.313 54.2397 279.987 54.2397 280.76V288H51.7597V286.14L52.3197 286.1C52.0397 286.567 51.7063 286.96 51.3197 287.28C50.933 287.587 50.493 287.827 49.9997 288C49.5063 288.16 48.9597 288.24 48.3597 288.24ZM56.8212 288V277.12H59.2812V279.26L59.0812 278.88C59.3346 278.227 59.7479 277.733 60.3212 277.4C60.9079 277.053 61.5879 276.88 62.3612 276.88C63.1612 276.88 63.8679 277.053 64.4812 277.4C65.1079 277.747 65.5946 278.233 65.9412 278.86C66.2879 279.473 66.4612 280.187 66.4612 281V288H63.8412V281.62C63.8412 281.14 63.7479 280.727 63.5612 280.38C63.3746 280.033 63.1146 279.767 62.7812 279.58C62.4612 279.38 62.0812 279.28 61.6412 279.28C61.2146 279.28 60.8346 279.38 60.5012 279.58C60.1679 279.767 59.9079 280.033 59.7212 280.38C59.5346 280.727 59.4412 281.14 59.4412 281.62V288H56.8212ZM74.0767 288.24C72.9967 288.24 72.0234 287.993 71.1567 287.5C70.3034 286.993 69.63 286.313 69.1367 285.46C68.6434 284.593 68.3967 283.62 68.3967 282.54C68.3967 281.46 68.6434 280.493 69.1367 279.64C69.63 278.787 70.3034 278.113 71.1567 277.62C72.0234 277.127 72.9967 276.88 74.0767 276.88C74.85 276.88 75.57 277.02 76.2367 277.3C76.9034 277.567 77.4767 277.94 77.9567 278.42C78.45 278.887 78.8034 279.447 79.0167 280.1L76.7167 281.1C76.5167 280.553 76.1767 280.113 75.6967 279.78C75.23 279.447 74.69 279.28 74.0767 279.28C73.5034 279.28 72.99 279.42 72.5367 279.7C72.0967 279.98 71.75 280.367 71.4967 280.86C71.2434 281.353 71.1167 281.92 71.1167 282.56C71.1167 283.2 71.2434 283.767 71.4967 284.26C71.75 284.753 72.0967 285.14 72.5367 285.42C72.99 285.7 73.5034 285.84 74.0767 285.84C74.7034 285.84 75.25 285.673 75.7167 285.34C76.1834 285.007 76.5167 284.56 76.7167 284L79.0167 285.04C78.8034 285.653 78.4567 286.207 77.9767 286.7C77.4967 287.18 76.9234 287.56 76.2567 287.84C75.59 288.107 74.8634 288.24 74.0767 288.24ZM86.3247 288.24C85.2047 288.24 84.2247 287.987 83.3847 287.48C82.5447 286.973 81.8913 286.287 81.4247 285.42C80.958 284.553 80.7247 283.593 80.7247 282.54C80.7247 281.447 80.958 280.48 81.4247 279.64C81.9047 278.787 82.5513 278.113 83.3647 277.62C84.1913 277.127 85.1113 276.88 86.1247 276.88C86.978 276.88 87.7247 277.02 88.3647 277.3C89.018 277.58 89.5713 277.967 90.0247 278.46C90.478 278.953 90.8247 279.52 91.0647 280.16C91.3047 280.787 91.4247 281.467 91.4247 282.2C91.4247 282.387 91.4113 282.58 91.3847 282.78C91.3713 282.98 91.338 283.153 91.2847 283.3H82.8847V281.3H89.8047L88.5647 282.24C88.6847 281.627 88.6513 281.08 88.4647 280.6C88.2913 280.12 87.998 279.74 87.5847 279.46C87.1847 279.18 86.698 279.04 86.1247 279.04C85.578 279.04 85.0913 279.18 84.6647 279.46C84.238 279.727 83.9113 280.127 83.6847 280.66C83.4713 281.18 83.3913 281.813 83.4447 282.56C83.3913 283.227 83.478 283.82 83.7047 284.34C83.9447 284.847 84.2913 285.24 84.7447 285.52C85.2113 285.8 85.7447 285.94 86.3447 285.94C86.9447 285.94 87.4513 285.813 87.8647 285.56C88.2913 285.307 88.6247 284.967 88.8647 284.54L90.9847 285.58C90.7713 286.1 90.438 286.56 89.9847 286.96C89.5313 287.36 88.9913 287.673 88.3647 287.9C87.7513 288.127 87.0713 288.24 86.3247 288.24ZM102.245 288.12C101.019 288.12 100.065 287.787 99.3855 287.12C98.7188 286.44 98.3855 285.487 98.3855 284.26V279.46H96.5055V277.12H96.7055C97.2388 277.12 97.6521 276.98 97.9455 276.7C98.2388 276.42 98.3855 276.013 98.3855 275.48V274.64H101.005V277.12H103.505V279.46H101.005V284.12C101.005 284.48 101.065 284.787 101.185 285.04C101.319 285.293 101.519 285.487 101.785 285.62C102.065 285.753 102.419 285.82 102.845 285.82C102.939 285.82 103.045 285.813 103.165 285.8C103.299 285.787 103.425 285.773 103.545 285.76V288C103.359 288.027 103.145 288.053 102.905 288.08C102.665 288.107 102.445 288.12 102.245 288.12ZM110.93 288.24C109.863 288.24 108.89 287.993 108.01 287.5C107.143 287.007 106.45 286.333 105.93 285.48C105.423 284.627 105.17 283.653 105.17 282.56C105.17 281.467 105.423 280.493 105.93 279.64C106.45 278.787 107.143 278.113 108.01 277.62C108.876 277.127 109.85 276.88 110.93 276.88C111.996 276.88 112.963 277.127 113.83 277.62C114.696 278.113 115.383 278.787 115.89 279.64C116.41 280.48 116.67 281.453 116.67 282.56C116.67 283.653 116.41 284.627 115.89 285.48C115.37 286.333 114.676 287.007 113.81 287.5C112.943 287.993 111.983 288.24 110.93 288.24ZM110.93 285.84C111.516 285.84 112.03 285.7 112.47 285.42C112.923 285.14 113.276 284.753 113.53 284.26C113.796 283.753 113.93 283.187 113.93 282.56C113.93 281.92 113.796 281.36 113.53 280.88C113.276 280.387 112.923 280 112.47 279.72C112.03 279.427 111.516 279.28 110.93 279.28C110.33 279.28 109.803 279.427 109.35 279.72C108.896 280 108.536 280.387 108.27 280.88C108.016 281.36 107.89 281.92 107.89 282.56C107.89 283.187 108.016 283.753 108.27 284.26C108.536 284.753 108.896 285.14 109.35 285.42C109.803 285.7 110.33 285.84 110.93 285.84ZM124.136 288.24C123.07 288.24 122.096 287.993 121.216 287.5C120.35 287.007 119.656 286.333 119.136 285.48C118.63 284.627 118.376 283.653 118.376 282.56C118.376 281.467 118.63 280.493 119.136 279.64C119.656 278.787 120.35 278.113 121.216 277.62C122.083 277.127 123.056 276.88 124.136 276.88C125.203 276.88 126.17 277.127 127.036 277.62C127.903 278.113 128.59 278.787 129.096 279.64C129.616 280.48 129.876 281.453 129.876 282.56C129.876 283.653 129.616 284.627 129.096 285.48C128.576 286.333 127.883 287.007 127.016 287.5C126.15 287.993 125.19 288.24 124.136 288.24ZM124.136 285.84C124.723 285.84 125.236 285.7 125.676 285.42C126.13 285.14 126.483 284.753 126.736 284.26C127.003 283.753 127.136 283.187 127.136 282.56C127.136 281.92 127.003 281.36 126.736 280.88C126.483 280.387 126.13 280 125.676 279.72C125.236 279.427 124.723 279.28 124.136 279.28C123.536 279.28 123.01 279.427 122.556 279.72C122.103 280 121.743 280.387 121.476 280.88C121.223 281.36 121.096 281.92 121.096 282.56C121.096 283.187 121.223 283.753 121.476 284.26C121.743 284.753 122.103 285.14 122.556 285.42C123.01 285.7 123.536 285.84 124.136 285.84ZM132.023 288V272.86H134.643V288H132.023ZM141.362 288.24C140.202 288.24 139.189 287.967 138.322 287.42C137.469 286.86 136.882 286.107 136.562 285.16L138.522 284.22C138.802 284.833 139.189 285.313 139.682 285.66C140.189 286.007 140.749 286.18 141.362 286.18C141.842 286.18 142.222 286.073 142.502 285.86C142.782 285.647 142.922 285.367 142.922 285.02C142.922 284.807 142.862 284.633 142.742 284.5C142.636 284.353 142.482 284.233 142.282 284.14C142.096 284.033 141.889 283.947 141.662 283.88L139.882 283.38C138.962 283.113 138.262 282.707 137.782 282.16C137.316 281.613 137.082 280.967 137.082 280.22C137.082 279.553 137.249 278.973 137.582 278.48C137.929 277.973 138.402 277.58 139.002 277.3C139.616 277.02 140.316 276.88 141.102 276.88C142.129 276.88 143.036 277.127 143.822 277.62C144.609 278.113 145.169 278.807 145.502 279.7L143.502 280.64C143.316 280.147 143.002 279.753 142.562 279.46C142.122 279.167 141.629 279.02 141.082 279.02C140.642 279.02 140.296 279.12 140.042 279.32C139.789 279.52 139.662 279.78 139.662 280.1C139.662 280.3 139.716 280.473 139.822 280.62C139.929 280.767 140.076 280.887 140.262 280.98C140.462 281.073 140.689 281.16 140.942 281.24L142.682 281.76C143.576 282.027 144.262 282.427 144.742 282.96C145.236 283.493 145.482 284.147 145.482 284.92C145.482 285.573 145.309 286.153 144.962 286.66C144.616 287.153 144.136 287.54 143.522 287.82C142.909 288.1 142.189 288.24 141.362 288.24ZM156.33 288.12C155.104 288.12 154.15 287.787 153.47 287.12C152.804 286.44 152.47 285.487 152.47 284.26V279.46H150.59V277.12H150.79C151.324 277.12 151.737 276.98 152.03 276.7C152.324 276.42 152.47 276.013 152.47 275.48V274.64H155.09V277.12H157.59V279.46H155.09V284.12C155.09 284.48 155.15 284.787 155.27 285.04C155.404 285.293 155.604 285.487 155.87 285.62C156.15 285.753 156.504 285.82 156.93 285.82C157.024 285.82 157.13 285.813 157.25 285.8C157.384 285.787 157.51 285.773 157.63 285.76V288C157.444 288.027 157.23 288.053 156.99 288.08C156.75 288.107 156.53 288.12 156.33 288.12ZM165.015 288.24C163.948 288.24 162.975 287.993 162.095 287.5C161.228 287.007 160.535 286.333 160.015 285.48C159.508 284.627 159.255 283.653 159.255 282.56C159.255 281.467 159.508 280.493 160.015 279.64C160.535 278.787 161.228 278.113 162.095 277.62C162.961 277.127 163.935 276.88 165.015 276.88C166.081 276.88 167.048 277.127 167.915 277.62C168.781 278.113 169.468 278.787 169.975 279.64C170.495 280.48 170.755 281.453 170.755 282.56C170.755 283.653 170.495 284.627 169.975 285.48C169.455 286.333 168.761 287.007 167.895 287.5C167.028 287.993 166.068 288.24 165.015 288.24ZM165.015 285.84C165.601 285.84 166.115 285.7 166.555 285.42C167.008 285.14 167.361 284.753 167.615 284.26C167.881 283.753 168.015 283.187 168.015 282.56C168.015 281.92 167.881 281.36 167.615 280.88C167.361 280.387 167.008 280 166.555 279.72C166.115 279.427 165.601 279.28 165.015 279.28C164.415 279.28 163.888 279.427 163.435 279.72C162.981 280 162.621 280.387 162.355 280.88C162.101 281.36 161.975 281.92 161.975 282.56C161.975 283.187 162.101 283.753 162.355 284.26C162.621 284.753 162.981 285.14 163.435 285.42C163.888 285.7 164.415 285.84 165.015 285.84ZM180.756 288.24C179.596 288.24 178.583 287.967 177.716 287.42C176.863 286.86 176.276 286.107 175.956 285.16L177.916 284.22C178.196 284.833 178.583 285.313 179.076 285.66C179.583 286.007 180.143 286.18 180.756 286.18C181.236 286.18 181.616 286.073 181.896 285.86C182.176 285.647 182.316 285.367 182.316 285.02C182.316 284.807 182.256 284.633 182.136 284.5C182.029 284.353 181.876 284.233 181.676 284.14C181.489 284.033 181.283 283.947 181.056 283.88L179.276 283.38C178.356 283.113 177.656 282.707 177.176 282.16C176.709 281.613 176.476 280.967 176.476 280.22C176.476 279.553 176.643 278.973 176.976 278.48C177.323 277.973 177.796 277.58 178.396 277.3C179.009 277.02 179.709 276.88 180.496 276.88C181.523 276.88 182.429 277.127 183.216 277.62C184.003 278.113 184.563 278.807 184.896 279.7L182.896 280.64C182.709 280.147 182.396 279.753 181.956 279.46C181.516 279.167 181.023 279.02 180.476 279.02C180.036 279.02 179.689 279.12 179.436 279.32C179.183 279.52 179.056 279.78 179.056 280.1C179.056 280.3 179.109 280.473 179.216 280.62C179.323 280.767 179.469 280.887 179.656 280.98C179.856 281.073 180.083 281.16 180.336 281.24L182.076 281.76C182.969 282.027 183.656 282.427 184.136 282.96C184.629 283.493 184.876 284.147 184.876 284.92C184.876 285.573 184.703 286.153 184.356 286.66C184.009 287.153 183.529 287.54 182.916 287.82C182.303 288.1 181.583 288.24 180.756 288.24ZM190.93 288.24C190.09 288.24 189.356 288.053 188.73 287.68C188.116 287.307 187.643 286.787 187.31 286.12C186.99 285.453 186.83 284.673 186.83 283.78V277.12H189.45V283.56C189.45 284.013 189.536 284.413 189.71 284.76C189.896 285.093 190.156 285.36 190.49 285.56C190.836 285.747 191.223 285.84 191.65 285.84C192.076 285.84 192.456 285.747 192.79 285.56C193.123 285.36 193.383 285.087 193.57 284.74C193.756 284.393 193.85 283.98 193.85 283.5V277.12H196.47V288H193.99V285.86L194.21 286.24C193.956 286.907 193.536 287.407 192.95 287.74C192.376 288.073 191.703 288.24 190.93 288.24ZM199.065 292V277.12H201.525V279.28L201.285 278.74C201.658 278.153 202.165 277.7 202.805 277.38C203.445 277.047 204.185 276.88 205.025 276.88C206.052 276.88 206.978 277.133 207.805 277.64C208.632 278.147 209.285 278.827 209.765 279.68C210.258 280.533 210.505 281.493 210.505 282.56C210.505 283.613 210.265 284.573 209.785 285.44C209.305 286.307 208.652 286.993 207.825 287.5C206.998 287.993 206.058 288.24 205.005 288.24C204.218 288.24 203.492 288.087 202.825 287.78C202.172 287.46 201.652 287.007 201.265 286.42L201.685 285.9V292H199.065ZM204.705 285.84C205.305 285.84 205.838 285.7 206.305 285.42C206.772 285.14 207.132 284.753 207.385 284.26C207.652 283.767 207.785 283.2 207.785 282.56C207.785 281.92 207.652 281.36 207.385 280.88C207.132 280.387 206.772 280 206.305 279.72C205.838 279.427 205.305 279.28 204.705 279.28C204.132 279.28 203.612 279.42 203.145 279.7C202.692 279.98 202.332 280.373 202.065 280.88C201.812 281.373 201.685 281.933 201.685 282.56C201.685 283.2 201.812 283.767 202.065 284.26C202.332 284.753 202.692 285.14 203.145 285.42C203.612 285.7 204.132 285.84 204.705 285.84ZM212.662 292V277.12H215.122V279.28L214.882 278.74C215.256 278.153 215.762 277.7 216.402 277.38C217.042 277.047 217.782 276.88 218.622 276.88C219.649 276.88 220.576 277.133 221.402 277.64C222.229 278.147 222.882 278.827 223.362 279.68C223.856 280.533 224.102 281.493 224.102 282.56C224.102 283.613 223.862 284.573 223.382 285.44C222.902 286.307 222.249 286.993 221.422 287.5C220.596 287.993 219.656 288.24 218.602 288.24C217.816 288.24 217.089 288.087 216.422 287.78C215.769 287.46 215.249 287.007 214.862 286.42L215.282 285.9V292H212.662ZM218.302 285.84C218.902 285.84 219.436 285.7 219.902 285.42C220.369 285.14 220.729 284.753 220.982 284.26C221.249 283.767 221.382 283.2 221.382 282.56C221.382 281.92 221.249 281.36 220.982 280.88C220.729 280.387 220.369 280 219.902 279.72C219.436 279.427 218.902 279.28 218.302 279.28C217.729 279.28 217.209 279.42 216.742 279.7C216.289 279.98 215.929 280.373 215.662 280.88C215.409 281.373 215.282 281.933 215.282 282.56C215.282 283.2 215.409 283.767 215.662 284.26C215.929 284.753 216.289 285.14 216.742 285.42C217.209 285.7 217.729 285.84 218.302 285.84ZM231.58 288.24C230.513 288.24 229.54 287.993 228.66 287.5C227.793 287.007 227.1 286.333 226.58 285.48C226.073 284.627 225.82 283.653 225.82 282.56C225.82 281.467 226.073 280.493 226.58 279.64C227.1 278.787 227.793 278.113 228.66 277.62C229.527 277.127 230.5 276.88 231.58 276.88C232.647 276.88 233.613 277.127 234.48 277.62C235.347 278.113 236.033 278.787 236.54 279.64C237.06 280.48 237.32 281.453 237.32 282.56C237.32 283.653 237.06 284.627 236.54 285.48C236.02 286.333 235.327 287.007 234.46 287.5C233.593 287.993 232.633 288.24 231.58 288.24ZM231.58 285.84C232.167 285.84 232.68 285.7 233.12 285.42C233.573 285.14 233.927 284.753 234.18 284.26C234.447 283.753 234.58 283.187 234.58 282.56C234.58 281.92 234.447 281.36 234.18 280.88C233.927 280.387 233.573 280 233.12 279.72C232.68 279.427 232.167 279.28 231.58 279.28C230.98 279.28 230.453 279.427 230 279.72C229.547 280 229.187 280.387 228.92 280.88C228.667 281.36 228.54 281.92 228.54 282.56C228.54 283.187 228.667 283.753 228.92 284.26C229.187 284.753 229.547 285.14 230 285.42C230.453 285.7 230.98 285.84 231.58 285.84ZM239.467 288V277.12H241.927V279.54L241.727 279.18C241.98 278.367 242.374 277.8 242.907 277.48C243.454 277.16 244.107 277 244.867 277H245.507V279.32H244.567C243.82 279.32 243.22 279.553 242.767 280.02C242.314 280.473 242.087 281.113 242.087 281.94V288H239.467ZM252.36 288.12C251.134 288.12 250.18 287.787 249.5 287.12C248.834 286.44 248.5 285.487 248.5 284.26V279.46H246.62V277.12H246.82C247.354 277.12 247.767 276.98 248.06 276.7C248.354 276.42 248.5 276.013 248.5 275.48V274.64H251.12V277.12H253.62V279.46H251.12V284.12C251.12 284.48 251.18 284.787 251.3 285.04C251.434 285.293 251.634 285.487 251.9 285.62C252.18 285.753 252.534 285.82 252.96 285.82C253.054 285.82 253.16 285.813 253.28 285.8C253.414 285.787 253.54 285.773 253.66 285.76V288C253.474 288.027 253.26 288.053 253.02 288.08C252.78 288.107 252.56 288.12 252.36 288.12ZM260.857 292.42C260.563 292.42 260.277 292.393 259.997 292.34C259.717 292.3 259.463 292.227 259.237 292.12V289.92C259.41 289.96 259.617 290 259.857 290.04C260.11 290.08 260.343 290.1 260.557 290.1C261.157 290.1 261.59 289.96 261.857 289.68C262.137 289.4 262.383 289.033 262.597 288.58L263.317 286.9L263.277 289.1L258.537 277.12H261.357L264.677 285.96H263.677L266.977 277.12H269.817L265.077 289.1C264.797 289.807 264.457 290.407 264.057 290.9C263.657 291.393 263.19 291.767 262.657 292.02C262.137 292.287 261.537 292.42 260.857 292.42ZM276.54 288.24C275.473 288.24 274.5 287.993 273.62 287.5C272.753 287.007 272.06 286.333 271.54 285.48C271.033 284.627 270.78 283.653 270.78 282.56C270.78 281.467 271.033 280.493 271.54 279.64C272.06 278.787 272.753 278.113 273.62 277.62C274.487 277.127 275.46 276.88 276.54 276.88C277.607 276.88 278.573 277.127 279.44 277.62C280.307 278.113 280.993 278.787 281.5 279.64C282.02 280.48 282.28 281.453 282.28 282.56C282.28 283.653 282.02 284.627 281.5 285.48C280.98 286.333 280.287 287.007 279.42 287.5C278.553 287.993 277.593 288.24 276.54 288.24ZM276.54 285.84C277.127 285.84 277.64 285.7 278.08 285.42C278.533 285.14 278.887 284.753 279.14 284.26C279.407 283.753 279.54 283.187 279.54 282.56C279.54 281.92 279.407 281.36 279.14 280.88C278.887 280.387 278.533 280 278.08 279.72C277.64 279.427 277.127 279.28 276.54 279.28C275.94 279.28 275.413 279.427 274.96 279.72C274.507 280 274.147 280.387 273.88 280.88C273.627 281.36 273.5 281.92 273.5 282.56C273.5 283.187 273.627 283.753 273.88 284.26C274.147 284.753 274.507 285.14 274.96 285.42C275.413 285.7 275.94 285.84 276.54 285.84ZM288.307 288.24C287.467 288.24 286.734 288.053 286.107 287.68C285.494 287.307 285.02 286.787 284.687 286.12C284.367 285.453 284.207 284.673 284.207 283.78V277.12H286.827V283.56C286.827 284.013 286.914 284.413 287.087 284.76C287.274 285.093 287.534 285.36 287.867 285.56C288.214 285.747 288.6 285.84 289.027 285.84C289.454 285.84 289.834 285.747 290.167 285.56C290.5 285.36 290.76 285.087 290.947 284.74C291.134 284.393 291.227 283.98 291.227 283.5V277.12H293.847V288H291.367V285.86L291.587 286.24C291.334 286.907 290.914 287.407 290.327 287.74C289.754 288.073 289.08 288.24 288.307 288.24ZM296.443 288V277.12H298.903V279.54L298.703 279.18C298.956 278.367 299.349 277.8 299.883 277.48C300.429 277.16 301.083 277 301.843 277H302.483V279.32H301.543C300.796 279.32 300.196 279.553 299.743 280.02C299.289 280.473 299.063 281.113 299.063 281.94V288H296.443ZM10.2359 324V309.12H12.6959V311.28L12.4559 310.74C12.8292 310.153 13.3359 309.7 13.9759 309.38C14.6159 309.047 15.3559 308.88 16.1959 308.88C17.2225 308.88 18.1492 309.133 18.9759 309.64C19.8025 310.147 20.4559 310.827 20.9359 311.68C21.4292 312.533 21.6759 313.493 21.6759 314.56C21.6759 315.613 21.4359 316.573 20.9559 317.44C20.4759 318.307 19.8225 318.993 18.9959 319.5C18.1692 319.993 17.2292 320.24 16.1759 320.24C15.3892 320.24 14.6625 320.087 13.9959 319.78C13.3425 319.46 12.8225 319.007 12.4359 318.42L12.8559 317.9V324H10.2359ZM15.8759 317.84C16.4759 317.84 17.0092 317.7 17.4759 317.42C17.9425 317.14 18.3025 316.753 18.5559 316.26C18.8225 315.767 18.9559 315.2 18.9559 314.56C18.9559 313.92 18.8225 313.36 18.5559 312.88C18.3025 312.387 17.9425 312 17.4759 311.72C17.0092 311.427 16.4759 311.28 15.8759 311.28C15.3025 311.28 14.7825 311.42 14.3159 311.7C13.8625 311.98 13.5025 312.373 13.2359 312.88C12.9825 313.373 12.8559 313.933 12.8559 314.56C12.8559 315.2 12.9825 315.767 13.2359 316.26C13.5025 316.753 13.8625 317.14 14.3159 317.42C14.7825 317.7 15.3025 317.84 15.8759 317.84ZM23.8334 320V309.12H26.2934V311.54L26.0934 311.18C26.3467 310.367 26.74 309.8 27.2734 309.48C27.82 309.16 28.4734 309 29.2334 309H29.8734V311.32H28.9334C28.1867 311.32 27.5867 311.553 27.1334 312.02C26.68 312.473 26.4534 313.113 26.4534 313.94V320H23.8334ZM36.7938 320.24C35.7272 320.24 34.7538 319.993 33.8738 319.5C33.0072 319.007 32.3138 318.333 31.7938 317.48C31.2872 316.627 31.0338 315.653 31.0338 314.56C31.0338 313.467 31.2872 312.493 31.7938 311.64C32.3138 310.787 33.0072 310.113 33.8738 309.62C34.7405 309.127 35.7138 308.88 36.7938 308.88C37.8605 308.88 38.8272 309.127 39.6938 309.62C40.5605 310.113 41.2472 310.787 41.7538 311.64C42.2738 312.48 42.5338 313.453 42.5338 314.56C42.5338 315.653 42.2738 316.627 41.7538 317.48C41.2338 318.333 40.5405 319.007 39.6738 319.5C38.8072 319.993 37.8472 320.24 36.7938 320.24ZM36.7938 317.84C37.3805 317.84 37.8938 317.7 38.3338 317.42C38.7872 317.14 39.1405 316.753 39.3938 316.26C39.6605 315.753 39.7938 315.187 39.7938 314.56C39.7938 313.92 39.6605 313.36 39.3938 312.88C39.1405 312.387 38.7872 312 38.3338 311.72C37.8938 311.427 37.3805 311.28 36.7938 311.28C36.1938 311.28 35.6672 311.427 35.2138 311.72C34.7605 312 34.4005 312.387 34.1338 312.88C33.8805 313.36 33.7538 313.92 33.7538 314.56C33.7538 315.187 33.8805 315.753 34.1338 316.26C34.4005 316.753 34.7605 317.14 35.2138 317.42C35.6672 317.7 36.1938 317.84 36.7938 317.84ZM43.1807 324.42C43.0074 324.42 42.8274 324.413 42.6407 324.4C42.454 324.387 42.3007 324.367 42.1807 324.34V322.06C42.4207 322.1 42.6607 322.12 42.9007 322.12C43.4607 322.12 43.894 321.987 44.2007 321.72C44.5207 321.467 44.6807 321.073 44.6807 320.54V309.12H47.3007V320.54C47.3007 321.367 47.134 322.067 46.8007 322.64C46.4674 323.227 45.9874 323.667 45.3607 323.96C44.7474 324.267 44.0207 324.42 43.1807 324.42ZM44.6807 307.9V305.1H47.3007V307.9H44.6807ZM55.0398 320.24C53.9198 320.24 52.9398 319.987 52.0998 319.48C51.2598 318.973 50.6064 318.287 50.1398 317.42C49.6731 316.553 49.4398 315.593 49.4398 314.54C49.4398 313.447 49.6731 312.48 50.1398 311.64C50.6198 310.787 51.2664 310.113 52.0798 309.62C52.9064 309.127 53.8264 308.88 54.8398 308.88C55.6931 308.88 56.4398 309.02 57.0798 309.3C57.7331 309.58 58.2864 309.967 58.7398 310.46C59.1931 310.953 59.5398 311.52 59.7798 312.16C60.0198 312.787 60.1398 313.467 60.1398 314.2C60.1398 314.387 60.1264 314.58 60.0998 314.78C60.0864 314.98 60.0531 315.153 59.9998 315.3H51.5998V313.3H58.5198L57.2798 314.24C57.3998 313.627 57.3664 313.08 57.1798 312.6C57.0064 312.12 56.7131 311.74 56.2998 311.46C55.8998 311.18 55.4131 311.04 54.8398 311.04C54.2931 311.04 53.8064 311.18 53.3798 311.46C52.9531 311.727 52.6264 312.127 52.3998 312.66C52.1864 313.18 52.1064 313.813 52.1598 314.56C52.1064 315.227 52.1931 315.82 52.4198 316.34C52.6598 316.847 53.0064 317.24 53.4598 317.52C53.9264 317.8 54.4598 317.94 55.0598 317.94C55.6598 317.94 56.1664 317.813 56.5798 317.56C57.0064 317.307 57.3398 316.967 57.5798 316.54L59.6998 317.58C59.4864 318.1 59.1531 318.56 58.6998 318.96C58.2464 319.36 57.7064 319.673 57.0798 319.9C56.4664 320.127 55.7864 320.24 55.0398 320.24ZM67.5259 320.24C66.4459 320.24 65.4725 319.993 64.6059 319.5C63.7525 318.993 63.0792 318.313 62.5859 317.46C62.0925 316.593 61.8459 315.62 61.8459 314.54C61.8459 313.46 62.0925 312.493 62.5859 311.64C63.0792 310.787 63.7525 310.113 64.6059 309.62C65.4725 309.127 66.4459 308.88 67.5259 308.88C68.2992 308.88 69.0192 309.02 69.6859 309.3C70.3525 309.567 70.9259 309.94 71.4059 310.42C71.8992 310.887 72.2525 311.447 72.4659 312.1L70.1659 313.1C69.9659 312.553 69.6259 312.113 69.1459 311.78C68.6792 311.447 68.1392 311.28 67.5259 311.28C66.9525 311.28 66.4392 311.42 65.9859 311.7C65.5459 311.98 65.1992 312.367 64.9459 312.86C64.6925 313.353 64.5659 313.92 64.5659 314.56C64.5659 315.2 64.6925 315.767 64.9459 316.26C65.1992 316.753 65.5459 317.14 65.9859 317.42C66.4392 317.7 66.9525 317.84 67.5259 317.84C68.1525 317.84 68.6992 317.673 69.1659 317.34C69.6325 317.007 69.9659 316.56 70.1659 316L72.4659 317.04C72.2525 317.653 71.9059 318.207 71.4259 318.7C70.9459 319.18 70.3725 319.56 69.7059 319.84C69.0392 320.107 68.3125 320.24 67.5259 320.24ZM79.5738 320.12C78.3472 320.12 77.3938 319.787 76.7138 319.12C76.0472 318.44 75.7138 317.487 75.7138 316.26V311.46H73.8338V309.12H74.0338C74.5672 309.12 74.9805 308.98 75.2738 308.7C75.5672 308.42 75.7138 308.013 75.7138 307.48V306.64H78.3338V309.12H80.8338V311.46H78.3338V316.12C78.3338 316.48 78.3938 316.787 78.5138 317.04C78.6472 317.293 78.8472 317.487 79.1138 317.62C79.3938 317.753 79.7472 317.82 80.1738 317.82C80.2672 317.82 80.3738 317.813 80.4938 317.8C80.6272 317.787 80.7538 317.773 80.8738 317.76V320C80.6872 320.027 80.4738 320.053 80.2338 320.08C79.9938 320.107 79.7738 320.12 79.5738 320.12ZM88.0102 320V311.46H86.0902V309.12H88.0102V308.76C88.0102 307.933 88.1769 307.233 88.5102 306.66C88.8569 306.073 89.3369 305.627 89.9502 305.32C90.5636 305.013 91.2902 304.86 92.1302 304.86C92.2902 304.86 92.4636 304.873 92.6502 304.9C92.8502 304.913 93.0169 304.933 93.1502 304.96V307.22C93.0169 307.193 92.8902 307.18 92.7702 307.18C92.6636 307.167 92.5636 307.16 92.4702 307.16C91.8836 307.16 91.4302 307.293 91.1102 307.56C90.7902 307.813 90.6302 308.213 90.6302 308.76V309.12H93.0502V311.46H90.6302V320H88.0102ZM100.062 320.24C98.9956 320.24 98.0223 319.993 97.1423 319.5C96.2756 319.007 95.5823 318.333 95.0623 317.48C94.5556 316.627 94.3023 315.653 94.3023 314.56C94.3023 313.467 94.5556 312.493 95.0623 311.64C95.5823 310.787 96.2756 310.113 97.1423 309.62C98.0089 309.127 98.9823 308.88 100.062 308.88C101.129 308.88 102.096 309.127 102.962 309.62C103.829 310.113 104.516 310.787 105.022 311.64C105.542 312.48 105.802 313.453 105.802 314.56C105.802 315.653 105.542 316.627 105.022 317.48C104.502 318.333 103.809 319.007 102.942 319.5C102.076 319.993 101.116 320.24 100.062 320.24ZM100.062 317.84C100.649 317.84 101.162 317.7 101.602 317.42C102.056 317.14 102.409 316.753 102.662 316.26C102.929 315.753 103.062 315.187 103.062 314.56C103.062 313.92 102.929 313.36 102.662 312.88C102.409 312.387 102.056 312 101.602 311.72C101.162 311.427 100.649 311.28 100.062 311.28C99.4623 311.28 98.9356 311.427 98.4823 311.72C98.0289 312 97.6689 312.387 97.4023 312.88C97.1489 313.36 97.0223 313.92 97.0223 314.56C97.0223 315.187 97.1489 315.753 97.4023 316.26C97.6689 316.753 98.0289 317.14 98.4823 317.42C98.9356 317.7 99.4623 317.84 100.062 317.84ZM107.949 320V309.12H110.409V311.54L110.209 311.18C110.462 310.367 110.856 309.8 111.389 309.48C111.936 309.16 112.589 309 113.349 309H113.989V311.32H113.049C112.302 311.32 111.702 311.553 111.249 312.02C110.796 312.473 110.569 313.113 110.569 313.94V320H107.949ZM120.624 324.42C120.331 324.42 120.044 324.393 119.764 324.34C119.484 324.3 119.231 324.227 119.004 324.12V321.92C119.178 321.96 119.384 322 119.624 322.04C119.878 322.08 120.111 322.1 120.324 322.1C120.924 322.1 121.358 321.96 121.624 321.68C121.904 321.4 122.151 321.033 122.364 320.58L123.084 318.9L123.044 321.1L118.304 309.12H121.124L124.444 317.96H123.444L126.744 309.12H129.584L124.844 321.1C124.564 321.807 124.224 322.407 123.824 322.9C123.424 323.393 122.958 323.767 122.424 324.02C121.904 324.287 121.304 324.42 120.624 324.42ZM136.308 320.24C135.241 320.24 134.268 319.993 133.388 319.5C132.521 319.007 131.828 318.333 131.308 317.48C130.801 316.627 130.548 315.653 130.548 314.56C130.548 313.467 130.801 312.493 131.308 311.64C131.828 310.787 132.521 310.113 133.388 309.62C134.254 309.127 135.228 308.88 136.308 308.88C137.374 308.88 138.341 309.127 139.208 309.62C140.074 310.113 140.761 310.787 141.268 311.64C141.788 312.48 142.048 313.453 142.048 314.56C142.048 315.653 141.788 316.627 141.268 317.48C140.748 318.333 140.054 319.007 139.188 319.5C138.321 319.993 137.361 320.24 136.308 320.24ZM136.308 317.84C136.894 317.84 137.408 317.7 137.848 317.42C138.301 317.14 138.654 316.753 138.908 316.26C139.174 315.753 139.308 315.187 139.308 314.56C139.308 313.92 139.174 313.36 138.908 312.88C138.654 312.387 138.301 312 137.848 311.72C137.408 311.427 136.894 311.28 136.308 311.28C135.708 311.28 135.181 311.427 134.728 311.72C134.274 312 133.914 312.387 133.648 312.88C133.394 313.36 133.268 313.92 133.268 314.56C133.268 315.187 133.394 315.753 133.648 316.26C133.914 316.753 134.274 317.14 134.728 317.42C135.181 317.7 135.708 317.84 136.308 317.84ZM148.075 320.24C147.235 320.24 146.501 320.053 145.875 319.68C145.261 319.307 144.788 318.787 144.455 318.12C144.135 317.453 143.975 316.673 143.975 315.78V309.12H146.595V315.56C146.595 316.013 146.681 316.413 146.855 316.76C147.041 317.093 147.301 317.36 147.635 317.56C147.981 317.747 148.368 317.84 148.795 317.84C149.221 317.84 149.601 317.747 149.935 317.56C150.268 317.36 150.528 317.087 150.715 316.74C150.901 316.393 150.995 315.98 150.995 315.5V309.12H153.615V320H151.135V317.86L151.355 318.24C151.101 318.907 150.681 319.407 150.095 319.74C149.521 320.073 148.848 320.24 148.075 320.24ZM163.225 320.24C162.465 320.24 161.805 320.113 161.245 319.86C160.685 319.607 160.251 319.247 159.945 318.78C159.638 318.3 159.485 317.747 159.485 317.12C159.485 316.52 159.618 315.987 159.885 315.52C160.151 315.04 160.565 314.64 161.125 314.32C161.685 314 162.391 313.773 163.245 313.64L166.805 313.06V315.06L163.745 315.58C163.225 315.673 162.838 315.84 162.585 316.08C162.331 316.32 162.205 316.633 162.205 317.02C162.205 317.393 162.345 317.693 162.625 317.92C162.918 318.133 163.278 318.24 163.705 318.24C164.251 318.24 164.731 318.127 165.145 317.9C165.571 317.66 165.898 317.333 166.125 316.92C166.365 316.507 166.485 316.053 166.485 315.56V312.76C166.485 312.293 166.298 311.907 165.925 311.6C165.565 311.28 165.085 311.12 164.485 311.12C163.925 311.12 163.425 311.273 162.985 311.58C162.558 311.873 162.245 312.267 162.045 312.76L159.905 311.72C160.118 311.147 160.451 310.653 160.905 310.24C161.371 309.813 161.918 309.48 162.545 309.24C163.171 309 163.851 308.88 164.585 308.88C165.478 308.88 166.265 309.047 166.945 309.38C167.625 309.7 168.151 310.153 168.525 310.74C168.911 311.313 169.105 311.987 169.105 312.76V320H166.625V318.14L167.185 318.1C166.905 318.567 166.571 318.96 166.185 319.28C165.798 319.587 165.358 319.827 164.865 320C164.371 320.16 163.825 320.24 163.225 320.24ZM171.686 320V309.12H174.146V311.26L173.946 310.88C174.2 310.227 174.613 309.733 175.186 309.4C175.773 309.053 176.453 308.88 177.226 308.88C178.026 308.88 178.733 309.053 179.346 309.4C179.973 309.747 180.46 310.233 180.806 310.86C181.153 311.473 181.326 312.187 181.326 313V320H178.706V313.62C178.706 313.14 178.613 312.727 178.426 312.38C178.24 312.033 177.98 311.767 177.646 311.58C177.326 311.38 176.946 311.28 176.506 311.28C176.08 311.28 175.7 311.38 175.366 311.58C175.033 311.767 174.773 312.033 174.586 312.38C174.4 312.727 174.306 313.14 174.306 313.62V320H171.686ZM188.762 320.24C187.708 320.24 186.768 319.993 185.942 319.5C185.115 318.993 184.462 318.307 183.982 317.44C183.502 316.573 183.262 315.613 183.262 314.56C183.262 313.493 183.502 312.533 183.982 311.68C184.462 310.827 185.115 310.147 185.942 309.64C186.782 309.133 187.715 308.88 188.742 308.88C189.568 308.88 190.302 309.047 190.942 309.38C191.595 309.7 192.108 310.153 192.482 310.74L192.082 311.28V304.86H194.702V320H192.222V317.9L192.502 318.42C192.128 319.007 191.608 319.46 190.942 319.78C190.275 320.087 189.548 320.24 188.762 320.24ZM189.042 317.84C189.642 317.84 190.168 317.7 190.622 317.42C191.075 317.14 191.428 316.753 191.682 316.26C191.948 315.767 192.082 315.2 192.082 314.56C192.082 313.933 191.948 313.373 191.682 312.88C191.428 312.373 191.075 311.98 190.622 311.7C190.168 311.42 189.642 311.28 189.042 311.28C188.455 311.28 187.928 311.427 187.462 311.72C186.995 312 186.628 312.387 186.362 312.88C186.108 313.36 185.982 313.92 185.982 314.56C185.982 315.2 186.108 315.767 186.362 316.26C186.628 316.753 186.995 317.14 187.462 317.42C187.928 317.7 188.455 317.84 189.042 317.84ZM202.334 324.42C202.041 324.42 201.754 324.393 201.474 324.34C201.194 324.3 200.941 324.227 200.714 324.12V321.92C200.887 321.96 201.094 322 201.334 322.04C201.587 322.08 201.821 322.1 202.034 322.1C202.634 322.1 203.067 321.96 203.334 321.68C203.614 321.4 203.861 321.033 204.074 320.58L204.794 318.9L204.754 321.1L200.014 309.12H202.834L206.154 317.96H205.154L208.454 309.12H211.294L206.554 321.1C206.274 321.807 205.934 322.407 205.534 322.9C205.134 323.393 204.667 323.767 204.134 324.02C203.614 324.287 203.014 324.42 202.334 324.42ZM218.017 320.24C216.951 320.24 215.977 319.993 215.097 319.5C214.231 319.007 213.537 318.333 213.017 317.48C212.511 316.627 212.257 315.653 212.257 314.56C212.257 313.467 212.511 312.493 213.017 311.64C213.537 310.787 214.231 310.113 215.097 309.62C215.964 309.127 216.937 308.88 218.017 308.88C219.084 308.88 220.051 309.127 220.917 309.62C221.784 310.113 222.471 310.787 222.977 311.64C223.497 312.48 223.757 313.453 223.757 314.56C223.757 315.653 223.497 316.627 222.977 317.48C222.457 318.333 221.764 319.007 220.897 319.5C220.031 319.993 219.071 320.24 218.017 320.24ZM218.017 317.84C218.604 317.84 219.117 317.7 219.557 317.42C220.011 317.14 220.364 316.753 220.617 316.26C220.884 315.753 221.017 315.187 221.017 314.56C221.017 313.92 220.884 313.36 220.617 312.88C220.364 312.387 220.011 312 219.557 311.72C219.117 311.427 218.604 311.28 218.017 311.28C217.417 311.28 216.891 311.427 216.437 311.72C215.984 312 215.624 312.387 215.357 312.88C215.104 313.36 214.977 313.92 214.977 314.56C214.977 315.187 215.104 315.753 215.357 316.26C215.624 316.753 215.984 317.14 216.437 317.42C216.891 317.7 217.417 317.84 218.017 317.84ZM229.784 320.24C228.944 320.24 228.211 320.053 227.584 319.68C226.971 319.307 226.498 318.787 226.164 318.12C225.844 317.453 225.684 316.673 225.684 315.78V309.12H228.304V315.56C228.304 316.013 228.391 316.413 228.564 316.76C228.751 317.093 229.011 317.36 229.344 317.56C229.691 317.747 230.078 317.84 230.504 317.84C230.931 317.84 231.311 317.747 231.644 317.56C231.978 317.36 232.238 317.087 232.424 316.74C232.611 316.393 232.704 315.98 232.704 315.5V309.12H235.324V320H232.844V317.86L233.064 318.24C232.811 318.907 232.391 319.407 231.804 319.74C231.231 320.073 230.558 320.24 229.784 320.24ZM237.92 320V309.12H240.38V311.54L240.18 311.18C240.433 310.367 240.826 309.8 241.36 309.48C241.906 309.16 242.56 309 243.32 309H243.96V311.32H243.02C242.273 311.32 241.673 311.553 241.22 312.02C240.766 312.473 240.54 313.113 240.54 313.94V320H237.92ZM254.235 320.12C253.008 320.12 252.055 319.787 251.375 319.12C250.708 318.44 250.375 317.487 250.375 316.26V311.46H248.495V309.12H248.695C249.228 309.12 249.642 308.98 249.935 308.7C250.228 308.42 250.375 308.013 250.375 307.48V306.64H252.995V309.12H255.495V311.46H252.995V316.12C252.995 316.48 253.055 316.787 253.175 317.04C253.308 317.293 253.508 317.487 253.775 317.62C254.055 317.753 254.408 317.82 254.835 317.82C254.928 317.82 255.035 317.813 255.155 317.8C255.288 317.787 255.415 317.773 255.535 317.76V320C255.348 320.027 255.135 320.053 254.895 320.08C254.655 320.107 254.435 320.12 254.235 320.12ZM262.759 320.24C261.639 320.24 260.659 319.987 259.819 319.48C258.979 318.973 258.326 318.287 257.859 317.42C257.392 316.553 257.159 315.593 257.159 314.54C257.159 313.447 257.392 312.48 257.859 311.64C258.339 310.787 258.986 310.113 259.799 309.62C260.626 309.127 261.546 308.88 262.559 308.88C263.412 308.88 264.159 309.02 264.799 309.3C265.452 309.58 266.006 309.967 266.459 310.46C266.912 310.953 267.259 311.52 267.499 312.16C267.739 312.787 267.859 313.467 267.859 314.2C267.859 314.387 267.846 314.58 267.819 314.78C267.806 314.98 267.772 315.153 267.719 315.3H259.319V313.3H266.239L264.999 314.24C265.119 313.627 265.086 313.08 264.899 312.6C264.726 312.12 264.432 311.74 264.019 311.46C263.619 311.18 263.132 311.04 262.559 311.04C262.012 311.04 261.526 311.18 261.099 311.46C260.672 311.727 260.346 312.127 260.119 312.66C259.906 313.18 259.826 313.813 259.879 314.56C259.826 315.227 259.912 315.82 260.139 316.34C260.379 316.847 260.726 317.24 261.179 317.52C261.646 317.8 262.179 317.94 262.779 317.94C263.379 317.94 263.886 317.813 264.299 317.56C264.726 317.307 265.059 316.967 265.299 316.54L267.419 317.58C267.206 318.1 266.872 318.56 266.419 318.96C265.966 319.36 265.426 319.673 264.799 319.9C264.186 320.127 263.506 320.24 262.759 320.24ZM273.266 320.24C272.506 320.24 271.846 320.113 271.286 319.86C270.726 319.607 270.293 319.247 269.986 318.78C269.679 318.3 269.526 317.747 269.526 317.12C269.526 316.52 269.659 315.987 269.926 315.52C270.193 315.04 270.606 314.64 271.166 314.32C271.726 314 272.433 313.773 273.286 313.64L276.846 313.06V315.06L273.786 315.58C273.266 315.673 272.879 315.84 272.626 316.08C272.373 316.32 272.246 316.633 272.246 317.02C272.246 317.393 272.386 317.693 272.666 317.92C272.959 318.133 273.319 318.24 273.746 318.24C274.293 318.24 274.773 318.127 275.186 317.9C275.613 317.66 275.939 317.333 276.166 316.92C276.406 316.507 276.526 316.053 276.526 315.56V312.76C276.526 312.293 276.339 311.907 275.966 311.6C275.606 311.28 275.126 311.12 274.526 311.12C273.966 311.12 273.466 311.273 273.026 311.58C272.599 311.873 272.286 312.267 272.086 312.76L269.946 311.72C270.159 311.147 270.493 310.653 270.946 310.24C271.413 309.813 271.959 309.48 272.586 309.24C273.213 309 273.893 308.88 274.626 308.88C275.519 308.88 276.306 309.047 276.986 309.38C277.666 309.7 278.193 310.153 278.566 310.74C278.953 311.313 279.146 311.987 279.146 312.76V320H276.666V318.14L277.226 318.1C276.946 318.567 276.613 318.96 276.226 319.28C275.839 319.587 275.399 319.827 274.906 320C274.413 320.16 273.866 320.24 273.266 320.24ZM281.728 320V309.12H284.188V311.64L283.908 311.22C284.108 310.433 284.508 309.847 285.108 309.46C285.708 309.073 286.414 308.88 287.228 308.88C288.121 308.88 288.908 309.113 289.588 309.58C290.268 310.047 290.708 310.66 290.908 311.42L290.168 311.48C290.501 310.613 291.001 309.967 291.668 309.54C292.334 309.1 293.101 308.88 293.968 308.88C294.741 308.88 295.428 309.053 296.028 309.4C296.641 309.747 297.121 310.233 297.468 310.86C297.814 311.473 297.988 312.187 297.988 313V320H295.368V313.62C295.368 313.14 295.281 312.727 295.108 312.38C294.934 312.033 294.694 311.767 294.388 311.58C294.081 311.38 293.708 311.28 293.268 311.28C292.854 311.28 292.488 311.38 292.168 311.58C291.848 311.767 291.601 312.033 291.428 312.38C291.254 312.727 291.168 313.14 291.168 313.62V320H288.548V313.62C288.548 313.14 288.461 312.727 288.288 312.38C288.114 312.033 287.868 311.767 287.548 311.58C287.241 311.38 286.874 311.28 286.448 311.28C286.034 311.28 285.668 311.38 285.348 311.58C285.028 311.767 284.781 312.033 284.608 312.38C284.434 312.727 284.348 313.14 284.348 313.62V320H281.728Z" fill="#202124"/>
</svg>
