<svg width="308" height="296" viewBox="0 0 308 296" fill="none" xmlns="http://www.w3.org/2000/svg">
<path d="M151.88 146.84L117.96 136.56C117.08 136.28 116.16 136.28 115.28 136.48L99.64 140.2C96.4 140.96 93.28 138.48 93.4 135.16L95.04 90.5201C95.12 88.0801 93.44 85.9201 91 85.4401L49.12 77C45.72 76.32 42.64 79.16 43.12 82.56L53.28 157.6C53.32 157.96 53.44 158.32 53.56 158.68C53.52 158.8 53.52 158.92 53.56 159.04C54.76 166 60.8 202.8 61.76 208.72C61.84 209.2 62.24 209.52 62.72 209.52H64.72C65.28 209.52 65.76 209 65.68 208.44L60.28 163.72L87.68 178.52C89.04 192.04 91.32 215.36 91.76 219.96C91.8 220.44 92.2 220.8 92.64 220.84L94.64 220.96C95.2 221 95.68 220.52 95.68 219.96L93.4 178.68L114.24 170.72C115.24 179.48 116.16 187.8 116.44 190.2C116.48 190.6 116.84 190.92 117.28 190.92L119.16 191.04C119.72 191.08 120.16 190.68 120.12 190.2L118.72 169L148.2 157.76C147.72 170.96 146.72 196.4 146.52 201.28C146.52 201.76 146.84 202.16 147.28 202.24L149.24 202.64C149.8 202.76 150.36 202.36 150.4 201.76L154.2 154.8C156.44 152.36 155.6 147.96 151.88 146.84Z" fill="#D6D6D6"/>
<path d="M85.8 87.52C83.56 93.12 83.96 99.52 83.84 105.44C83.68 112.2 83.6 118.96 83.56 125.72C83.52 139.36 83.72 153 84.16 166.64C84.16 166.84 84.48 166.84 84.48 166.64C84.04 153.28 83.84 139.88 83.88 126.52C83.92 119.88 84 113.28 84.12 106.64C84.24 100.4 83.76 93.52 86.12 87.6C86.16 87.4 85.84 87.36 85.8 87.52Z" fill="white"/>
<path d="M90 171.24C110.52 165.44 130.68 158.64 150.52 150.8C150.68 150.72 150.64 150.44 150.44 150.52C130.64 158.36 110.44 165.16 89.92 170.96C89.76 171 89.8 171.28 90 171.24Z" fill="white"/>
<path d="M89.64 135.76C89.88 145.2 90.12 154.64 90.4 164.12C90.4 164.32 90.72 164.32 90.72 164.12C90.48 154.68 90.24 145.24 89.96 135.76C89.92 135.56 89.6 135.56 89.64 135.76Z" fill="white"/>
<path d="M183.28 185.56C184.8 186.76 186.36 187.96 187.88 189.16C189.36 187.88 190.92 186.32 192.48 184.44C195.64 180.64 197.64 176.84 198.88 173.84C198.16 173.88 197.44 173.96 196.68 174.12C191.04 175.24 187.32 179.04 185.4 181.4C184.72 182.8 184 184.2 183.28 185.56Z" fill="#EB506E"/>
<path d="M162 181.84C161.76 183.76 161.52 185.72 161.28 187.64C163.12 188.24 165.28 188.8 167.68 189.16C172.6 189.92 176.84 189.68 180.08 189.2C179.68 188.6 179.24 188.04 178.72 187.44C174.88 183.2 169.68 181.92 166.68 181.52C165.08 181.64 163.56 181.72 162 181.84Z" fill="#EB506E"/>
<path d="M99.6 140.8C99.6 141.32 99.56 141.84 99.56 142.36C99.28 144.88 99.12 147.04 99 148.6C98.96 149.16 98.84 153 99.2 157.84C99.32 159.2 99.44 160.56 100.44 161.64C101.28 162.6 102.4 162.96 103.84 163.24C108.36 164.12 112.52 163.24 113.2 163.12C116.96 162.4 120.84 162.36 124.6 161.68C131.36 160.48 139.36 159.12 149.08 157.48C150 158.88 151.04 160.36 152.2 161.92C153.32 163.36 154.4 164.64 155.48 165.84C156.72 168.92 158 172 159.24 175.12C160.16 177.36 161.04 179.56 161.96 181.8C162.28 182.2 162.76 182.68 163.48 182.88C164.88 183.32 166.64 182.56 167.76 181C167.48 178.8 167.24 176.6 166.96 174.44C170.76 176.92 174.64 179.52 178.52 182.24C180.12 183.36 181.72 184.48 183.28 185.6C183.76 185.16 184.52 184.36 185 183.12C185.24 182.48 185.36 181.92 185.4 181.48C183.68 178.72 182.2 176.44 181.2 174.92C173.84 163.52 170.8 159.48 169.6 157.96C167.92 155.76 166.48 154.04 165.6 153C165.36 151.88 165.04 150.32 164.6 148.44C163.64 144.28 162.64 140.6 161.72 137.52C161.28 136.04 160.68 134.08 159.92 131.8C158.08 130.88 155.48 129.76 152.32 128.76C149.8 128 140.48 125.28 128.84 126.92C113.68 129.04 103.52 137.28 99.6 140.8Z" fill="#4C5BE7"/>
<path d="M149.04 157.16C151.96 163.08 157 167.44 162.24 171.28C168.84 176.08 175.68 180.6 182.56 185.04C182.72 185.16 182.88 184.88 182.72 184.8C176.2 180.6 169.76 176.32 163.44 171.8C157.84 167.8 152.4 163.32 149.28 157.04C149.24 156.84 148.96 157 149.04 157.16Z" fill="white"/>
<path d="M124.72 137.6C131.92 137.6 139.12 137.64 146.32 137.64C150.16 137.64 153.32 138 156.04 141C158.16 143.32 160.12 145.84 162.08 148.28C170.44 158.72 178.04 169.68 184.92 181.12C185 181.28 185.28 181.12 185.16 180.96C178 169.08 170.04 157.68 161.32 146.88C159.28 144.36 157.32 141.52 154.88 139.4C152.84 137.68 150.4 137.36 147.8 137.32C140.12 137.2 132.4 137.28 124.72 137.28C124.52 137.28 124.52 137.6 124.72 137.6Z" fill="white"/>
<path d="M156.12 106.12C157.6 107.2 155.52 192 155.52 192L241.32 212.28L269.76 154.12L272.8 90.4399L156.12 106.12Z" fill="#BCBCBC"/>
<path d="M241.32 212.28L247.2 137.44" stroke="#202124" stroke-width="0.75" stroke-miterlimit="10"/>
<path d="M158.08 167.84C157.96 174.6 157.84 181.4 157.72 188.16L236.68 207.16L238.84 183.4L158.08 167.84Z" fill="#CECECE"/>
<path d="M160.44 138.04C160.32 144.8 160.2 151.6 160.08 158.36L239.04 177.36L241.2 153.6L160.44 138.04Z" fill="#CECECE"/>
<path d="M125.8 133.72C126.8 133.92 189.04 103.32 189.04 103.32V120.36L127.16 157.16L125.8 134.64" fill="#F2F2F2"/>
<path d="M176.12 110.8L172.2 136.48L226.96 147.2L230.2 122.08L189.24 114.72L189.28 112.64L176.12 110.8Z" fill="white" stroke="#202124" stroke-width="0.75" stroke-miterlimit="10"/>
<path d="M172.16 112.28L168.36 138.2L221.12 149.08L224.28 123.68L184.76 116.24L184.8 114.12L172.16 112.28Z" fill="white" stroke="#202124" stroke-width="0.75" stroke-miterlimit="10"/>
<path d="M166.92 113.16L163 142L217.48 154.12L220.72 125.84L183.44 118.28L183.24 115.72L166.92 113.16Z" fill="#709AEE"/>
<path d="M160.76 116.96L156.84 145.84L211.32 157.92L214.56 129.68L173.8 121.4L173.84 119.04L160.76 116.96Z" fill="white" stroke="#202124" stroke-width="0.75" stroke-miterlimit="10"/>
<path d="M155.04 121.28L151.12 150.16L205.6 162.24L208.84 134L171.56 126.4L171.36 123.84L155.04 121.28Z" fill="#EB506E"/>
<path d="M146 127.64L142.08 156.48L196.52 168.6L199.76 140.32L159 132.04L159.04 129.68L146 127.64Z" fill="white" stroke="#202124" stroke-width="0.75" stroke-miterlimit="10"/>
<path d="M194.56 150.48C196.36 149.56 247.36 116.4 247.36 116.4L247.2 135.92L190.92 177.36L194.56 150.48Z" fill="#F2F2F2"/>
<path d="M247.52 119.64L117.6 101.68C117.52 101.08 117.48 100.52 117.4 99.92C132.76 92.64 148.12 85.36 163.44 78.12C199.92 81.6 236.4 85.12 272.88 88.6C272.84 89.2 272.76 89.8 272.72 90.4C264.36 100.16 255.92 109.92 247.52 119.64Z" fill="#D8D8D8"/>
<path d="M247.52 117.84L117.6 99.88L163.48 76.28L272.76 88.6L247.52 117.84Z" fill="#EDEDED"/>
<path d="M203.24 94.36C203.16 94.72 203.04 95.36 203.4 95.84C204.76 97.48 211.76 94.88 211.68 92.92C211.64 91.96 209.88 91.36 209.64 91.28C207.04 90.44 203.72 92.16 203.24 94.36Z" fill="white" stroke="#202124" stroke-width="0.75" stroke-miterlimit="10"/>
<path d="M208.28 91.84C209.12 91.84 209.96 91.92 210.8 92C211 92.04 211 91.72 210.8 91.68C209.96 91.56 209.12 91.52 208.28 91.52C208.08 91.52 208.08 91.8 208.28 91.84Z" fill="#202124"/>
<path d="M207.16 91.4399C208.2 91.7199 209.12 92.1999 209.92 92.8799C210.08 92.9999 210.28 92.7999 210.12 92.6799C209.28 91.9599 208.32 91.4399 207.24 91.1599C207.04 91.1199 206.96 91.3999 207.16 91.4399Z" fill="#202124"/>
<path d="M230 91.4L215.88 91.2L218.36 85.96H228.56L230 91.4Z" fill="#EB506E"/>
<path d="M225.44 88.96C224.92 89.12 224.08 89.32 223.04 89.28C222.12 89.24 221.4 89 220.92 88.8C220.6 85.28 220.28 81.8 219.96 78.28L226.88 78.64L225.44 88.96Z" fill="#202124"/>
<path d="M223.4 79.28C225.322 79.28 226.88 78.886 226.88 78.4C226.88 77.914 225.322 77.52 223.4 77.52C221.478 77.52 219.92 77.914 219.92 78.4C219.92 78.886 221.478 79.28 223.4 79.28Z" fill="white" stroke="#202124" stroke-width="0.75" stroke-miterlimit="10"/>
<path d="M222.6 69.48C220.8 69.84 220.08 71.88 221.4 73.12C221.52 73.24 221.72 73.36 221.88 73.48C222.64 74.08 222.96 75.08 222.68 76.12C222.56 76.56 222.12 76.88 222.04 77.36C221.92 78.08 222.24 78.52 222.84 78.84C223 78.92 223.16 78.68 223 78.6C222.52 78.36 222.8 76.72 222.92 76.32C223 76.12 223.16 75.92 223.24 75.68C223.36 75.28 223.4 74.96 223.28 74.56C223.16 74.28 222.96 74.04 222.72 73.84C222.56 73.68 222.32 73.56 222.16 73.4C221.32 72.36 220.52 70.24 222.64 69.8C222.88 69.76 222.8 69.44 222.6 69.48Z" fill="#202124"/>
<path d="M225.72 72.8001C224.92 73.1601 224.36 73.9601 224.52 74.8801C224.64 75.7601 225.4 76.16 224.88 77.16C224.64 77.64 224.32 77.8001 224.32 78.4001C224.32 78.6001 224.64 78.6001 224.64 78.4001C224.6 77.5601 225.56 77.1601 225.4 76.2801C225.32 75.8401 225 75.4801 224.88 75.0801C224.64 74.2401 225.12 73.4001 225.88 73.0801C226.04 72.9601 225.88 72.7201 225.72 72.8001Z" fill="#202124"/>
<path d="M222.92 104.88C222.88 104.88 237.68 107.16 237.68 107.16V108.2L247.2 101.52V100.68L234.32 98.84L222.92 104.88Z" fill="#709AEE"/>
<path d="M223.2 105.24C223.2 105.48 223.24 105.72 223.24 105.96C223.24 106.04 223.28 106.08 223.36 106.12C227.88 107.04 232.48 107.76 237.08 108.28C237.28 108.32 237.28 108 237.08 107.96C234.68 107.68 232.28 107.36 229.88 107C228.92 106.84 223.6 106.48 223.52 105.28C223.48 105.04 223.2 105.04 223.2 105.24Z" fill="#202124"/>
<path d="M224.28 105.76C226.68 106.08 229.08 106.4 231.44 106.8C231.64 106.84 231.72 106.56 231.52 106.52C229.12 106.12 226.68 105.8 224.28 105.48C224.08 105.4 224.08 105.72 224.28 105.76Z" fill="#202124"/>
<path d="M232.44 106.92C234.08 107.16 235.68 107.36 237.32 107.56C237.52 107.6 237.52 107.28 237.32 107.24C235.72 107.04 234.12 106.84 232.52 106.64C232.32 106.6 232.24 106.88 232.44 106.92Z" fill="#202124"/>
<path d="M193.28 105.24L209.52 98.88L222.92 99.88L209.52 107.08L193.28 105.24Z" fill="white" stroke="#202124" stroke-width="0.75" stroke-miterlimit="10"/>
<path d="M195.92 102.96C199.8 103.76 203.68 104.56 207.56 105.36L220.24 99.12L210.32 98.12L195.92 102.96Z" fill="white" stroke="#202124" stroke-width="0.75" stroke-miterlimit="10"/>
<path d="M211.36 99.2C212.04 99.32 212.68 99.4 213.36 99.52C213.56 99.56 213.64 99.28 213.44 99.24C212.76 99.12 212.12 99.04 211.44 98.92C211.28 98.88 211.2 99.16 211.36 99.2Z" fill="#709AEE"/>
<path d="M200.52 102.68C202.36 103.04 204.2 103.4 206.04 103.76C206.24 103.8 206.32 103.52 206.12 103.48C204.28 103.12 202.44 102.76 200.6 102.4C200.4 102.36 200.32 102.64 200.52 102.68Z" fill="#709AEE"/>
<path d="M203.04 101.76C205.08 102.12 207.12 102.52 209.12 103C209.32 103.04 209.4 102.76 209.2 102.72C207.2 102.24 205.16 101.84 203.12 101.48C202.96 101.44 202.88 101.72 203.04 101.76Z" fill="#709AEE"/>
<path d="M207.52 101.6C208.48 101.88 209.44 102.12 210.4 102.28C210.6 102.32 210.68 102.04 210.48 102C209.52 101.84 208.56 101.64 207.6 101.32C207.44 101.24 207.36 101.56 207.52 101.6Z" fill="#709AEE"/>
<path d="M207.44 100.48C209.08 100.8 210.72 101 212.36 101.2C212.56 101.24 212.56 100.92 212.36 100.88C210.72 100.72 209.12 100.48 207.52 100.16C207.36 100.16 207.28 100.44 207.44 100.48Z" fill="#709AEE"/>
<path d="M170.68 82.5599C166.72 85.7599 163.24 90.0399 159.28 93.2799L198.2 98.0799L202.56 85.2799L170.68 82.5599Z" fill="white" stroke="#202124" stroke-width="0.75" stroke-miterlimit="10"/>
<path d="M173.56 83.64C170.36 86.24 167.56 89.68 164.36 92.28L195.76 96.16L199.28 85.84L173.56 83.64Z" fill="white" stroke="#202124" stroke-width="0.75" stroke-miterlimit="10"/>
<path d="M176.8 83.9199L167.88 92.7199" stroke="#202124" stroke-width="0.75" stroke-miterlimit="10"/>
<path d="M180 84.1599L171.8 93.1999" stroke="#202124" stroke-width="0.75" stroke-miterlimit="10"/>
<path d="M166.2 90.64C166.36 90.48 196.6 93.72 196.6 93.72L166.2 90.64Z" fill="white"/>
<path d="M166.2 90.64C166.36 90.48 196.6 93.72 196.6 93.72" stroke="#202124" stroke-width="0.75" stroke-miterlimit="10"/>
<path d="M183.44 84.48L177.52 91.72" stroke="#202124" stroke-width="0.75" stroke-miterlimit="10"/>
<path d="M186.6 84.76L181.4 92.12" stroke="#202124" stroke-width="0.75" stroke-miterlimit="10"/>
<path d="M189.92 85.0399L184 94.6799" stroke="#202124" stroke-width="0.75" stroke-miterlimit="10"/>
<path d="M193.28 85.28L188.56 95.28" stroke="#202124" stroke-width="0.75" stroke-miterlimit="10"/>
<path d="M196.04 85.5599L192.44 95.7199" stroke="#202124" stroke-width="0.75" stroke-miterlimit="10"/>
<path d="M167.88 89.04C168.04 88.88 197.28 91.72 197.28 91.72L167.88 89.04Z" fill="white"/>
<path d="M167.88 89.04C168.04 88.88 197.28 91.72 197.28 91.72" stroke="#202124" stroke-width="0.75" stroke-miterlimit="10"/>
<path d="M169.84 87.08C169.96 86.96 198.24 89.04 198.24 89.04L169.84 87.08Z" fill="white"/>
<path d="M169.84 87.08C169.96 86.96 198.24 89.04 198.24 89.04" stroke="#202124" stroke-width="0.75" stroke-miterlimit="10"/>
<path d="M171.36 85.56C171.48 85.44 198.76 87.32 198.76 87.32L171.36 85.56Z" fill="white"/>
<path d="M171.36 85.56C171.48 85.44 198.76 87.32 198.76 87.32" stroke="#202124" stroke-width="0.75" stroke-miterlimit="10"/>
<path d="M202.52 85.28L170.68 82.56V61.72L202.52 63.04V85.28Z" fill="#202124" stroke="#202124" stroke-width="0.75" stroke-miterlimit="10"/>
<path d="M202 84.24L171.2 81.76V62.76L202 63.96V84.24Z" fill="white" stroke="#202124" stroke-width="0.75" stroke-miterlimit="10"/>
<path d="M179.88 65.9999C183.12 66.1199 186.36 66.2799 189.6 66.3999C190.36 66.4399 190.36 65.2399 189.6 65.1999C186.36 65.0799 183.12 64.9199 179.88 64.7999C179.08 64.7599 179.08 65.9599 179.88 65.9999Z" fill="#4C5BE7"/>
<path d="M174.44 69.28C180.68 69.56 186.92 69.84 193.16 70.08C193.36 70.08 193.36 69.8 193.16 69.76C186.92 69.48 180.68 69.2 174.44 68.96C174.24 68.96 174.24 69.28 174.44 69.28Z" fill="#4C5BE7"/>
<path d="M173.72 72.1199C180.04 72.3599 186.4 72.6399 192.72 72.8799C192.92 72.8799 192.92 72.5999 192.72 72.5599C186.4 72.3199 180.04 72.0399 173.72 71.7999C173.52 71.7999 173.52 72.1199 173.72 72.1199Z" fill="#4C5BE7"/>
<path d="M176.28 74.68C182.48 75.04 188.72 75.4 194.92 75.76C195.12 75.76 195.12 75.48 194.92 75.44C188.72 75.08 182.48 74.72 176.28 74.36C176.08 74.36 176.08 74.68 176.28 74.68Z" fill="#4C5BE7"/>
<path d="M175.28 77.8799C181.68 78.3999 188.08 78.7999 194.48 79.1199C194.68 79.1199 194.68 78.8399 194.48 78.7999C188.08 78.4799 181.68 78.0799 175.28 77.5599C175.08 77.5599 175.08 77.8399 175.28 77.8799Z" fill="#4C5BE7"/>
<path d="M191.88 64.6C191.88 65.2 191.88 65.7599 191.88 66.3599C191.88 66.4399 191.96 66.52 192.04 66.52C194.92 66.68 197.76 66.84 200.64 67C200.84 67 200.84 66.7199 200.64 66.6799C199 66.6 197.32 66.48 195.68 66.4C194.96 66.36 194.08 66.4399 193.36 66.28C192.16 65.9999 192.2 65.8 192.2 64.6C192.2 64.4 191.88 64.4 191.88 64.6Z" fill="#4C5BE7"/>
<path d="M191.96 64.72C193.68 64.72 195.36 64.72 197.08 64.84C197.92 64.88 198.8 64.88 199.64 65.04C200.84 65.28 200.44 65.84 200.4 66.88C200.4 67.08 200.68 67.08 200.72 66.88C200.76 65.6 201.16 65.04 199.96 64.76C197.44 64.24 194.52 64.4 191.96 64.44C191.8 64.44 191.8 64.72 191.96 64.72Z" fill="#4C5BE7"/>
<path d="M163.2 122.92C162.92 123.12 162.48 123.4 162.12 123.92C161.8 124.32 161.36 124.88 161.28 125.64C161.24 125.92 161.16 126.88 161.88 127.44C162.44 127.88 163.32 127.88 164.04 127.44C164.28 128.52 164.56 129.6 164.8 130.64C165.36 130.72 166 130.76 166.72 130.72C168.4 130.64 169.76 130.12 170.64 129.68C171.16 129.28 172.08 128.48 172.48 127.16C172.56 126.84 172.72 126.36 172.64 125.8C172.52 124.52 171.6 123.72 171.24 123.36C170.04 122.28 168.68 122.08 167.92 122C165.76 121.72 164 122.52 163.2 122.92Z" fill="#F7CD5B"/>
<path d="M139.48 59.7999C141 60.6399 143.12 61.9599 145.48 63.8799C147.92 65.8399 151.56 69.3599 157.84 79.1599C160.56 83.3999 163.92 89.1999 167.16 96.4799C167.36 99.1999 167.52 101.96 167.64 104.8C167.88 110.56 167.92 116.08 167.76 121.36C167 121.48 166.12 121.68 165.16 122C164.28 122.28 163.48 122.6 162.8 122.92C160.56 116.12 158.28 109.36 156.04 102.56C151.84 98.2399 147.28 93.7999 142.32 89.3599C139.8 87.1199 137.32 84.9599 134.84 82.8799C136.4 75.1999 137.96 67.5199 139.48 59.7999Z" fill="#040844"/>
<path d="M165.24 130.84C166.24 129.08 166.44 127.08 166.64 125.12C166.64 124.92 166.36 124.92 166.32 125.12C166.16 127.04 165.92 128.96 164.96 130.68C164.88 130.84 165.12 131 165.24 130.84Z" fill="#202124"/>
<path d="M166.56 130.52C168.2 129.48 168.36 126.8 168.68 125.04C168.72 124.84 168.44 124.76 168.4 124.96C168.12 126.56 167.92 129.28 166.44 130.24C166.24 130.36 166.4 130.64 166.56 130.52Z" fill="#202124"/>
<path d="M168.32 130.36C169.88 129.2 170.16 127.36 170.4 125.56C170.44 125.36 170.12 125.36 170.08 125.56C169.88 127.24 169.6 129.04 168.16 130.12C168 130.2 168.16 130.48 168.32 130.36Z" fill="#202124"/>
<path d="M115.84 62.3199C113.6 63.1199 110.76 64.5599 105.08 67.3999C101.84 68.9999 99.6 70.2399 97.32 72.5999C96.24 73.7199 95.44 74.7999 94.96 75.5199C94.48 77.2799 93.92 79.6399 93.36 82.4399C91.68 91.1999 91.56 97.9999 91.56 99.5999C91.52 104.8 92.2 109.56 93.56 119.12C94.6 126.4 95.32 129.44 96.08 131.96C97.36 136.28 98.88 139.76 100.04 142.12C100.8 142.2 101.76 142.24 102.96 142.24C103.16 142.24 105.88 142.2 108.72 141.56C114.04 140.4 118.52 137.52 119.52 136.88C124.16 133.84 127.16 130.24 128.92 127.68C128.8 126.88 128.68 125.8 128.56 124.52C128.56 124.52 128.32 121.52 128.48 118.52C128.72 113.8 131 107.56 134.36 97.9999C136.68 91.3599 137.2 89.7199 137.64 88.2799C139.08 83.5599 139.68 80.7999 140.72 76.0399C141.96 70.3599 142.08 68.8399 141.92 67.1599C141.6 63.9199 140.4 61.3999 139.48 59.7599C137.96 59.4799 136.08 59.2399 133.96 59.1599C133.2 59.1199 130.8 59.0399 128.08 59.2799C122.96 59.7599 119.04 61.1599 115.84 62.3199Z" fill="#040844"/>
<path d="M122.96 131.76C122.36 131.96 121.76 132.2 121.2 132.4C121.68 141.6 122.12 150.8 122.6 160C145.88 166.52 169.16 173.04 192.44 179.6C193 179.36 193.6 179.12 194.16 178.88C194.76 168.24 195.36 157.56 195.96 146.92L122.96 131.76Z" fill="#D8D8D8"/>
<path d="M121.24 132.48L120.88 160.72L192.44 179.6L194.24 147.64L121.24 132.48Z" fill="#EDEDED"/>
<path d="M98.2 71.76C97.64 72.24 96.84 73 95.88 73.92C93.48 76.24 92.28 77.44 91.52 78.6C90.12 80.76 89.76 82.84 89.52 84.2C89.36 85.24 89.24 86.4 89.64 91.08C89.96 94.56 90.12 96.68 90.64 99.72C91 101.8 91.56 104.68 92.44 108.08C93.08 110.44 94.6 115.76 97.56 122.2C98.72 124.8 100.36 128 102.48 131.52C104.12 131.72 106.56 132 109.48 132.24C115.12 132.68 119 132.6 127.36 132.52C130.32 132.48 135.36 132.44 141.92 132.4C142 131.64 142.08 130.8 142.12 129.92C142.16 128.72 142.16 127.56 142.12 126.52C138.84 125.56 135.48 124.48 132.04 123.28C125.72 121.12 119.8 118.84 114.28 116.48C113.36 110.52 112.6 104.2 112 97.52C111.36 90.48 111.04 83.76 110.88 77.44C110.44 75.84 109.72 74.8 109.16 74.16C105.44 70.04 98.56 71.68 98.2 71.76Z" fill="#040844"/>
<path d="M142 126.72C142.76 125.08 143.52 123.48 144.28 121.84C144.6 121.48 145.12 121 145.88 120.64C146.56 120.36 147.16 120.32 149.24 120.52C151.6 120.76 152.76 120.88 153.24 121.4C153.8 122 153.92 122.84 154.08 124.08C154.2 125.08 154.16 125.88 154.08 126.48C153.28 126.4 152.24 126.44 151.12 126.84C150.28 127.12 149.52 127.36 148.92 128.08C148.2 128.88 148.44 129.44 147.64 130.4C147.08 131.12 146.44 131.48 146.08 131.68C144.4 132.64 142.64 132.52 141.96 132.4C141.96 130.52 141.96 128.64 142 126.72Z" fill="#F7CD5B"/>
<path d="M110.68 80.0801C111.08 92.2801 112.32 104.4 114.36 116.44C114.4 116.64 114.68 116.56 114.64 116.36C112.6 104.36 111.4 92.2401 110.96 80.0801C111 79.8801 110.68 79.8801 110.68 80.0801Z" fill="white"/>
<path d="M114.4 116.68C123.44 120.48 132.64 123.88 141.96 126.84C142.16 126.88 142.24 126.6 142.04 126.56C132.72 123.6 123.52 120.2 114.48 116.4C114.28 116.32 114.2 116.6 114.4 116.68Z" fill="white"/>
<path d="M141.88 126.84C142.04 128.72 141.96 130.6 141.68 132.44C141.64 132.64 141.92 132.72 141.96 132.52C142.28 130.64 142.36 128.72 142.2 126.84C142.16 126.64 141.88 126.64 141.88 126.84Z" fill="#202124"/>
<path d="M146.08 121.8C148 119.84 150.84 120.92 153.16 121.52C153.36 121.56 153.44 121.28 153.24 121.24C150.84 120.6 147.92 119.52 145.88 121.6C145.76 121.76 145.96 121.96 146.08 121.8Z" fill="#202124"/>
<path d="M147.32 122.96C149.24 122.08 151.36 122.08 153.32 122.92C153.48 123 153.64 122.72 153.48 122.68C151.44 121.8 149.24 121.8 147.2 122.72C147 122.76 147.16 123.04 147.32 122.96Z" fill="#202124"/>
<path d="M148.68 124.88C150.48 124.48 152.24 124.48 154 124.96C154.2 125 154.28 124.72 154.08 124.68C152.28 124.2 150.44 124.16 148.6 124.6C148.4 124.64 148.48 124.92 148.68 124.88Z" fill="#202124"/>
<path d="M130.4 53.32C130.84 57.8 125.92 63.28 120.64 63.16C117.76 63.08 114.16 61.36 113.36 58.4C112.88 56.64 113.56 55.08 114.4 53.28C114.52 53 117.16 47.32 120 47.64C121.16 47.76 121.16 48.76 122.72 49.2C124.84 49.8 125.96 48.32 127.56 48.8C129.28 49.28 130.24 51.68 130.4 53.32Z" fill="#4C5BE7"/>
<path d="M119.2 55.64C119.24 55.44 119.64 53.92 121.12 53.24C122.16 52.76 123.16 52.96 123.44 53.04C122.52 52.32 121.24 52.28 120.28 52.92C119.44 53.52 119 54.6 119.2 55.64Z" fill="#EB506E"/>
<path d="M127.56 57.4399C128 58.0799 128.04 58.7199 128.08 59.3199C128.16 60.5599 127.84 61.5199 127.64 62.0399C127.36 62.7599 127.04 63.6799 126.16 64.5199C125.24 65.3599 124.28 65.5999 123.68 65.7599C122.68 65.9999 121.84 65.9599 121.32 65.9199C121.2 66.1199 121.04 66.3199 120.92 66.5199C120.96 66.5199 121.4 66.5599 121.64 66.9199C121.92 67.3599 121.72 67.8399 121.68 67.8799C121.52 68.1599 121.28 68.2799 121.08 68.3999C120.24 68.7999 119.36 68.5599 119.16 68.5199C118.52 68.3199 118.16 67.9999 117.96 67.8399C117.28 67.1999 117 66.4799 116.92 66.0799C117.32 65.3999 117.72 64.7199 118.12 64.0399C117.84 63.4799 117.52 62.9199 117.24 62.3599C117 61.7999 116.88 61.1599 116.96 60.4399C117.4 57.3199 122.44 55.1999 125.52 56.1199C125.92 56.1999 126.92 56.5199 127.56 57.4399Z" fill="#F7CD5B"/>
<path d="M123.44 61.6C123.639 61.6 123.8 61.3851 123.8 61.12C123.8 60.8549 123.639 60.64 123.44 60.64C123.241 60.64 123.08 60.8549 123.08 61.12C123.08 61.3851 123.241 61.6 123.44 61.6Z" fill="#202124"/>
<path d="M126.36 61.3999C126.559 61.3999 126.72 61.185 126.72 60.9199C126.72 60.6548 126.559 60.4399 126.36 60.4399C126.161 60.4399 126 60.6548 126 60.9199C126 61.185 126.161 61.3999 126.36 61.3999Z" fill="#202124"/>
<path d="M122.48 59.6C122.88 59.32 123.32 59.16 123.84 59.28C124.04 59.32 124.12 59.04 123.92 59C123.36 58.88 122.8 59 122.36 59.36C122.2 59.48 122.36 59.72 122.48 59.6Z" fill="#202124"/>
<path d="M126.08 58.88C126.52 58.76 126.92 58.84 127.28 59.12C127.44 59.24 127.6 58.96 127.44 58.88C127 58.56 126.48 58.48 126 58.6C125.8 58.64 125.88 58.96 126.08 58.88Z" fill="#202124"/>
<path d="M121.2 65.92C120.92 66.28 120.6 66.68 120.32 67.04C120.2 67.2 120.4 67.4 120.52 67.24C120.8 66.88 121.12 66.48 121.4 66.12C121.56 65.96 121.32 65.76 121.2 65.92Z" fill="#202124"/>
<path d="M124.88 59.92C124.96 61.16 124.92 62.6 124.2 63.68C124.08 63.84 124.36 64 124.44 63.84C125.2 62.76 125.28 61.24 125.16 59.96C125.16 59.76 124.88 59.76 124.88 59.92Z" fill="#202124"/>
<path d="M116.72 60.36C116.96 60.48 117.36 60.64 117.84 60.64C118.16 60.64 118.8 60.56 120 59.52C121.36 58.32 121.2 57.8 122.28 57.16C122.44 57.08 123.16 56.64 124.2 56.48C124.72 56.4 125.4 56.32 126.12 56.6C127.48 57.16 127.88 58.76 127.96 59C129.88 57.24 129.64 56.12 129.6 55.88C129.12 54 125 53.68 122.96 53.84C122 53.92 120.48 54.04 119.12 55.16C118.2 55.88 117.76 56.72 117.56 57.08C116.8 58.44 116.72 59.68 116.72 60.36Z" fill="#4C5BE7"/>
<path d="M23.1177 288V273.1H33.0177V275.5H25.8377V279.32H32.6177V281.72H25.8377V285.6H33.0177V288H23.1177ZM38.2523 288.24C37.4923 288.24 36.8323 288.113 36.2723 287.86C35.7123 287.607 35.2789 287.247 34.9723 286.78C34.6656 286.3 34.5123 285.747 34.5123 285.12C34.5123 284.52 34.6456 283.987 34.9123 283.52C35.1789 283.04 35.5923 282.64 36.1523 282.32C36.7123 282 37.4189 281.773 38.2723 281.64L41.8323 281.06V283.06L38.7723 283.58C38.2523 283.673 37.8656 283.84 37.6123 284.08C37.3589 284.32 37.2323 284.633 37.2323 285.02C37.2323 285.393 37.3723 285.693 37.6523 285.92C37.9456 286.133 38.3056 286.24 38.7323 286.24C39.2789 286.24 39.7589 286.127 40.1723 285.9C40.5989 285.66 40.9256 285.333 41.1523 284.92C41.3923 284.507 41.5123 284.053 41.5123 283.56V280.76C41.5123 280.293 41.3256 279.907 40.9523 279.6C40.5923 279.28 40.1123 279.12 39.5123 279.12C38.9523 279.12 38.4523 279.273 38.0123 279.58C37.5856 279.873 37.2723 280.267 37.0723 280.76L34.9323 279.72C35.1456 279.147 35.4789 278.653 35.9323 278.24C36.3989 277.813 36.9456 277.48 37.5723 277.24C38.1989 277 38.8789 276.88 39.6123 276.88C40.5056 276.88 41.2923 277.047 41.9723 277.38C42.6523 277.7 43.1789 278.153 43.5523 278.74C43.9389 279.313 44.1323 279.987 44.1323 280.76V288H41.6523V286.14L42.2123 286.1C41.9323 286.567 41.5989 286.96 41.2123 287.28C40.8256 287.587 40.3856 287.827 39.8923 288C39.3989 288.16 38.8523 288.24 38.2523 288.24ZM50.8538 288.24C49.6938 288.24 48.6805 287.967 47.8138 287.42C46.9605 286.86 46.3738 286.107 46.0538 285.16L48.0138 284.22C48.2938 284.833 48.6805 285.313 49.1738 285.66C49.6805 286.007 50.2405 286.18 50.8538 286.18C51.3338 286.18 51.7138 286.073 51.9938 285.86C52.2738 285.647 52.4138 285.367 52.4138 285.02C52.4138 284.807 52.3538 284.633 52.2338 284.5C52.1272 284.353 51.9738 284.233 51.7738 284.14C51.5872 284.033 51.3805 283.947 51.1538 283.88L49.3738 283.38C48.4538 283.113 47.7538 282.707 47.2738 282.16C46.8072 281.613 46.5738 280.967 46.5738 280.22C46.5738 279.553 46.7405 278.973 47.0738 278.48C47.4205 277.973 47.8938 277.58 48.4938 277.3C49.1072 277.02 49.8072 276.88 50.5938 276.88C51.6205 276.88 52.5272 277.127 53.3138 277.62C54.1005 278.113 54.6605 278.807 54.9938 279.7L52.9938 280.64C52.8072 280.147 52.4938 279.753 52.0538 279.46C51.6138 279.167 51.1205 279.02 50.5738 279.02C50.1338 279.02 49.7872 279.12 49.5338 279.32C49.2805 279.52 49.1538 279.78 49.1538 280.1C49.1538 280.3 49.2072 280.473 49.3138 280.62C49.4205 280.767 49.5672 280.887 49.7538 280.98C49.9538 281.073 50.1805 281.16 50.4338 281.24L52.1738 281.76C53.0672 282.027 53.7538 282.427 54.2338 282.96C54.7272 283.493 54.9738 284.147 54.9738 284.92C54.9738 285.573 54.8005 286.153 54.4538 286.66C54.1072 287.153 53.6272 287.54 53.0138 287.82C52.4005 288.1 51.6805 288.24 50.8538 288.24ZM57.1473 288V277.12H59.7673V288H57.1473ZM57.1473 275.9V273.1H59.7673V275.9H57.1473ZM62.3463 288V272.86H64.9663V288H62.3463ZM68.8654 292.42C68.5721 292.42 68.2854 292.393 68.0054 292.34C67.7254 292.3 67.4721 292.227 67.2454 292.12V289.92C67.4187 289.96 67.6254 290 67.8654 290.04C68.1187 290.08 68.3521 290.1 68.5654 290.1C69.1654 290.1 69.5987 289.96 69.8654 289.68C70.1454 289.4 70.3921 289.033 70.6054 288.58L71.3254 286.9L71.2854 289.1L66.5454 277.12H69.3654L72.6854 285.96H71.6854L74.9854 277.12H77.8254L73.0854 289.1C72.8054 289.807 72.4654 290.407 72.0654 290.9C71.6654 291.393 71.1987 291.767 70.6654 292.02C70.1454 292.287 69.5454 292.42 68.8654 292.42ZM83.1388 288V277.12H85.5988V279.64L85.3188 279.22C85.5188 278.433 85.9188 277.847 86.5188 277.46C87.1188 277.073 87.8255 276.88 88.6388 276.88C89.5322 276.88 90.3188 277.113 90.9988 277.58C91.6788 278.047 92.1188 278.66 92.3188 279.42L91.5788 279.48C91.9122 278.613 92.4122 277.967 93.0788 277.54C93.7455 277.1 94.5122 276.88 95.3788 276.88C96.1522 276.88 96.8388 277.053 97.4388 277.4C98.0522 277.747 98.5322 278.233 98.8788 278.86C99.2255 279.473 99.3988 280.187 99.3988 281V288H96.7788V281.62C96.7788 281.14 96.6922 280.727 96.5188 280.38C96.3455 280.033 96.1055 279.767 95.7988 279.58C95.4922 279.38 95.1188 279.28 94.6788 279.28C94.2655 279.28 93.8988 279.38 93.5788 279.58C93.2588 279.767 93.0122 280.033 92.8388 280.38C92.6655 280.727 92.5788 281.14 92.5788 281.62V288H89.9588V281.62C89.9588 281.14 89.8722 280.727 89.6988 280.38C89.5255 280.033 89.2788 279.767 88.9588 279.58C88.6522 279.38 88.2855 279.28 87.8588 279.28C87.4455 279.28 87.0788 279.38 86.7588 279.58C86.4388 279.767 86.1922 280.033 86.0188 280.38C85.8455 280.727 85.7588 281.14 85.7588 281.62V288H83.1388ZM105.075 288.24C104.315 288.24 103.655 288.113 103.095 287.86C102.535 287.607 102.102 287.247 101.795 286.78C101.489 286.3 101.335 285.747 101.335 285.12C101.335 284.52 101.469 283.987 101.735 283.52C102.002 283.04 102.415 282.64 102.975 282.32C103.535 282 104.242 281.773 105.095 281.64L108.655 281.06V283.06L105.595 283.58C105.075 283.673 104.689 283.84 104.435 284.08C104.182 284.32 104.055 284.633 104.055 285.02C104.055 285.393 104.195 285.693 104.475 285.92C104.769 286.133 105.129 286.24 105.555 286.24C106.102 286.24 106.582 286.127 106.995 285.9C107.422 285.66 107.749 285.333 107.975 284.92C108.215 284.507 108.335 284.053 108.335 283.56V280.76C108.335 280.293 108.149 279.907 107.775 279.6C107.415 279.28 106.935 279.12 106.335 279.12C105.775 279.12 105.275 279.273 104.835 279.58C104.409 279.873 104.095 280.267 103.895 280.76L101.755 279.72C101.969 279.147 102.302 278.653 102.755 278.24C103.222 277.813 103.769 277.48 104.395 277.24C105.022 277 105.702 276.88 106.435 276.88C107.329 276.88 108.115 277.047 108.795 277.38C109.475 277.7 110.002 278.153 110.375 278.74C110.762 279.313 110.955 279.987 110.955 280.76V288H108.475V286.14L109.035 286.1C108.755 286.567 108.422 286.96 108.035 287.28C107.649 287.587 107.209 287.827 106.715 288C106.222 288.16 105.675 288.24 105.075 288.24ZM113.537 288V277.12H115.997V279.26L115.797 278.88C116.05 278.227 116.464 277.733 117.037 277.4C117.624 277.053 118.304 276.88 119.077 276.88C119.877 276.88 120.584 277.053 121.197 277.4C121.824 277.747 122.31 278.233 122.657 278.86C123.004 279.473 123.177 280.187 123.177 281V288H120.557V281.62C120.557 281.14 120.464 280.727 120.277 280.38C120.09 280.033 119.83 279.767 119.497 279.58C119.177 279.38 118.797 279.28 118.357 279.28C117.93 279.28 117.55 279.38 117.217 279.58C116.884 279.767 116.624 280.033 116.437 280.38C116.25 280.727 116.157 281.14 116.157 281.62V288H113.537ZM128.852 288.24C128.092 288.24 127.432 288.113 126.872 287.86C126.312 287.607 125.879 287.247 125.572 286.78C125.266 286.3 125.112 285.747 125.112 285.12C125.112 284.52 125.246 283.987 125.512 283.52C125.779 283.04 126.192 282.64 126.752 282.32C127.312 282 128.019 281.773 128.872 281.64L132.432 281.06V283.06L129.372 283.58C128.852 283.673 128.466 283.84 128.212 284.08C127.959 284.32 127.832 284.633 127.832 285.02C127.832 285.393 127.972 285.693 128.252 285.92C128.546 286.133 128.906 286.24 129.332 286.24C129.879 286.24 130.359 286.127 130.772 285.9C131.199 285.66 131.526 285.333 131.752 284.92C131.992 284.507 132.112 284.053 132.112 283.56V280.76C132.112 280.293 131.926 279.907 131.552 279.6C131.192 279.28 130.712 279.12 130.112 279.12C129.552 279.12 129.052 279.273 128.612 279.58C128.186 279.873 127.872 280.267 127.672 280.76L125.532 279.72C125.746 279.147 126.079 278.653 126.532 278.24C126.999 277.813 127.546 277.48 128.172 277.24C128.799 277 129.479 276.88 130.212 276.88C131.106 276.88 131.892 277.047 132.572 277.38C133.252 277.7 133.779 278.153 134.152 278.74C134.539 279.313 134.732 279.987 134.732 280.76V288H132.252V286.14L132.812 286.1C132.532 286.567 132.199 286.96 131.812 287.28C131.426 287.587 130.986 287.827 130.492 288C129.999 288.16 129.452 288.24 128.852 288.24ZM142.594 292.4C141.781 292.4 141.027 292.267 140.334 292C139.641 291.733 139.041 291.36 138.534 290.88C138.041 290.413 137.681 289.86 137.454 289.22L139.894 288.3C140.054 288.807 140.367 289.213 140.834 289.52C141.314 289.84 141.901 290 142.594 290C143.127 290 143.594 289.9 143.994 289.7C144.407 289.5 144.727 289.207 144.954 288.82C145.181 288.447 145.294 287.993 145.294 287.46V284.98L145.794 285.58C145.421 286.233 144.921 286.727 144.294 287.06C143.667 287.393 142.954 287.56 142.154 287.56C141.141 287.56 140.234 287.327 139.434 286.86C138.634 286.393 138.007 285.753 137.554 284.94C137.101 284.127 136.874 283.213 136.874 282.2C136.874 281.173 137.101 280.26 137.554 279.46C138.007 278.66 138.627 278.033 139.414 277.58C140.201 277.113 141.094 276.88 142.094 276.88C142.907 276.88 143.621 277.053 144.234 277.4C144.861 277.733 145.381 278.22 145.794 278.86L145.434 279.52V277.12H147.914V287.46C147.914 288.407 147.681 289.253 147.214 290C146.761 290.747 146.134 291.333 145.334 291.76C144.547 292.187 143.634 292.4 142.594 292.4ZM142.474 285.14C143.034 285.14 143.521 285.02 143.934 284.78C144.361 284.527 144.694 284.18 144.934 283.74C145.174 283.3 145.294 282.793 145.294 282.22C145.294 281.66 145.167 281.16 144.914 280.72C144.674 280.267 144.341 279.913 143.914 279.66C143.501 279.407 143.021 279.28 142.474 279.28C141.927 279.28 141.434 279.407 140.994 279.66C140.554 279.913 140.207 280.267 139.954 280.72C139.714 281.16 139.594 281.66 139.594 282.22C139.594 282.78 139.714 283.28 139.954 283.72C140.207 284.16 140.547 284.507 140.974 284.76C141.414 285.013 141.914 285.14 142.474 285.14ZM155.681 288.24C154.561 288.24 153.581 287.987 152.741 287.48C151.901 286.973 151.248 286.287 150.781 285.42C150.314 284.553 150.081 283.593 150.081 282.54C150.081 281.447 150.314 280.48 150.781 279.64C151.261 278.787 151.908 278.113 152.721 277.62C153.548 277.127 154.468 276.88 155.481 276.88C156.334 276.88 157.081 277.02 157.721 277.3C158.374 277.58 158.928 277.967 159.381 278.46C159.834 278.953 160.181 279.52 160.421 280.16C160.661 280.787 160.781 281.467 160.781 282.2C160.781 282.387 160.768 282.58 160.741 282.78C160.728 282.98 160.694 283.153 160.641 283.3H152.241V281.3H159.161L157.921 282.24C158.041 281.627 158.008 281.08 157.821 280.6C157.648 280.12 157.354 279.74 156.941 279.46C156.541 279.18 156.054 279.04 155.481 279.04C154.934 279.04 154.448 279.18 154.021 279.46C153.594 279.727 153.268 280.127 153.041 280.66C152.828 281.18 152.748 281.813 152.801 282.56C152.748 283.227 152.834 283.82 153.061 284.34C153.301 284.847 153.648 285.24 154.101 285.52C154.568 285.8 155.101 285.94 155.701 285.94C156.301 285.94 156.808 285.813 157.221 285.56C157.648 285.307 157.981 284.967 158.221 284.54L160.341 285.58C160.128 286.1 159.794 286.56 159.341 286.96C158.888 287.36 158.348 287.673 157.721 287.9C157.108 288.127 156.428 288.24 155.681 288.24ZM167.962 292.42C167.668 292.42 167.382 292.393 167.102 292.34C166.822 292.3 166.568 292.227 166.342 292.12V289.92C166.515 289.96 166.722 290 166.962 290.04C167.215 290.08 167.448 290.1 167.662 290.1C168.262 290.1 168.695 289.96 168.962 289.68C169.242 289.4 169.488 289.033 169.702 288.58L170.422 286.9L170.382 289.1L165.642 277.12H168.462L171.782 285.96H170.782L174.082 277.12H176.922L172.182 289.1C171.902 289.807 171.562 290.407 171.162 290.9C170.762 291.393 170.295 291.767 169.762 292.02C169.242 292.287 168.642 292.42 167.962 292.42ZM183.645 288.24C182.578 288.24 181.605 287.993 180.725 287.5C179.858 287.007 179.165 286.333 178.645 285.48C178.138 284.627 177.885 283.653 177.885 282.56C177.885 281.467 178.138 280.493 178.645 279.64C179.165 278.787 179.858 278.113 180.725 277.62C181.592 277.127 182.565 276.88 183.645 276.88C184.712 276.88 185.678 277.127 186.545 277.62C187.412 278.113 188.098 278.787 188.605 279.64C189.125 280.48 189.385 281.453 189.385 282.56C189.385 283.653 189.125 284.627 188.605 285.48C188.085 286.333 187.392 287.007 186.525 287.5C185.658 287.993 184.698 288.24 183.645 288.24ZM183.645 285.84C184.232 285.84 184.745 285.7 185.185 285.42C185.638 285.14 185.992 284.753 186.245 284.26C186.512 283.753 186.645 283.187 186.645 282.56C186.645 281.92 186.512 281.36 186.245 280.88C185.992 280.387 185.638 280 185.185 279.72C184.745 279.427 184.232 279.28 183.645 279.28C183.045 279.28 182.518 279.427 182.065 279.72C181.612 280 181.252 280.387 180.985 280.88C180.732 281.36 180.605 281.92 180.605 282.56C180.605 283.187 180.732 283.753 180.985 284.26C181.252 284.753 181.612 285.14 182.065 285.42C182.518 285.7 183.045 285.84 183.645 285.84ZM195.412 288.24C194.572 288.24 193.839 288.053 193.212 287.68C192.599 287.307 192.125 286.787 191.792 286.12C191.472 285.453 191.312 284.673 191.312 283.78V277.12H193.932V283.56C193.932 284.013 194.019 284.413 194.192 284.76C194.379 285.093 194.639 285.36 194.972 285.56C195.319 285.747 195.705 285.84 196.132 285.84C196.559 285.84 196.939 285.747 197.272 285.56C197.605 285.36 197.865 285.087 198.052 284.74C198.239 284.393 198.332 283.98 198.332 283.5V277.12H200.952V288H198.472V285.86L198.692 286.24C198.439 286.907 198.019 287.407 197.432 287.74C196.859 288.073 196.185 288.24 195.412 288.24ZM203.547 288V277.12H206.007V279.54L205.807 279.18C206.061 278.367 206.454 277.8 206.987 277.48C207.534 277.16 208.187 277 208.947 277H209.587V279.32H208.647C207.901 279.32 207.301 279.553 206.847 280.02C206.394 280.473 206.167 281.113 206.167 281.94V288H203.547ZM214.903 292V277.12H217.363V279.28L217.123 278.74C217.496 278.153 218.003 277.7 218.643 277.38C219.283 277.047 220.023 276.88 220.863 276.88C221.889 276.88 222.816 277.133 223.643 277.64C224.469 278.147 225.123 278.827 225.603 279.68C226.096 280.533 226.343 281.493 226.343 282.56C226.343 283.613 226.103 284.573 225.623 285.44C225.143 286.307 224.489 286.993 223.663 287.5C222.836 287.993 221.896 288.24 220.843 288.24C220.056 288.24 219.329 288.087 218.663 287.78C218.009 287.46 217.489 287.007 217.103 286.42L217.523 285.9V292H214.903ZM220.543 285.84C221.143 285.84 221.676 285.7 222.143 285.42C222.609 285.14 222.969 284.753 223.223 284.26C223.489 283.767 223.623 283.2 223.623 282.56C223.623 281.92 223.489 281.36 223.223 280.88C222.969 280.387 222.609 280 222.143 279.72C221.676 279.427 221.143 279.28 220.543 279.28C219.969 279.28 219.449 279.42 218.983 279.7C218.529 279.98 218.169 280.373 217.903 280.88C217.649 281.373 217.523 281.933 217.523 282.56C217.523 283.2 217.649 283.767 217.903 284.26C218.169 284.753 218.529 285.14 218.983 285.42C219.449 285.7 219.969 285.84 220.543 285.84ZM228.5 288V277.12H230.96V279.54L230.76 279.18C231.013 278.367 231.407 277.8 231.94 277.48C232.487 277.16 233.14 277 233.9 277H234.54V279.32H233.6C232.853 279.32 232.253 279.553 231.8 280.02C231.347 280.473 231.12 281.113 231.12 281.94V288H228.5ZM241.461 288.24C240.394 288.24 239.421 287.993 238.541 287.5C237.674 287.007 236.981 286.333 236.461 285.48C235.954 284.627 235.701 283.653 235.701 282.56C235.701 281.467 235.954 280.493 236.461 279.64C236.981 278.787 237.674 278.113 238.541 277.62C239.407 277.127 240.381 276.88 241.461 276.88C242.527 276.88 243.494 277.127 244.361 277.62C245.227 278.113 245.914 278.787 246.421 279.64C246.941 280.48 247.201 281.453 247.201 282.56C247.201 283.653 246.941 284.627 246.421 285.48C245.901 286.333 245.207 287.007 244.341 287.5C243.474 287.993 242.514 288.24 241.461 288.24ZM241.461 285.84C242.047 285.84 242.561 285.7 243.001 285.42C243.454 285.14 243.807 284.753 244.061 284.26C244.327 283.753 244.461 283.187 244.461 282.56C244.461 281.92 244.327 281.36 244.061 280.88C243.807 280.387 243.454 280 243.001 279.72C242.561 279.427 242.047 279.28 241.461 279.28C240.861 279.28 240.334 279.427 239.881 279.72C239.427 280 239.067 280.387 238.801 280.88C238.547 281.36 238.421 281.92 238.421 282.56C238.421 283.187 238.547 283.753 238.801 284.26C239.067 284.753 239.427 285.14 239.881 285.42C240.334 285.7 240.861 285.84 241.461 285.84ZM247.847 292.42C247.674 292.42 247.494 292.413 247.307 292.4C247.121 292.387 246.967 292.367 246.847 292.34V290.06C247.087 290.1 247.327 290.12 247.567 290.12C248.127 290.12 248.561 289.987 248.867 289.72C249.187 289.467 249.347 289.073 249.347 288.54V277.12H251.967V288.54C251.967 289.367 251.801 290.067 251.467 290.64C251.134 291.227 250.654 291.667 250.027 291.96C249.414 292.267 248.687 292.42 247.847 292.42ZM249.347 275.9V273.1H251.967V275.9H249.347ZM259.706 288.24C258.586 288.24 257.606 287.987 256.766 287.48C255.926 286.973 255.273 286.287 254.806 285.42C254.34 284.553 254.106 283.593 254.106 282.54C254.106 281.447 254.34 280.48 254.806 279.64C255.286 278.787 255.933 278.113 256.746 277.62C257.573 277.127 258.493 276.88 259.506 276.88C260.36 276.88 261.106 277.02 261.746 277.3C262.4 277.58 262.953 277.967 263.406 278.46C263.86 278.953 264.206 279.52 264.446 280.16C264.686 280.787 264.806 281.467 264.806 282.2C264.806 282.387 264.793 282.58 264.766 282.78C264.753 282.98 264.72 283.153 264.666 283.3H256.266V281.3H263.186L261.946 282.24C262.066 281.627 262.033 281.08 261.846 280.6C261.673 280.12 261.38 279.74 260.966 279.46C260.566 279.18 260.08 279.04 259.506 279.04C258.96 279.04 258.473 279.18 258.046 279.46C257.62 279.727 257.293 280.127 257.066 280.66C256.853 281.18 256.773 281.813 256.826 282.56C256.773 283.227 256.86 283.82 257.086 284.34C257.326 284.847 257.673 285.24 258.126 285.52C258.593 285.8 259.126 285.94 259.726 285.94C260.326 285.94 260.833 285.813 261.246 285.56C261.673 285.307 262.006 284.967 262.246 284.54L264.366 285.58C264.153 286.1 263.82 286.56 263.366 286.96C262.913 287.36 262.373 287.673 261.746 287.9C261.133 288.127 260.453 288.24 259.706 288.24ZM272.193 288.24C271.113 288.24 270.139 287.993 269.273 287.5C268.419 286.993 267.746 286.313 267.253 285.46C266.759 284.593 266.513 283.62 266.513 282.54C266.513 281.46 266.759 280.493 267.253 279.64C267.746 278.787 268.419 278.113 269.273 277.62C270.139 277.127 271.113 276.88 272.193 276.88C272.966 276.88 273.686 277.02 274.353 277.3C275.019 277.567 275.593 277.94 276.073 278.42C276.566 278.887 276.919 279.447 277.133 280.1L274.833 281.1C274.633 280.553 274.293 280.113 273.813 279.78C273.346 279.447 272.806 279.28 272.193 279.28C271.619 279.28 271.106 279.42 270.653 279.7C270.213 279.98 269.866 280.367 269.613 280.86C269.359 281.353 269.233 281.92 269.233 282.56C269.233 283.2 269.359 283.767 269.613 284.26C269.866 284.753 270.213 285.14 270.653 285.42C271.106 285.7 271.619 285.84 272.193 285.84C272.819 285.84 273.366 285.673 273.833 285.34C274.299 285.007 274.633 284.56 274.833 284L277.133 285.04C276.919 285.653 276.573 286.207 276.093 286.7C275.613 287.18 275.039 287.56 274.373 287.84C273.706 288.107 272.979 288.24 272.193 288.24ZM284.241 288.12C283.014 288.12 282.061 287.787 281.381 287.12C280.714 286.44 280.381 285.487 280.381 284.26V279.46H278.501V277.12H278.701C279.234 277.12 279.647 276.98 279.941 276.7C280.234 276.42 280.381 276.013 280.381 275.48V274.64H283.001V277.12H285.501V279.46H283.001V284.12C283.001 284.48 283.061 284.787 283.181 285.04C283.314 285.293 283.514 285.487 283.781 285.62C284.061 285.753 284.414 285.82 284.841 285.82C284.934 285.82 285.041 285.813 285.161 285.8C285.294 285.787 285.421 285.773 285.541 285.76V288C285.354 288.027 285.141 288.053 284.901 288.08C284.661 288.107 284.441 288.12 284.241 288.12Z" fill="#202124"/>
</svg>
